<svg width="137" height="133" fill="none" xmlns="http://www.w3.org/2000/svg"><g filter="url(#filter0_d_1753_218)"><g filter="url(#filter1_d_1753_218)"><path d="M59.366 37.113l-2.789-.31 3.718-10.845 1.86 2.479-2.79 8.676z" fill="#6D2626"/><path d="M70.521 27.197c-3.305-.413-9.977-1.24-10.225-1.24l1.86 2.48 7.746.93.62-2.17z" fill="#992B2B"/><path d="M77.338 44.86l1.55 1.549 3.408-11.465h-1.86l-3.098 9.915z" fill="#892A2A"/><path d="M59.056 43.93L56.577 43l5.268 4.648 1.24-.62-4.029-3.098z" fill="#B13232"/><path d="M56.577 43l10.226 1.24.62.62-8.367-.93-2.479-.93zm6.507 4.029l-1.549.62 10.226 1.548-1.24-1.239-7.437-.93z" fill="#8B2929"/><path d="M77.028 31.845v-1.859l5.268 4.958h-1.86l-3.408-3.099z" fill="#702B2B"/><path d="M73.62 41.451l3.408-9.606v-1.859L73 41.141l.62.31z" fill="#892A2A"/><path fill-rule="evenodd" clip-rule="evenodd" d="M69.578 42.884l6.73-19.665L57.618 21 51 40.515l18.578 2.369zm-2.72-4.802l3.715-10.856-10.318-1.225L56.6 36.775l10.256 1.307z" fill="url(#paint0_linear_1753_218)"/><path fill-rule="evenodd" clip-rule="evenodd" d="M79.34 51.986l-9.762-9.102 6.73-19.665 9.562 8.857-6.53 19.91zm-.65-5.982l-5.43-5.064 3.744-10.939 5.32 4.927-3.634 11.076z" fill="#992B2B"/><path fill-rule="evenodd" clip-rule="evenodd" d="M60.54 49.273L51 40.515l18.578 2.369 9.76 9.102-18.798-2.713zm1.288-1.57l-5.093-4.676 9.919 1.265 5.211 4.86-10.037-1.45z" fill="url(#paint1_linear_1753_218)"/></g></g><defs><linearGradient id="paint0_linear_1753_218" x1="63.654" y1="21" x2="63.654" y2="42.884" gradientUnits="userSpaceOnUse"><stop stop-color="#FB4747"/><stop offset="1" stop-color="#CF3535"/></linearGradient><linearGradient id="paint1_linear_1753_218" x1="50.567" y1="44.723" x2="79.801" y2="47.792" gradientUnits="userSpaceOnUse"><stop stop-color="#FA4747"/><stop offset="1" stop-color="#CF3535"/></linearGradient><filter id="filter0_d_1753_218" x="47" y="21" width="42.87" height="38.986" filterUnits="userSpaceOnUse" color-interpolation-filters="sRGB"><feFlood flood-opacity="0" result="BackgroundImageFix"/><feColorMatrix in="SourceAlpha" values="0 0 0 0 0 0 0 0 0 0 0 0 0 0 0 0 0 0 127 0" result="hardAlpha"/><feOffset dy="4"/><feGaussianBlur stdDeviation="2"/><feComposite in2="hardAlpha" operator="out"/><feColorMatrix values="0 0 0 0 0 0 0 0 0 0 0 0 0 0 0 0 0 0 0.25 0"/><feBlend in2="BackgroundImageFix" result="effect1_dropShadow_1753_218"/><feBlend in="SourceGraphic" in2="effect1_dropShadow_1753_218" result="shape"/></filter><filter id="filter1_d_1753_218" x="0" y="0" width="136.87" height="132.986" filterUnits="userSpaceOnUse" color-interpolation-filters="sRGB"><feFlood flood-opacity="0" result="BackgroundImageFix"/><feColorMatrix in="SourceAlpha" values="0 0 0 0 0 0 0 0 0 0 0 0 0 0 0 0 0 0 127 0" result="hardAlpha"/><feOffset dy="30"/><feGaussianBlur stdDeviation="25.5"/><feColorMatrix values="0 0 0 0 0.980392 0 0 0 0 0.278431 0 0 0 0 0.278431 0 0 0 0.26 0"/><feBlend in2="BackgroundImageFix" result="effect1_dropShadow_1753_218"/><feBlend in="SourceGraphic" in2="effect1_dropShadow_1753_218" result="shape"/></filter></defs></svg>