<svg width="159" height="152" fill="none" xmlns="http://www.w3.org/2000/svg"><g filter="url(#filter0_d_1749_463)"><path d="M64.5 47l-4.5-.5L66 29l3 4-4.5 14z" fill="#6D2626"/><path d="M82.5 31c-5.333-.667-16.1-2-16.5-2l3 4 12.5 1.5 1-3.5z" fill="#992B2B"/><path d="M93.5 59.5L96 62l5.5-18.5h-3l-5 16z" fill="#892A2A"/><path d="M64 58l-4-1.5 8.5 7.5 2-1-6.5-5z" fill="#B13232"/><path d="M60 56.5l16.5 2 1 1L64 58l-4-1.5zM70.5 63L68 64l16.5 2.5-2-2-12-1.5z" fill="#8B2929"/><path d="M93 38.5v-3l8.5 8h-3l-5.5-5z" fill="#702B2B"/><path d="M87.5 54L93 38.5v-3l-6.5 18 1 .5z" fill="#892A2A"/><path fill-rule="evenodd" clip-rule="evenodd" d="M80.977 56.312l10.861-31.73L61.68 21 51 52.49l29.977 3.822zm-4.39-7.747l5.996-17.518-16.65-1.977-5.895 17.385 16.55 2.11z" fill="url(#paint0_linear_1749_463)"/><path fill-rule="evenodd" clip-rule="evenodd" d="M96.728 71l-15.75-14.688 10.86-31.73 15.429 14.29L96.728 71zm-1.048-9.653l-8.762-8.171 6.042-17.652 8.583 7.95-5.863 17.873z" fill="#992B2B"/><path fill-rule="evenodd" clip-rule="evenodd" d="M66.394 66.621L51 52.491l29.977 3.821L96.728 71l-30.334-4.38zm2.079-2.533l-8.22-7.544 16.006 2.04 8.41 7.842-16.196-2.338z" fill="url(#paint1_linear_1749_463)"/></g><defs><linearGradient id="paint0_linear_1749_463" x1="71.419" y1="21" x2="71.419" y2="56.312" gradientUnits="userSpaceOnUse"><stop stop-color="#FB4747"/><stop offset="1" stop-color="#CF3535"/></linearGradient><linearGradient id="paint1_linear_1749_463" x1="50.301" y1="59.279" x2="97.474" y2="64.231" gradientUnits="userSpaceOnUse"><stop stop-color="#FA4747"/><stop offset="1" stop-color="#CF3535"/></linearGradient><filter id="filter0_d_1749_463" x="0" y="0" width="158.267" height="152" filterUnits="userSpaceOnUse" color-interpolation-filters="sRGB"><feFlood flood-opacity="0" result="BackgroundImageFix"/><feColorMatrix in="SourceAlpha" values="0 0 0 0 0 0 0 0 0 0 0 0 0 0 0 0 0 0 127 0" result="hardAlpha"/><feOffset dy="30"/><feGaussianBlur stdDeviation="25.5"/><feColorMatrix values="0 0 0 0 0.980392 0 0 0 0 0.278431 0 0 0 0 0.278431 0 0 0 0.38 0"/><feBlend in2="BackgroundImageFix" result="effect1_dropShadow_1749_463"/><feBlend in="SourceGraphic" in2="effect1_dropShadow_1749_463" result="shape"/></filter></defs></svg>