<svg width="126" height="116" fill="none" xmlns="http://www.w3.org/2000/svg"><g opacity=".7" filter="url(#filter0_f_1749_565)"><path d="M38.033 59.36l-7.678-.853 10.237-29.858 5.119 6.825-7.678 23.886z" fill="#6D2626"/><path d="M68.744 32.062c-9.1-1.138-27.469-3.413-28.151-3.413l5.118 6.825 21.327 2.559 1.706-5.971z" fill="#992B2B"/><path d="M87.512 80.687l4.265 4.265 9.384-31.564h-5.118l-8.531 27.299z" fill="#892A2A"/><path d="M37.18 78.128l-6.825-2.56 14.503 12.797 3.412-1.707-11.09-8.53z" fill="#B13232"/><path d="M30.355 75.568l28.152 3.413 1.706 1.706-23.033-2.56-6.825-2.559zm17.915 11.09l-4.265 1.707 28.151 4.265-3.412-3.412-20.474-2.56z" fill="#8B2929"/><path d="M86.658 44.858v-5.119l14.502 13.65h-5.118l-9.384-8.531z" fill="#702B2B"/><path d="M77.275 71.303l9.383-26.445v-5.119L75.568 70.45l1.707.853z" fill="#892A2A"/><path fill-rule="evenodd" clip-rule="evenodd" d="M66.146 75.248l18.53-54.138L33.22 15 15 68.728l51.146 6.52zm-7.49-13.219l10.23-29.887-28.407-3.374L30.42 58.43l28.236 3.6z" fill="url(#paint0_linear_1749_565)"/><path fill-rule="evenodd" clip-rule="evenodd" d="M93.02 100.308l-26.873-25.06 18.53-54.138L111 45.492l-17.98 54.816zm-1.788-16.47l-14.95-13.94 10.31-30.118 14.643 13.564-10.002 30.494z" fill="#992B2B"/><path fill-rule="evenodd" clip-rule="evenodd" d="M41.264 92.836L15 68.727l51.146 6.52 26.873 25.06-51.755-7.47zm3.547-4.32L30.788 75.641l27.308 3.482 14.348 13.38-27.633-3.989z" fill="url(#paint1_linear_1749_565)"/></g><defs><linearGradient id="paint0_linear_1749_565" x1="49.838" y1="15" x2="49.838" y2="75.248" gradientUnits="userSpaceOnUse"><stop stop-color="#FB4747"/><stop offset="1" stop-color="#CF3535"/></linearGradient><linearGradient id="paint1_linear_1749_565" x1="13.807" y1="80.311" x2="94.292" y2="88.759" gradientUnits="userSpaceOnUse"><stop stop-color="#FA4747"/><stop offset="1" stop-color="#CF3535"/></linearGradient><filter id="filter0_f_1749_565" x="0" y="0" width="126" height="115.308" filterUnits="userSpaceOnUse" color-interpolation-filters="sRGB"><feFlood flood-opacity="0" result="BackgroundImageFix"/><feBlend in="SourceGraphic" in2="BackgroundImageFix" result="shape"/><feGaussianBlur stdDeviation="7.5" result="effect1_foregroundBlur_1749_565"/></filter></defs></svg>