<svg width="53" height="52" viewBox="0 0 53 52" fill="none" xmlns="http://www.w3.org/2000/svg">
<path d="M51.9182 23.6564L48.2193 21.5209C47.8566 21.3115 47.3929 21.4357 47.1836 21.7984C46.9742 22.161 47.0984 22.6246 47.4611 22.834L51.16 24.9696C51.5577 25.248 51.4759 25.7345 51.0084 25.8672L49.8417 26.0903C46.832 26.6655 44.0424 28.0587 41.7745 30.1193L40.6428 31.1477C40.3319 31.4655 39.8508 31.5736 39.4522 31.337L20.0011 20.1067C19.6385 19.8974 19.1747 20.0215 18.9654 20.3842C18.756 20.7468 18.8803 21.2105 19.2429 21.4199L38.6941 32.65C38.9545 32.8004 39.233 32.8977 39.5162 32.9461L36.6006 37.996C35.8342 39.3235 34.1307 39.7801 32.8032 39.0135L25.2062 34.6274C25.2058 34.6272 25.2054 34.6269 25.205 34.6267L6.88508 24.0496C5.55764 23.2831 5.1012 21.5797 5.86761 20.2522L8.90928 14.9839C9.17243 15.4419 9.55196 15.8248 10.0215 16.0958L16.2556 19.6951C16.6181 19.9042 17.0818 19.7802 17.2912 19.4176C17.5006 19.055 17.3764 18.5913 17.0137 18.3819L10.7796 14.7827C10.4281 14.5798 10.1768 14.2521 10.0718 13.8602C9.96675 13.4684 10.0206 13.0593 10.2232 12.7081L13.5344 6.97281C14.3714 5.45291 16.4582 4.89291 17.943 5.79162L44.5523 21.1545C44.9085 21.3619 45.3773 21.2429 45.5879 20.8769C45.7973 20.5143 45.6731 20.0507 45.3104 19.8413L18.701 4.47854C17.6037 3.84495 16.3254 3.67668 15.1015 4.00464C13.8777 4.3326 12.8547 5.11751 12.2212 6.21477L4.55443 19.4941C3.36993 21.5456 4.07536 24.1782 6.12694 25.3627L14.5369 30.2183V34.33C14.5369 36.1534 15.4162 37.775 16.773 38.7937L15.1725 41.8495C14.7606 41.7019 14.3171 41.621 13.855 41.621C11.9123 41.621 10.2961 43.0424 9.98949 44.8995H6.25294C5.83599 42.5075 3.89407 40.6114 1.41127 40.3215C1.05313 40.2794 0.693129 40.3931 0.423774 40.6329C0.154522 40.8725 0 41.2166 0 41.577V50.1481C0 50.5085 0.154419 50.8526 0.423774 51.0923C0.692922 51.3323 1.05582 51.4458 1.41117 51.4036C4.03443 51.0974 6.05449 48.9985 6.30937 46.4157H10.0363C10.4355 48.1559 11.9955 49.4582 13.8549 49.4582C14.1591 49.4582 14.4621 49.4232 14.7555 49.3539C15.163 49.2579 15.4155 48.8495 15.3194 48.4421C15.2233 48.0344 14.8149 47.7818 14.4076 47.8781C14.2281 47.9205 14.0421 47.9419 13.8549 47.9419C12.5303 47.9419 11.4525 46.8642 11.4525 45.5395C11.4525 44.2149 12.5303 43.1371 13.8549 43.1371C15.1796 43.1371 16.2572 44.2149 16.2572 45.5395C16.2572 45.744 16.2317 45.9467 16.1812 46.1419C16.0766 46.5474 16.3205 46.9607 16.7258 47.0654C17.1313 47.1699 17.5448 46.9263 17.6495 46.5208C17.7317 46.2019 17.7735 45.8717 17.7735 45.5396C17.7735 44.3857 17.2719 43.3471 16.4756 42.6292L18.0987 39.5301C18.7247 39.7738 19.4045 39.909 20.1157 39.909C22.4117 39.909 24.4472 38.4923 25.2868 36.4248L32.0449 40.3266C33.0408 40.9024 34.2041 41.0516 35.305 40.7559C36.1364 40.533 36.8654 40.0774 37.4199 39.4442L40.6068 41.2841C41.0039 41.5135 41.4382 41.6223 41.8668 41.6223C42.7372 41.6223 43.5846 41.1728 44.0539 40.3698C46.3103 41.5673 49.3187 40.6685 50.5521 38.4355C51.8663 36.1592 51.1539 33.2602 48.9789 31.8403C49.3661 31.23 49.4952 30.4965 49.3038 29.7963C49.129 29.1439 48.7105 28.5986 48.1257 28.261L47.9593 28.165C48.6636 27.918 49.3872 27.7207 50.1261 27.5794C51.2917 27.4283 52.7095 27.1128 52.891 25.7236C53.032 24.8904 52.65 24.0789 51.9182 23.6564ZM1.51628 49.855V41.8703C3.41892 42.2278 4.82089 43.8965 4.82089 45.8625C4.82089 47.8287 3.41903 49.4975 1.51628 49.855ZM19.419 33.0369L21.2741 34.1079C21.2067 34.6875 20.7133 35.1391 20.1159 35.1391C19.4726 35.1391 18.9492 34.6157 18.9492 33.9725C18.9492 33.6007 19.1279 33.2546 19.419 33.0369ZM20.1159 38.3927C17.8757 38.3927 16.0532 36.5701 16.0532 34.33V31.0937L18.0599 32.2523C17.6637 32.7268 17.4329 33.3328 17.4329 33.9726C17.4329 35.452 18.6364 36.6555 20.1159 36.6555C21.2717 36.6555 22.2591 35.9209 22.6358 34.8941L23.9572 35.657C23.4 37.2697 21.8611 38.3927 20.1159 38.3927ZM49.2391 37.6774C48.7828 38.4678 48.0459 39.0332 47.1645 39.2694C46.3715 39.4818 45.547 39.4041 44.8141 39.0545L48.2191 33.1569C49.6705 34.1561 50.1351 36.1255 49.2391 37.6774ZM47.3678 29.5741C47.8447 29.8365 48.0201 30.4913 47.7382 30.957L42.7479 39.6004C42.4687 40.0838 41.8483 40.25 41.3651 39.9709L38.2497 38.1723L41.6523 32.2788C43.0087 30.9957 44.5226 29.7047 46.2074 28.9041L47.3678 29.5741Z" fill="#CF3535"/>
<path d="M34.2516 23.4752C34.8447 23.4752 35.3255 22.9944 35.3255 22.4013C35.3255 21.8082 34.8447 21.3274 34.2516 21.3274C33.6585 21.3274 33.1777 21.8082 33.1777 22.4013C33.1777 22.9944 33.6585 23.4752 34.2516 23.4752Z" fill="#CF3535"/>
<path d="M37.6882 25.3706C38.2813 25.3706 38.7621 24.8898 38.7621 24.2967C38.7621 23.7036 38.2813 23.2228 37.6882 23.2228C37.0951 23.2228 36.6143 23.7036 36.6143 24.2967C36.6143 24.8898 37.0951 25.3706 37.6882 25.3706Z" fill="#CF3535"/>
<path d="M28.2272 6.88481C28.8203 6.88481 29.3011 6.40398 29.3011 5.8109C29.3011 5.21783 28.8203 4.737 28.2272 4.737C27.6342 4.737 27.1533 5.21783 27.1533 5.8109C27.1533 6.40408 27.6342 6.88481 28.2272 6.88481Z" fill="#CF3535"/>
<path d="M34.4276 11.5225C34.7585 11.7735 35.2357 11.7112 35.4897 11.3755C37.9576 8.11513 37.9576 3.56101 35.4897 0.300533C35.237 -0.033215 34.7615 -0.0989516 34.4276 0.153556C34.0938 0.406269 34.0279 0.881826 34.2807 1.21568C36.3407 3.93734 36.3407 7.7388 34.2807 10.4604C34.0279 10.7942 34.0937 11.2698 34.4276 11.5225Z" fill="#CF3535"/>
<path d="M30.8514 9.29982C31.1584 9.58333 31.6382 9.56525 31.9227 9.25693C33.6924 7.33971 33.6924 4.33609 31.9227 2.41897C31.6388 2.11148 31.1591 2.09226 30.8514 2.37608C30.5437 2.66011 30.5246 3.1398 30.8085 3.4474C32.0459 4.78787 32.0459 6.88803 30.8085 8.2285C30.5245 8.5361 30.5437 9.01579 30.8514 9.29982Z" fill="#CF3535"/>
</svg>
