<svg width="47" height="43" fill="none" xmlns="http://www.w3.org/2000/svg"><path d="M31.797 12.907c2.696 0 4.888 2.648 4.888 5.903 0 3.255-2.192 5.903-4.888 5.903-2.695 0-4.887-2.648-4.887-5.903 0-3.255 2.192-5.903 4.887-5.903zm0 10.441c1.943 0 3.524-2.036 3.524-4.538 0-2.502-1.58-4.538-3.524-4.538-1.942 0-3.523 2.036-3.523 4.538 0 2.502 1.58 4.538 3.523 4.538zM13.903 36.014a2.299 2.299 0 011.019-1.448 2.298 2.298 0 011.744-.304 2.316 2.316 0 011.753 2.763 2.318 2.318 0 01-2.763 1.752 2.316 2.316 0 01-1.753-2.763zm2.05 1.431a.95.95 0 10-.718-1.133.95.95 0 00.719 1.133z" fill="#CF3535"/><path d="M4.31 31.581h5.96a.683.683 0 010 1.365H4.31a2.95 2.95 0 00-2.945 2.947 2.95 2.95 0 002.946 2.946h7.705a4.507 4.507 0 01-.358-3l1.607-7.182c-2.04-.658-3.838-2.085-5.065-4.089H6.255a5.122 5.122 0 01-5.116-5.116v-7.748C1.139 5.25 6.389 0 12.843 0h22.043c2.188 0 4.323.608 6.173 1.758.32.2.427.626.219.94-.314.473-.828.29-.94.22a10.31 10.31 0 00-5.452-1.553c-4.604 0-8.514 3.025-9.849 7.191h6.76c5.095 0 9.24 4.6 9.24 10.254 0 1.571-.321 3.06-.893 4.393h.99a4.096 4.096 0 004.09-4.091v-7.408c0-2.695-1.03-5.246-2.902-7.183a.683.683 0 01.982-.949 11.646 11.646 0 013.286 8.132v7.408a5.462 5.462 0 01-5.456 5.456h-1.696c-1.664 2.712-4.468 4.496-7.64 4.496h-4.75l-2.177 9.73a4.514 4.514 0 01-2 2.845c-.737.468-1.77.875-3.426.597l-4.345-.972a4.523 4.523 0 01-2.053-1.06H4.31A4.316 4.316 0 010 35.892a4.316 4.316 0 014.31-4.31zM29.405 1.365H12.843c-5.701 0-10.34 4.638-10.34 10.339v7.748a3.756 3.756 0 003.752 3.751H19.43a3.756 3.756 0 003.752-3.751v-7.748c0-4.474 2.524-8.37 6.222-10.34zM24.701 9.92c-.24.772-.154 2.53-.154 2.53a9.568 9.568 0 012.637-2.53h-2.483zm14.97 8.889c0-4.901-3.532-8.889-7.873-8.889-3.16 0-6.004 2.121-7.245 5.405l-.006-.002v4.128c0 .629-.115 1.23-.323 1.788.957 3.813 4.044 6.459 7.574 6.459 4.341 0 7.874-3.988 7.874-8.89zm-16.383 3.997a5.105 5.105 0 01-3.858 1.761H9.85c1.489 1.975 3.674 3.13 5.996 3.13h11.343c-1.723-1.098-3.107-2.801-3.9-4.89zm-3.545 18.098a3.182 3.182 0 003.796-2.408l2.11-9.433h-3.164l-1.96 8.759a4.51 4.51 0 01-1.96 2.818l1.178.264zm-4.345-.973c2.488.634 3.61-1.579 3.795-2.407l1.893-8.461h-5.24a8.38 8.38 0 01-1.252-.095l-1.604 7.167c-.185.829-.05 3.17 2.408 3.796z" fill="#CF3535"/><path d="M33.27 21.093c.436-.61.686-1.441.686-2.283 0-.97-.33-1.916-.885-2.53a.682.682 0 10-1.013.915c.258.285.533.86.533 1.615 0 .563-.157 1.105-.431 1.488-.22.306-.161.75.157.952.465.294.82.029.953-.157z" fill="#CF3535"/></svg>