<svg width="53" height="52" fill="none" xmlns="http://www.w3.org/2000/svg"><path d="M51.918 23.656l-3.699-2.135a.758.758 0 10-.758 1.313l3.699 2.136c.398.278.316.765-.152.897l-1.166.223c-3.01.576-5.8 1.969-8.067 4.03l-1.132 1.028c-.311.317-.792.426-1.19.189L20 20.107a.758.758 0 10-.758 1.313l19.451 11.23c.26.15.539.248.822.296l-2.915 5.05a2.783 2.783 0 01-3.798 1.017l-7.597-4.386h-.001L6.885 24.05a2.783 2.783 0 01-1.017-3.798l3.041-5.268c.263.458.643.84 1.112 1.112l6.235 3.6a.758.758 0 00.758-1.314l-6.234-3.6a1.51 1.51 0 01-.708-.922c-.105-.392-.051-.8.151-1.152l3.311-5.735c.837-1.52 2.924-2.08 4.409-1.181l26.61 15.362a.759.759 0 00.757-1.313L18.701 4.48a4.712 4.712 0 00-3.6-.474 4.713 4.713 0 00-2.88 2.21l-7.667 13.28a4.3 4.3 0 001.573 5.868l8.41 4.855v4.112c0 1.823.88 3.445 2.236 4.464l-1.6 3.056a3.898 3.898 0 00-1.318-.229A3.925 3.925 0 009.989 44.9H6.253a5.575 5.575 0 00-4.842-4.578A1.265 1.265 0 000 41.577v8.571a1.265 1.265 0 001.411 1.256 5.575 5.575 0 004.898-4.988h3.727a3.925 3.925 0 004.72 2.938.758.758 0 00-.348-1.476 2.405 2.405 0 01-2.955-2.339 2.405 2.405 0 012.402-2.402 2.405 2.405 0 012.326 3.005.758.758 0 001.468.379 3.91 3.91 0 00-1.174-3.892L18.1 39.53a5.547 5.547 0 002.017.379 5.6 5.6 0 005.17-3.484l6.759 3.902a4.27 4.27 0 003.26.429 4.266 4.266 0 002.115-1.312l3.187 1.84a2.53 2.53 0 003.447-.914c2.256 1.197 5.265.299 6.498-1.934a4.939 4.939 0 00-1.573-6.596 2.55 2.55 0 00.325-2.044 2.512 2.512 0 00-1.178-1.535l-.167-.096a15.14 15.14 0 012.167-.586c1.166-.15 2.584-.466 2.765-1.855a1.985 1.985 0 00-.973-2.068zM1.516 49.855V41.87a4.06 4.06 0 013.305 3.992 4.06 4.06 0 01-3.305 3.993zM19.42 33.037l1.855 1.07a1.168 1.168 0 01-1.158 1.032 1.168 1.168 0 01-.697-2.102zm.697 5.356a4.067 4.067 0 01-4.063-4.063v-3.236l2.007 1.158a2.686 2.686 0 00-.627 1.72 2.686 2.686 0 002.683 2.684 2.688 2.688 0 002.52-1.762l1.321.763a4.077 4.077 0 01-3.841 2.736zm29.123-.716a3.395 3.395 0 01-2.075 1.592 3.392 3.392 0 01-2.35-.215l3.405-5.897a3.42 3.42 0 011.02 4.52zm-1.871-8.103c.477.262.652.917.37 1.383l-4.99 8.643c-.28.484-.9.65-1.383.37l-3.115-1.798 3.402-5.893c1.357-1.283 2.87-2.574 4.555-3.375l1.16.67z" fill="#CF3535"/><path d="M34.252 23.475a1.074 1.074 0 100-2.148 1.074 1.074 0 000 2.148zm3.436 1.895a1.074 1.074 0 100-2.147 1.074 1.074 0 000 2.148zM28.227 6.885a1.074 1.074 0 100-2.148 1.074 1.074 0 000 2.148zm6.201 4.638a.759.759 0 001.062-.147A9.209 9.209 0 0035.49.3a.758.758 0 00-1.21.915 7.687 7.687 0 010 9.244.758.758 0 00.148 1.063zM30.851 9.3a.758.758 0 001.072-.043c1.77-1.917 1.77-4.92 0-6.838a.758.758 0 00-1.114 1.028 3.543 3.543 0 010 4.782.758.758 0 00.042 1.07z" fill="#CF3535"/></svg>