<svg width="0" height="0" class="hidden">
  <symbol fill="none" xmlns="http://www.w3.org/2000/svg" viewBox="0 0 45 49" id="advantages-1">
    <g clip-path="url(#clip0_1749_669)" filter="url(#filter0_d_1749_669)">
      <path d="M29.3107 17.1214C29.9939 16.4452 30.4179 15.5078 30.4179 14.4729C30.4179 12.4175 28.7453 10.7453 26.6894 10.7453C25.1052 10.7453 23.7011 11.7496 23.1769 13.2212C22.9571 13.1806 22.7311 13.1584 22.4997 13.1584C22.2684 13.1584 22.0424 13.1806 21.8226 13.2212C21.2983 11.7495 19.8941 10.7453 18.31 10.7453C16.2542 10.7453 14.5816 12.4175 14.5816 14.4729C14.5816 15.5078 15.0056 16.4452 15.6888 17.1214C14.0501 18.0549 12.9951 19.8225 12.9951 21.745C12.9951 22.0767 13.264 22.3456 13.5957 22.3456C13.9274 22.3456 14.1963 22.0767 14.1963 21.745C14.1963 20.0471 15.2593 18.5052 16.8438 17.9006C17.2941 18.0939 17.7897 18.2014 18.3101 18.2014C18.5393 18.2014 18.7662 18.1793 18.9884 18.1383C19.1782 18.6693 19.4849 19.145 19.8778 19.5342C18.2242 20.4704 17.185 22.225 17.185 24.1583C17.185 24.4901 17.4539 24.7589 17.7856 24.7589C18.1173 24.7589 18.3862 24.4901 18.3862 24.1583C18.3862 22.5012 19.3724 21.0133 20.8987 20.3677C20.9395 20.3504 20.9773 20.3289 21.012 20.3043C21.4681 20.5036 21.971 20.6149 22.4997 20.6149C23.0202 20.6149 23.5159 20.5074 23.9663 20.3139C25.55 20.9186 26.6133 22.462 26.6133 24.1583C26.6133 24.4901 26.8822 24.7589 27.2139 24.7589C27.5455 24.7589 27.8145 24.4901 27.8145 24.1583C27.8145 22.2376 26.7593 20.4685 25.121 19.5347C25.5142 19.1455 25.8211 18.6696 26.0111 18.1383C26.2333 18.1793 26.4602 18.2014 26.6893 18.2014C27.2097 18.2014 27.7053 18.0939 28.1556 17.9006C29.74 18.5052 30.8031 20.0469 30.8031 21.745C30.8031 22.0767 31.072 22.3456 31.4037 22.3456C31.7353 22.3456 32.0042 22.0767 32.0042 21.745C32.0044 19.8224 30.9494 18.0549 29.3107 17.1214ZM18.7716 16.8867C18.7716 16.9103 18.7729 16.9335 18.7733 16.957C18.6221 16.9852 18.4671 17.0002 18.3101 17.0002C16.9166 17.0002 15.7828 15.8666 15.7828 14.4729C15.7828 13.0799 16.9166 11.9465 18.3101 11.9465C19.3852 11.9465 20.3376 12.6287 20.692 13.6276C19.5477 14.2648 18.7716 15.4866 18.7716 16.8867ZM19.9728 16.8867C19.9728 15.4933 21.1064 14.3596 22.4998 14.3596C23.8932 14.3596 25.0268 15.4932 25.0268 16.8867C25.0268 18.2801 23.8932 19.4137 22.4998 19.4137C21.1064 19.4137 19.9728 18.28 19.9728 16.8867ZM26.2262 16.957C26.2266 16.9335 26.2279 16.9102 26.2279 16.8867C26.2279 15.4866 25.4518 14.2649 24.3075 13.6276C24.6619 12.6287 25.6143 11.9465 26.6894 11.9465C28.083 11.9465 29.2167 13.0799 29.2167 14.473C29.2167 15.8666 28.083 17.0003 26.6894 17.0003C26.5324 17.0002 26.3774 16.9852 26.2262 16.957Z" fill="white"></path>
      <path d="M38.0541 25.9564V15.0396C39.5512 14.757 40.6873 13.4402 40.6873 11.8623C40.6873 10.0789 39.2366 8.62815 37.4532 8.62815C36.4731 8.62815 35.5941 9.06698 35.0006 9.75774L25.5523 4.30238C25.6698 3.96773 25.7345 3.60834 25.7345 3.23397C25.7345 1.45078 24.2837 0 22.5004 0C20.7172 0 19.2663 1.45078 19.2663 3.23405C19.2663 3.60842 19.3309 3.96773 19.4485 4.30246L10.0003 9.75774C9.40672 9.06698 8.52769 8.62815 7.54761 8.62815C5.76426 8.62815 4.31348 10.0789 4.31348 11.8623C4.31348 13.4402 5.44963 14.757 6.9467 15.0396V25.9564C5.44963 26.2389 4.31348 27.5558 4.31348 29.1337C4.31348 30.9171 5.76426 32.3678 7.54761 32.3678C8.52617 32.3678 9.40391 31.9304 9.99745 31.2415L19.4484 36.6979C19.3309 37.0324 19.2663 37.3917 19.2663 37.7659C19.2663 39.5493 20.7171 41.0001 22.5004 41.0001C24.2838 41.0001 25.7346 39.5493 25.7346 37.7659C25.7346 37.3917 25.67 37.0324 25.5525 36.6979L35.0034 31.2415C35.597 31.9305 36.4747 32.3678 37.4533 32.3678C39.2366 32.3678 40.6874 30.9171 40.6874 29.1337C40.6873 27.5557 39.5511 26.2389 38.0541 25.9564ZM37.4532 9.82933C38.5741 9.82933 39.4862 10.7413 39.4862 11.8623C39.4862 12.9832 38.5741 13.8952 37.4532 13.8952C36.3323 13.8952 35.4202 12.9832 35.4202 11.8623C35.4202 10.7413 36.3323 9.82933 37.4532 9.82933ZM22.5004 1.20118C23.6214 1.20118 24.5334 2.11311 24.5334 3.23405C24.5334 4.35395 23.6231 5.26525 22.5036 5.26693C22.5025 5.26693 22.5015 5.26677 22.5004 5.26677C22.4994 5.26677 22.4984 5.26693 22.4973 5.26693C21.3778 5.26525 20.4675 4.35395 20.4675 3.23405C20.4675 2.11311 21.3794 1.20118 22.5004 1.20118ZM5.51466 11.8623C5.51466 10.7413 6.42667 9.82933 7.54761 9.82933C8.66855 9.82933 9.58057 10.7413 9.58057 11.8623C9.58057 12.9832 8.66855 13.8952 7.54761 13.8952C6.42667 13.8952 5.51466 12.9832 5.51466 11.8623ZM7.54761 31.1666C6.42667 31.1666 5.51466 30.2546 5.51466 29.1336C5.51466 28.0127 6.42667 27.1007 7.54761 27.1007C8.66855 27.1007 9.58057 28.0127 9.58057 29.1336C9.58057 30.2546 8.66855 31.1666 7.54761 31.1666ZM22.5004 39.7988C21.3795 39.7988 20.4675 38.8868 20.4675 37.7659C20.4675 36.6449 21.3795 35.7329 22.5004 35.7329C23.6214 35.7329 24.5334 36.6449 24.5334 37.7659C24.5334 38.8868 23.6214 39.7988 22.5004 39.7988ZM24.9504 35.6584C24.4814 35.1138 23.8348 34.727 23.101 34.5886V32.2748C23.101 31.943 22.8321 31.6742 22.5004 31.6742C22.1687 31.6742 21.8998 31.943 21.8998 32.2748V34.5886C21.166 34.727 20.5194 35.1138 20.0503 35.6584L10.5995 30.2021C10.717 29.8674 10.7817 29.5081 10.7817 29.1337C10.7817 28.759 10.7169 28.3993 10.5992 28.0643L12.6035 26.9068C12.8908 26.7409 12.9891 26.3736 12.8233 26.0863C12.6574 25.7991 12.2901 25.7008 12.0028 25.8666L9.99665 27.0252C9.52763 26.4811 8.88124 26.0946 8.1478 25.9564V15.0396C8.88148 14.9013 9.52803 14.5146 9.99705 13.9703L12.0059 15.1304C12.1005 15.1851 12.2038 15.211 12.3057 15.211C12.5132 15.211 12.7151 15.1033 12.8263 14.9107C12.9922 14.6235 12.8938 14.2561 12.6066 14.0902L10.5992 12.931C10.7168 12.5962 10.7815 12.2367 10.7815 11.8623C10.7815 11.4894 10.7174 11.1315 10.6007 10.798L20.0503 5.3418C20.5193 5.88618 21.1659 6.27296 21.8995 6.41133V8.72536C21.8995 9.05713 22.1684 9.32595 22.5001 9.32595C22.8318 9.32595 23.1007 9.05713 23.1007 8.72536V6.41133C23.8344 6.27296 24.481 5.88618 24.95 5.3418L34.3996 10.798C34.283 11.1315 34.2187 11.4894 34.2187 11.8623C34.2187 12.2367 34.2834 12.5962 34.401 12.931L32.3937 14.0902C32.1064 14.2561 32.008 14.6235 32.1739 14.9107C32.2852 15.1033 32.487 15.211 32.6945 15.211C32.7964 15.211 32.8998 15.1851 32.9943 15.1304L35.0032 13.9703C35.4723 14.5146 36.1189 14.9013 36.8525 15.0396V25.9564C36.119 26.0946 35.4727 26.4811 35.0036 27.0252L32.9975 25.8666C32.7102 25.701 32.3429 25.7991 32.177 26.0863C32.0111 26.3736 32.1095 26.7409 32.3967 26.9068L34.4011 28.0643C34.2834 28.3993 34.2186 28.759 34.2186 29.1337C34.2186 29.5081 34.2832 29.8675 34.4008 30.2021L24.9504 35.6584ZM37.4532 31.1666C36.3323 31.1666 35.4202 30.2546 35.4202 29.1336C35.4202 28.0127 36.3323 27.1007 37.4532 27.1007C38.5741 27.1007 39.4862 28.0127 39.4862 29.1336C39.4862 30.2546 38.5741 31.1666 37.4532 31.1666Z" fill="white"></path>
      <path d="M27.5305 26.7054H25.7432C25.4115 26.7054 25.1426 26.9742 25.1426 27.306C25.1426 27.6378 25.4115 27.9066 25.7432 27.9066H27.5305C27.8622 27.9066 28.1311 27.6378 28.1311 27.306C28.1311 26.9742 27.8622 26.7054 27.5305 26.7054Z" fill="white"></path>
      <path d="M27.5305 29.0577H17.4697C17.138 29.0577 16.8691 29.3265 16.8691 29.6583C16.8691 29.9901 17.138 30.2589 17.4697 30.2589H27.5306C27.8623 30.2589 28.1312 29.9901 28.1312 29.6583C28.1312 29.3265 27.8622 29.0577 27.5305 29.0577Z" fill="white"></path>
      <path d="M17.4697 27.9066H17.4781C17.8097 27.9066 18.0786 27.6378 18.0786 27.306C18.0786 26.9742 17.8097 26.7054 17.4781 26.7054H17.4697C17.138 26.7054 16.8691 26.9742 16.8691 27.306C16.8691 27.6378 17.138 27.9066 17.4697 27.9066Z" fill="white"></path>
      <path d="M19.5591 27.9066C19.8908 27.9066 20.1597 27.6378 20.1597 27.306C20.1597 26.9742 19.8908 26.7054 19.5591 26.7054H19.5508C19.2191 26.7054 18.9502 26.9742 18.9502 27.306C18.9502 27.6378 19.2191 27.9066 19.5508 27.9066H19.5591Z" fill="white"></path>
      <path d="M21.6392 27.9066C21.9709 27.9066 22.2398 27.6378 22.2398 27.306C22.2398 26.9742 21.9709 26.7054 21.6392 26.7054H21.6309C21.2992 26.7054 21.0303 26.9742 21.0303 27.306C21.0303 27.6378 21.2992 27.9066 21.6309 27.9066H21.6392Z" fill="white"></path>
    </g>
    <defs>
      <filter id="filter0_d_1749_669" x="-2" y="0" width="49" height="49" filterUnits="userSpaceOnUse" color-interpolation-filters="sRGB">
        <feFlood flood-opacity="0" result="BackgroundImageFix"></feFlood>
        <feColorMatrix in="SourceAlpha" type="matrix" values="0 0 0 0 0 0 0 0 0 0 0 0 0 0 0 0 0 0 127 0" result="hardAlpha"></feColorMatrix>
        <feOffset dy="4"></feOffset>
        <feGaussianBlur stdDeviation="2"></feGaussianBlur>
        <feComposite in2="hardAlpha" operator="out"></feComposite>
        <feColorMatrix type="matrix" values="0 0 0 0 0 0 0 0 0 0 0 0 0 0 0 0 0 0 0.25 0"></feColorMatrix>
        <feBlend mode="normal" in2="BackgroundImageFix" result="effect1_dropShadow_1749_669"></feBlend>
        <feBlend mode="normal" in="SourceGraphic" in2="effect1_dropShadow_1749_669" result="shape"></feBlend>
      </filter>
      <clipPath id="clip0_1749_669">
        <rect width="41" height="41" fill="white" transform="translate(2)"></rect>
      </clipPath>
    </defs>
  </symbol>
  <symbol fill="none" xmlns="http://www.w3.org/2000/svg" viewBox="0 0 35 35" id="advantages-2">
    <path d="M32.0833 0.583332H7.58333C5.97319 0.585326 4.66866 1.88985 4.66667 3.5V26.25H0.583333C0.26119 26.25 0 26.5112 0 26.8333V28C0.00199382 29.6101 1.30652 30.9147 2.91667 30.9167H21.014V33.8333C21.014 34.0544 21.1387 34.2563 21.3364 34.3551C21.5341 34.454 21.7705 34.4326 21.9473 34.2999L23.9306 32.8125L25.9139 34.2999C26.0147 34.3759 26.1378 34.417 26.264 34.4167C26.3545 34.4175 26.444 34.3976 26.5254 34.3583C26.724 34.2589 26.8487 34.0552 26.8473 33.8333V30.9167H27.4167C29.0268 30.9147 30.3313 29.6101 30.3333 28V5.25H34.4167C34.7388 5.25 35 4.98881 35 4.66667V3.5C34.998 1.88985 33.6935 0.585326 32.0833 0.583332ZM21.014 29.75H2.91667C1.95024 29.75 1.16667 28.9664 1.16667 28V27.4167H21.014V29.75ZM25.6806 32.6667L24.2807 31.6168C24.0733 31.461 23.7882 31.461 23.5806 31.6168L22.1806 32.6667V26.1514C22.2934 26.1603 22.4068 26.1583 22.519 26.1449C22.8557 26.5793 23.3743 26.8333 23.9238 26.8333C24.4732 26.8333 24.9916 26.5793 25.3283 26.1449C25.4445 26.1589 25.5618 26.1611 25.6783 26.1514L25.6806 32.6667ZM26.4309 23.3217C26.2753 23.3769 26.1503 23.4957 26.0874 23.6481C26.0241 23.8007 26.0284 23.9728 26.0996 24.122C26.2098 24.3533 26.1631 24.629 25.9825 24.8108C25.8017 24.9925 25.5262 25.0409 25.2944 24.9318C25.1454 24.8606 24.9731 24.856 24.8204 24.919C24.6675 24.9822 24.549 25.1073 24.4934 25.2631C24.4083 25.5046 24.1798 25.6664 23.9238 25.6664C23.6674 25.6664 23.439 25.5046 23.3538 25.2631C23.2986 25.1073 23.1798 24.9822 23.0271 24.919C22.8742 24.856 22.7019 24.8606 22.5529 24.9318C22.321 25.0409 22.0456 24.9925 21.865 24.8108C21.6842 24.629 21.6375 24.3533 21.748 24.122C21.8189 23.9731 21.8234 23.8007 21.7602 23.6484C21.6973 23.4957 21.5725 23.3772 21.417 23.3217C21.1752 23.2356 21.0134 23.0066 21.0134 22.75C21.0134 22.4934 21.1752 22.2644 21.417 22.1783C21.5725 22.1228 21.697 22.0043 21.7599 21.8519C21.8232 21.6995 21.8186 21.5275 21.748 21.3785C21.6369 21.1473 21.6836 20.8713 21.8645 20.6892C22.045 20.5075 22.3208 20.4588 22.5529 20.5682C22.7019 20.6394 22.8742 20.644 23.0271 20.581C23.1798 20.5178 23.2986 20.3927 23.3538 20.2369C23.439 19.9954 23.6674 19.8336 23.9238 19.8336C24.1798 19.8336 24.4083 19.9954 24.4934 20.2369C24.549 20.3927 24.6675 20.5178 24.8204 20.581C24.9731 20.644 25.1454 20.6394 25.2944 20.5682C25.5262 20.4591 25.8017 20.5075 25.9825 20.6892C26.1631 20.871 26.2098 21.1467 26.0996 21.378C26.0284 21.5272 26.0241 21.6993 26.0874 21.8519C26.1503 22.0043 26.2753 22.1231 26.4309 22.1783C26.6721 22.2649 26.8333 22.4937 26.8333 22.75C26.8333 23.0063 26.6721 23.2351 26.4309 23.3217ZM29.705 1.82292C29.672 1.86963 29.6426 1.91919 29.6124 1.96818C29.55 2.06787 29.4942 2.17098 29.4444 2.27722C29.4182 2.33561 29.3937 2.38944 29.3709 2.44641C29.3276 2.56091 29.2911 2.67769 29.2624 2.79647C29.249 2.85087 29.2319 2.90328 29.2216 2.95854C29.1863 3.13712 29.1681 3.31828 29.1667 3.5V28C29.1667 28.9664 28.3831 29.75 27.4167 29.75C27.2221 29.7463 27.0299 29.7101 26.8473 29.6426V25.5849C27.2102 25.2032 27.3813 24.6783 27.3141 24.1559C27.7476 23.8184 28.0011 23.2994 28.0011 22.75C28.0011 22.2006 27.7476 21.6816 27.3141 21.3441C27.3831 20.7995 27.1965 20.2535 26.8088 19.8644C26.4212 19.4756 25.8757 19.2876 25.3306 19.3551C24.9939 18.9207 24.4755 18.6667 23.9261 18.6667C23.3766 18.6667 22.858 18.9207 22.5213 19.3551C21.9764 19.2879 21.4309 19.4759 21.0433 19.8647C20.6559 20.2535 20.4694 20.7995 20.538 21.3441C20.1045 21.6816 19.8507 22.2006 19.8507 22.75C19.8507 23.2994 20.1045 23.8184 20.538 24.1559C20.4691 24.6857 20.6457 25.2181 21.0174 25.602V26.25H5.83333V3.5C5.83333 2.53357 6.6169 1.75 7.58333 1.75H29.75C29.7338 1.77279 29.7215 1.79899 29.705 1.82292ZM33.8333 4.08333H30.3333V3.5C30.3333 2.53357 31.1169 1.75 32.0833 1.75C33.0498 1.75 33.8333 2.53357 33.8333 3.5V4.08333Z" fill="white"></path>
    <path d="M19.25 5.25H21.5833V6.41667H19.25V5.25Z" fill="white"></path>
    <path d="M13.417 5.25H18.0837V6.41667H13.417V5.25Z" fill="white"></path>
    <path d="M11.667 8.16667H23.3337V9.33333H11.667V8.16667Z" fill="white"></path>
    <path d="M8.75 11.6667H11.6667V12.8333H8.75V11.6667Z" fill="white"></path>
    <path d="M8.75 14.5833H15.1667V15.75H8.75V14.5833Z" fill="white"></path>
    <path d="M12.833 11.6667H26.2497V12.8333H12.833V11.6667Z" fill="white"></path>
    <path d="M16.333 14.5833H26.2497V15.75H16.333V14.5833Z" fill="white"></path>
    <path d="M8.75 17.5H20.4167V18.6667H8.75V17.5Z" fill="white"></path>
    <path d="M8.75 20.4167H18.6667V21.5833H8.75V20.4167Z" fill="white"></path>
  </symbol>
  <symbol fill="none" xmlns="http://www.w3.org/2000/svg" viewBox="0 0 38 26" id="advantages-3">
    <path d="M35.3399 11.1715L34.3558 7.23528C34.6248 7.17813 34.8267 6.93944 34.8267 6.65348V6.01883C34.8267 4.64089 33.7056 3.51989 32.3278 3.51989H27.8455V2.21082C27.8455 1.53276 27.2939 0.981163 26.6159 0.981163H3.76823C3.09017 0.981163 2.53858 1.53276 2.53858 2.21082V13C2.53858 13.3286 2.80495 13.595 3.13359 13.595C3.46216 13.595 3.7286 13.3286 3.7286 13V2.21082C3.7286 2.18892 3.74634 2.17119 3.76823 2.17119H26.6158C26.6377 2.17119 26.6554 2.18892 26.6554 2.21082V13.0001C26.6554 13.3287 26.9218 13.5952 27.2505 13.5952C27.579 13.5952 27.8455 13.3288 27.8455 13.0001V12.3256H34.8643C34.8649 12.3256 34.8653 12.3258 34.8658 12.3258C34.8664 12.3258 34.8669 12.3257 34.8675 12.3257C35.7311 12.3263 36.4645 12.8932 36.7164 13.6743H34.8663C34.5377 13.6743 34.2713 13.9407 34.2713 14.2694V15.5386C34.2713 16.5666 35.1075 17.4029 36.1356 17.4029H36.8099V20.0209H35.2541C34.7431 18.5452 33.3402 17.4822 31.693 17.4822C30.0457 17.4822 28.6428 18.5452 28.1318 20.0209H27.8453V15.5386C27.8453 15.21 27.5789 14.9436 27.2503 14.9436C26.9217 14.9436 26.6553 15.2099 26.6553 15.5386V20.0207H14.3106C13.7996 18.545 12.3968 17.4821 10.7495 17.4821C9.10219 17.4821 7.6993 18.545 7.18831 20.0207H3.76823C3.74634 20.0207 3.7286 20.003 3.7286 19.9811V18.6721H6.30689C6.63545 18.6721 6.9019 18.4057 6.9019 18.0771C6.9019 17.7484 6.63553 17.4821 6.30689 17.4821H0.595012C0.266445 17.4821 0 17.7484 0 18.0771C0 18.4057 0.266371 18.6721 0.595012 18.6721H2.53865V19.9811C2.53865 20.6591 3.09025 21.2107 3.76831 21.2107H6.98228C6.98213 21.224 6.98124 21.2371 6.98124 21.2504C6.98124 23.3282 8.67172 25.0186 10.7495 25.0186C12.8272 25.0186 14.5177 23.3282 14.5177 21.2504C14.5177 21.237 14.5168 21.224 14.5167 21.2107H27.9258C27.9256 21.224 27.9247 21.2371 27.9247 21.2504C27.9247 23.3282 29.6152 25.0186 31.693 25.0186C33.7707 25.0186 35.4612 23.3282 35.4612 21.2504C35.4612 21.237 35.4603 21.224 35.4602 21.2107H37.4049C37.7335 21.2107 37.9999 20.9444 37.9999 20.6157V14.2692C38 12.7023 36.8439 11.4004 35.3399 11.1715ZM27.8455 4.70984H32.3278C33.0495 4.70984 33.6368 5.29706 33.6368 6.01883V6.05847H27.8455V4.70984ZM27.8455 11.1357V7.24842H33.1325L34.1043 11.1357H27.8455ZM10.7495 23.8288C9.32781 23.8288 8.17119 22.6723 8.17119 21.2505C8.17119 19.8288 9.32781 18.6722 10.7495 18.6722C12.1711 18.6722 13.3278 19.8288 13.3278 21.2505C13.3278 22.6723 12.1711 23.8288 10.7495 23.8288ZM31.6931 23.8288C30.2715 23.8288 29.1148 22.6723 29.1148 21.2505C29.1148 19.8288 30.2715 18.6722 31.6931 18.6722C33.1148 18.6722 34.2714 19.8288 34.2714 21.2505C34.2714 22.6723 33.1148 23.8288 31.6931 23.8288ZM36.8101 16.2129H36.1357C35.7639 16.2129 35.4613 15.9104 35.4613 15.5386V14.8642H36.81V16.2129H36.8101Z" fill="white"></path>
  </symbol>
  <symbol fill="none" xmlns="http://www.w3.org/2000/svg" viewBox="0 0 43 43" id="advantages-4">
    <g clip-path="url(#clip0_1749_690)">
      <path d="M33.1588 21.5029V20.238C33.1588 19.8901 32.8769 19.6081 32.5289 19.6081C32.181 19.6081 31.899 19.8901 31.899 20.238V28.7013C31.4556 28.7536 30.9953 28.8035 30.5156 28.8507C30.1932 28.8824 29.9474 29.1536 29.9474 29.4776L29.9477 33.7191C29.9477 33.8969 30.0228 34.0664 30.1545 34.1858C30.2709 34.2913 30.4219 34.349 30.5775 34.349C30.598 34.349 30.6186 34.348 30.6392 34.346C31.0672 34.3039 31.4873 34.2589 31.8989 34.2112V37.6681H11.101V34.2126C14.0597 34.556 17.3937 34.7482 20.8701 34.7689V36.0922C20.8701 36.3291 21.0031 36.546 21.2142 36.6535C21.3044 36.6995 21.4023 36.7221 21.4999 36.7221C21.6307 36.7221 21.7607 36.6814 21.8705 36.6016L27.4698 32.5293C27.6327 32.4108 27.7292 32.2214 27.7292 32.02C27.7292 31.8185 27.6328 31.6291 27.4698 31.5106L21.8705 27.4384C21.6789 27.299 21.4254 27.279 21.2142 27.3865C21.0031 27.494 20.8701 27.7109 20.8701 27.9478V29.2673C17.3827 29.2463 14.0454 29.0514 11.101 28.7029V20.2369C11.101 19.889 10.819 19.607 10.4711 19.607C10.1231 19.607 9.84121 19.889 9.84121 20.2369V21.5029C5.22475 22.1269 0 23.3442 0 25.6571V29.8989C0 31.4276 2.16445 32.6107 6.61713 33.5156C7.61486 33.7185 8.69507 33.8982 9.84121 34.054V40.6733C9.84121 41.9561 10.885 42.9999 12.1678 42.9999H30.8322C32.115 42.9999 33.1588 41.9561 33.1588 40.6733V34.0529C35.5933 33.7227 37.6801 33.2909 39.2814 32.7825C41.7837 31.988 43 31.0448 43 29.8989V25.6571C43 23.3442 37.7752 22.1269 33.1588 21.5029ZM6.86799 28.0393C6.44588 27.9535 6.05359 27.8663 5.68877 27.7785C6.89117 27.4887 8.29018 27.2317 9.84112 27.0168V28.5409C8.78628 28.3943 7.79081 28.2268 6.86799 28.0393ZM3.54708 24.1601C5.08265 23.6099 7.24894 23.1343 9.84112 22.7751V25.7448C7.25297 26.0959 5.05225 26.5651 3.42883 27.1112C1.77829 26.5029 1.25977 25.9427 1.25977 25.6571C1.25977 25.5877 1.32401 24.9567 3.54708 24.1601ZM1.25977 29.8989V27.4749C2.33913 28.17 4.11767 28.7658 6.61713 29.2738C10.599 30.0831 15.8846 30.5288 21.5 30.5288C21.8479 30.5288 22.1299 30.2468 22.1299 29.8989V29.1846L26.0284 32.0199L22.1299 34.8552V34.1408C22.1299 33.793 21.8479 33.5109 21.5 33.5109C15.9662 33.5109 10.7698 33.0742 6.86799 32.2812C2.43194 31.3795 1.25977 30.3286 1.25977 29.8989ZM31.899 40.6734C31.899 41.2616 31.4205 41.7402 30.8322 41.7402H12.1678C11.5795 41.7402 11.101 41.2616 11.101 40.6734V38.9278H31.8991V40.6734H31.899ZM33.1588 27.0168C34.707 27.2313 36.1039 27.4877 37.3049 27.7769C36.1811 28.05 34.8109 28.3118 33.1588 28.5404V27.0168ZM41.7402 29.8989C41.7402 30.5618 39.1462 32.1661 31.2075 33.0211L31.2073 30.0464C34.4844 29.6989 37.2669 29.1805 39.2815 28.5408C40.3216 28.2106 41.1395 27.8546 41.7402 27.469V29.8989ZM39.5582 27.1069C37.9361 26.5626 35.7401 26.095 33.1588 25.7448V22.7751C35.751 23.1343 37.9174 23.6099 39.4528 24.1601C41.676 24.9567 41.7402 25.5877 41.7402 25.6571C41.7402 25.9812 41.1196 26.5303 39.5582 27.1069Z" fill="white"></path>
      <path d="M10.4707 17.8933C10.8187 17.8933 11.1006 17.6113 11.1006 17.2634V5.332H15.4459C15.5042 5.332 15.5592 5.35476 15.6004 5.396L16.2912 6.08677C16.5704 6.36593 16.9416 6.51971 17.3364 6.51971H25.6264C26.0213 6.51971 26.3925 6.36593 26.6718 6.08677L27.3625 5.39608C27.4031 5.35535 27.4595 5.332 27.517 5.332H31.8987V17.2646C31.8987 17.6124 32.1807 17.8945 32.5286 17.8945C32.8766 17.8945 33.1585 17.6124 33.1585 17.2646V2.32662C33.1584 1.04376 32.1147 0 30.8318 0H12.1674C10.8846 0 9.84082 1.04376 9.84082 2.32662V17.2634C9.84082 17.6113 10.1228 17.8933 10.4707 17.8933ZM11.1006 2.32662C11.1006 1.73839 11.5791 1.25977 12.1674 1.25977H30.8318C31.4201 1.25977 31.8986 1.73839 31.8986 2.32662V4.07223H27.5169C27.1222 4.07223 26.751 4.22601 26.4717 4.50517L25.7809 5.19595C25.7396 5.23718 25.6847 5.25994 25.6264 5.25994H17.3363C17.2781 5.25994 17.2231 5.23718 17.1819 5.19595L16.491 4.50509C16.2118 4.22593 15.8406 4.07223 15.4458 4.07223H11.1005V2.32662H11.1006Z" fill="white"></path>
      <path d="M19.1248 3.93861C19.5933 3.93861 19.9732 3.55877 19.9732 3.0902C19.9732 2.62164 19.5933 2.24179 19.1248 2.24179C18.6562 2.24179 18.2764 2.62164 18.2764 3.0902C18.2764 3.55877 18.6562 3.93861 19.1248 3.93861Z" fill="white"></path>
      <path d="M21.3301 3.72009H24.7236C25.0715 3.72009 25.3534 3.43807 25.3534 3.09021C25.3534 2.74234 25.0715 2.46032 24.7236 2.46032H21.3301C20.9821 2.46032 20.7002 2.74234 20.7002 3.09021C20.7002 3.43807 20.9822 3.72009 21.3301 3.72009Z" fill="white"></path>
      <path d="M35.3531 9.94652C35.4544 10.0073 35.5661 10.0362 35.6763 10.0362C35.8904 10.0362 36.0991 9.92704 36.2172 9.73001L36.8802 8.62377C37.4491 11.0687 37.4764 14.3698 36.3314 17.2076C36.2097 17.5091 36.3449 17.8646 36.6369 18.0083C36.9615 18.168 37.3644 18.0141 37.4996 17.679C38.7981 14.4608 38.7019 10.9724 38.1318 8.4469L39.0773 9.01354C39.3755 9.19234 39.7624 9.09551 39.9414 8.79703C40.1202 8.49863 40.0233 8.1118 39.7249 7.93291L37.3962 6.53734C37.0979 6.35863 36.711 6.45538 36.532 6.75386L35.1365 9.08249C34.9578 9.3808 35.0548 9.76764 35.3531 9.94652Z" fill="white"></path>
      <path d="M3.61473 16.5879L5.94337 17.9836C6.23227 18.1567 6.62608 18.0694 6.80748 17.7671L8.20305 15.4384C8.38185 15.14 8.28493 14.7532 7.98654 14.5743C7.68831 14.3956 7.30139 14.4923 7.12242 14.7908L6.45953 15.8971C5.89062 13.4522 5.86325 10.1512 7.0082 7.31327C7.13838 6.99069 6.98234 6.62368 6.65984 6.4935C6.33675 6.36316 5.97007 6.51945 5.83998 6.84195C4.5415 10.0602 4.63775 13.5487 5.20792 16.0741L4.26242 15.5075C3.96419 15.3287 3.57719 15.4255 3.39839 15.724C3.21942 16.0222 3.31634 16.4091 3.61473 16.5879Z" fill="white"></path>
      <path d="M21.5004 15.3556C20.2176 15.3556 19.1738 16.3994 19.1738 17.6822C19.1738 18.9652 20.2176 20.0089 21.5004 20.0089C22.7833 20.0089 23.8271 18.9652 23.8271 17.6822C23.8271 16.3994 22.7833 15.3556 21.5004 15.3556ZM21.5004 18.7492C20.9121 18.7492 20.4336 18.2706 20.4336 17.6822C20.4336 17.094 20.9121 16.6154 21.5004 16.6154C22.0888 16.6154 22.5673 17.094 22.5673 17.6822C22.5673 18.2706 22.0888 18.7492 21.5004 18.7492Z" fill="white"></path>
      <path d="M29.1389 15.2312L27.4421 12.2923C27.2683 11.991 26.8828 11.8878 26.5817 12.0618L24.8614 13.055C24.5375 12.819 24.1914 12.6188 23.8266 12.4564V10.3863C23.8266 10.0384 23.5447 9.75638 23.1967 9.75638H19.8033C19.4553 9.75638 19.1734 10.0384 19.1734 10.3863V12.4564C18.8085 12.6189 18.4625 12.819 18.1386 13.055L16.3448 12.0193C16.0434 11.8452 15.6582 11.9486 15.4844 12.2499L13.7876 15.1887C13.6137 15.49 13.7169 15.8752 14.0182 16.0492L15.8117 17.0848C15.7906 17.2847 15.7799 17.4845 15.7799 17.6823C15.7799 17.8802 15.7906 18.08 15.8117 18.2799L14.0182 19.3155C13.7169 19.4894 13.6137 19.8746 13.7876 20.1759L15.4844 23.1148C15.6583 23.4161 16.0438 23.5193 16.3448 23.3453L18.1386 22.3096C18.4624 22.5456 18.8085 22.7457 19.1734 22.9082V24.8936C19.1734 25.2414 19.4553 25.5234 19.8033 25.5234H23.1967C23.5447 25.5234 23.8266 25.2414 23.8266 24.8936V22.9082C24.1915 22.7457 24.5375 22.5456 24.8614 22.3096L26.5817 23.3029C26.883 23.4767 27.2682 23.3736 27.4421 23.0723L29.1389 20.1335C29.3128 19.8322 29.2096 19.447 28.9083 19.2731L27.1883 18.28C27.2094 18.0801 27.2201 17.8803 27.2201 17.6824C27.2201 17.4845 27.2094 17.2847 27.1883 17.0849L28.9083 16.0917C29.2096 15.9177 29.3128 15.5325 29.1389 15.2312ZM26.189 16.207C25.9581 16.3403 25.8361 16.6045 25.8846 16.8668C25.9348 17.139 25.9602 17.4134 25.9602 17.6822C25.9602 17.9512 25.9347 18.2255 25.8846 18.4977C25.8361 18.76 25.9581 19.0243 26.189 19.1576L27.733 20.049L26.6661 21.8969L25.1215 21.0052C24.8903 20.8717 24.6 20.8984 24.397 21.072C23.9778 21.4307 23.5032 21.7053 22.9867 21.8879C22.735 21.9769 22.5668 22.2149 22.5668 22.4818V24.2637H20.4331V22.4818C20.4331 22.2149 20.2648 21.9769 20.0131 21.8879C19.4966 21.7053 19.022 21.4308 18.6028 21.072C18.3998 20.8982 18.1093 20.8717 17.8783 21.0052L16.2602 21.9393L15.1933 20.0915L16.8108 19.1577C17.0418 19.0244 17.1637 18.7601 17.1152 18.4978C17.065 18.2256 17.0396 17.9512 17.0396 17.6823C17.0396 17.4134 17.0651 17.139 17.1152 16.8669C17.1637 16.6046 17.0418 16.3403 16.8108 16.2071L15.1933 15.2732L16.2602 13.4254L17.8783 14.3596C18.1095 14.4931 18.3998 14.4663 18.6028 14.2927C19.0221 13.9339 19.4967 13.6594 20.0131 13.4769C20.2647 13.3879 20.4331 13.1499 20.4331 12.883V11.0163H22.5668V12.883C22.5668 13.1499 22.7351 13.3879 22.9867 13.4769C23.5031 13.6595 23.9777 13.9339 24.397 14.2927C24.6 14.4663 24.8904 14.4929 25.1215 14.3596L26.6661 13.4678L27.733 15.3157L26.189 16.207Z" fill="white"></path>
    </g>
    <defs>
      <clipPath id="clip0_1749_690">
        <rect width="43" height="43" fill="white"></rect>
      </clipPath>
    </defs>
  </symbol>
  <symbol fill="none" xmlns="http://www.w3.org/2000/svg" viewBox="0 0 30 30" id="advantages-5">
    <g clip-path="url(#clip0_1749_603)">
      <path d="M26.1172 21.7425C26.5916 21.1955 26.8528 20.4948 26.8528 19.7695C26.8528 18.107 25.5004 16.7544 23.838 16.7544C22.9627 16.7544 22.1319 17.1342 21.5587 17.7963C21.0844 18.3437 20.8232 19.0445 20.8232 19.7695C20.8232 21.4319 22.1756 22.7843 23.838 22.7843C24.7135 22.7842 25.5443 22.4045 26.1172 21.7425ZM21.7029 19.7695C21.7029 19.256 21.8877 18.7597 22.2235 18.3723C22.2235 18.3722 22.2236 18.3721 22.2236 18.3721C22.6297 17.903 23.2181 17.634 23.838 17.634C25.0154 17.634 25.9732 18.592 25.9732 19.7696C25.9732 20.2832 25.7884 20.7793 25.4524 21.1667C25.0464 21.6358 24.4579 21.9048 23.838 21.9048C22.6607 21.9047 21.7029 20.9469 21.7029 19.7695Z" fill="white"></path>
      <path d="M27.9009 15.7388C26.8494 14.6788 25.4556 14.0759 23.9764 14.0411C22.4183 14.0044 20.948 14.5829 19.8349 15.67C18.7216 16.7575 18.1084 18.2133 18.1084 19.7695C18.1084 20.5139 18.2503 21.2399 18.53 21.9272C18.6216 22.1521 18.8782 22.2602 19.1031 22.1687C19.3281 22.0771 19.4363 21.8205 19.3447 21.5956C19.108 21.0141 18.988 20.3997 18.988 19.7695C18.988 18.4522 19.507 17.2198 20.4495 16.2993C21.3917 15.379 22.6374 14.8888 23.9557 14.9204C25.2065 14.9498 26.3859 15.4605 27.2765 16.3583C28.167 17.256 28.6684 18.4396 28.6882 19.6908C28.7053 20.7701 28.3752 21.7967 27.7305 22.664L25.339 25.9616C24.9081 26.5559 24.611 27.221 24.456 27.9383L24.277 28.7666C24.2326 28.9717 24.0482 29.1204 23.8385 29.1204C23.6287 29.1204 23.4443 28.9716 23.4 28.7665L23.2209 27.9383C23.0659 27.2209 22.7688 26.5558 22.3378 25.9615L20.2716 23.1124C20.129 22.9158 19.854 22.872 19.6573 23.0146C19.4607 23.1572 19.4169 23.4322 19.5595 23.6289L21.6258 26.4779C21.9847 26.9728 22.2321 27.5266 22.3612 28.1241L22.5402 28.9524C22.6713 29.5595 23.2173 30 23.8383 30C24.4594 30 25.0054 29.5594 25.1365 28.9524L25.3156 28.1241C25.4446 27.5267 25.692 26.9729 26.0509 26.4779L28.4393 23.1845C29.1976 22.1644 29.5877 20.9515 29.5675 19.6768C29.5442 18.1972 28.9523 16.7987 27.9009 15.7388Z" fill="white"></path>
      <path d="M5.10793 7.20329C5.83426 7.20329 6.52367 6.88811 6.99904 6.33897C7.39262 5.88499 7.60941 5.30362 7.60941 4.70181C7.60941 4.33665 7.53189 3.98386 7.37896 3.65315C7.27701 3.43267 7.01562 3.33657 6.79525 3.43853C6.57477 3.54042 6.47873 3.80181 6.58063 4.02224C6.67959 4.2364 6.72986 4.46509 6.72986 4.70181C6.72986 5.09192 6.58941 5.46874 6.33424 5.763C6.0258 6.11931 5.57885 6.32374 5.10793 6.32374C4.21361 6.32374 3.48605 5.59618 3.48605 4.70187C3.48605 4.31181 3.6265 3.93481 3.88168 3.64038C4.19012 3.28407 4.63707 3.07964 5.10799 3.07964C5.19107 3.07964 5.27445 3.08597 5.3559 3.09839C5.59602 3.1353 5.82037 2.9703 5.85711 2.73019C5.89385 2.49013 5.72902 2.26565 5.48891 2.22898C5.36357 2.20982 5.23543 2.20009 5.10793 2.20009C4.3816 2.20009 3.69219 2.51526 3.2167 3.06458C2.82318 3.5188 2.60645 4.10028 2.60645 4.70187C2.6065 6.0811 3.72863 7.20329 5.10793 7.20329Z" fill="white"></path>
      <path d="M3.26563 10.1244C3.54582 10.5107 3.73895 10.943 3.83973 11.4094L3.98305 12.0727C4.09672 12.5988 4.56986 12.9806 5.10816 12.9806C5.64646 12.9806 6.11961 12.5988 6.23328 12.0727L6.3766 11.4095C6.47738 10.943 6.67057 10.5107 6.9507 10.1245L8.86244 7.48835C9.48119 6.65608 9.79953 5.66632 9.78307 4.62616C9.76396 3.41878 9.28103 2.27755 8.42316 1.41282C7.56512 0.547975 6.42787 0.0560221 5.22072 0.0275455C3.94947 -0.00263024 2.74971 0.469694 1.84145 1.35674C0.933008 2.24403 0.432617 3.43196 0.432617 4.70169C0.432617 5.71407 0.751191 6.6777 1.35084 7.48419L3.26563 10.1244ZM2.45604 1.98592C3.17135 1.28725 4.10967 0.905749 5.10752 0.905749C5.13816 0.905749 5.16916 0.9061 5.19992 0.906862C6.17867 0.929889 7.10158 1.32956 7.79861 2.03221C8.49564 2.73487 8.88805 3.66094 8.90352 4.64005C8.91688 5.48473 8.65854 6.28817 8.15346 6.96774L6.23867 9.60798C5.88652 10.0936 5.64365 10.6372 5.51691 11.2236L5.37359 11.8868C5.34676 12.011 5.23514 12.101 5.10822 12.101C4.98131 12.101 4.86963 12.011 4.84285 11.8869L4.69953 11.2236C4.57279 10.6373 4.32998 10.0937 3.97771 9.60803L2.05988 6.96358C1.57086 6.30575 1.31234 5.52358 1.31234 4.70169C1.31217 3.67085 1.71846 2.70633 2.45604 1.98592Z" fill="white"></path>
      <path d="M25.276 5.03695C25.1121 5.21624 25.1247 5.49445 25.304 5.65828C25.3883 5.73538 25.4945 5.77335 25.6005 5.77335C25.7197 5.77335 25.8386 5.72513 25.9253 5.63021L25.9329 5.62201C25.9435 5.61058 25.9541 5.5991 25.9637 5.58785C26.2971 5.20341 26.4806 4.71105 26.4806 4.20146C26.4806 3.03334 25.5304 2.08295 24.3624 2.08295C23.7523 2.08295 23.1716 2.34638 22.7691 2.80576C22.6091 2.98845 22.6274 3.26631 22.8101 3.42632C22.9928 3.5864 23.2707 3.56806 23.4308 3.38531C23.6662 3.1166 24.0058 2.96244 24.3624 2.96244C25.0454 2.96244 25.6011 3.51826 25.6011 4.2014C25.6011 4.49935 25.4939 4.78705 25.2987 5.01222L25.276 5.03695Z" fill="white"></path>
      <path d="M21.0488 2.36707C21.246 2.50881 21.5209 2.46369 21.6626 2.26647C22.3045 1.37274 23.3438 0.853597 24.4422 0.880492C25.2986 0.900648 26.1062 1.25045 26.7163 1.86534C27.3263 2.48028 27.6697 3.29075 27.6833 4.14744C27.6949 4.88661 27.4689 5.58979 27.0265 6.18504L26.5719 6.81194C26.4292 7.00852 26.4731 7.2835 26.6697 7.42612C26.7476 7.48272 26.8379 7.50991 26.9274 7.50991C27.0635 7.50991 27.1978 7.44686 27.2838 7.32827L27.7354 6.70553C28.2913 5.95758 28.5775 5.06819 28.5626 4.1335C28.5455 3.04846 28.1115 2.02289 27.3407 1.24588C26.5697 0.468812 25.5477 0.0267223 24.4628 0.00117542C23.0735 -0.0311683 21.7598 0.623441 20.9482 1.75336C20.9094 1.80744 20.7941 2.08295 20.9789 2.30438C20.9995 2.32723 21.0227 2.34838 21.0488 2.36707Z" fill="white"></path>
      <path d="M20.3298 26.3358C20.3304 26.2139 20.2812 26.0924 20.1831 26.005C20.0018 25.8434 19.7238 25.8593 19.5622 26.0406C19.2829 26.3538 18.9917 26.6409 18.6958 26.8956C18.0752 27.1103 17.4405 27.2737 16.7942 27.3867C17.2846 26.3314 17.7053 24.8803 18.0267 23.1233C18.0705 22.8844 17.9121 22.6553 17.6733 22.6116C17.4347 22.5679 17.2053 22.7261 17.1616 22.9651C16.7993 24.9453 16.2957 26.551 15.734 27.5253C15.3669 27.5573 14.9967 27.5742 14.6235 27.5742C14.2489 27.5742 13.8784 27.5566 13.5122 27.5241C12.8643 26.4032 12.3292 24.5284 11.965 22.2349C12.8355 22.3056 13.7245 22.3421 14.6235 22.3421C15.456 22.3421 16.2965 22.3106 17.1216 22.2484C17.3638 22.2301 17.5454 22.019 17.5271 21.7768C17.5088 21.5346 17.2973 21.3535 17.0556 21.3713C16.2524 21.4318 15.4342 21.4625 14.6235 21.4625C13.6779 21.4625 12.7448 21.4209 11.8346 21.3415C11.5973 19.5649 11.458 17.5814 11.4405 15.5277H18.5723C18.8152 15.5277 19.0121 15.3308 19.0121 15.0879C19.0121 14.8845 18.8738 14.7138 18.6862 14.6636C18.6703 12.6328 18.5404 10.6857 18.315 8.92658C19.7828 9.09867 21.1781 9.37201 22.4528 9.73512C22.7234 10.7104 22.9211 11.734 23.0366 12.7776C23.0615 13.0026 23.252 13.169 23.4732 13.169C23.4893 13.169 23.5056 13.1681 23.5221 13.1663C23.7635 13.1396 23.9375 12.9222 23.9108 12.6808C23.8114 11.7828 23.6535 10.8982 23.4426 10.0433C24.6377 10.4493 25.7012 10.9401 26.587 11.5048C26.808 12.2435 26.9613 13.0058 27.042 13.783C27.0654 14.0092 27.2564 14.1774 27.4789 14.1774C27.494 14.1774 27.5094 14.1766 27.5249 14.175C27.7664 14.1499 27.9419 13.9338 27.9169 13.6922C27.5776 10.4235 26.0444 7.40215 23.5998 5.18491C21.1379 2.9519 17.95 1.72208 14.6235 1.72208C13.2664 1.72208 11.9273 1.92493 10.6433 2.32495C10.4114 2.39719 10.282 2.64376 10.3542 2.87567C10.4264 3.10752 10.6728 3.23678 10.9049 3.16477C11.4125 3.00663 11.9294 2.88188 12.453 2.79012C11.8698 4.04661 11.3888 5.85621 11.0574 8.02705C10.5565 8.08196 10.0606 8.14717 9.57279 8.22533C9.33297 8.26377 9.16973 8.48936 9.20816 8.72918C9.2466 8.96906 9.47219 9.13201 9.71201 9.09381C10.1136 9.02942 10.5203 8.97334 10.9312 8.92524C10.8609 9.47414 10.7996 10.0426 10.7484 10.6281C10.7271 10.8701 10.9061 11.0835 11.148 11.1046C11.1611 11.1058 11.174 11.1063 11.1869 11.1063C11.4125 11.1063 11.6045 10.9338 11.6245 10.7049C11.681 10.0606 11.7505 9.43582 11.8313 8.83465C12.7468 8.7549 13.6797 8.71324 14.6235 8.71324C15.5691 8.71324 16.5021 8.75485 17.4123 8.83424C17.6497 10.6109 17.789 12.5944 17.8064 14.6481H11.4412C11.447 13.9476 11.4658 13.2478 11.4991 12.5619C11.5108 12.3193 11.3237 12.1131 11.0811 12.1014C10.8375 12.0903 10.6323 12.2768 10.6206 12.5193C10.5867 13.2193 10.5675 13.9334 10.5617 14.648H6.08869C6.09156 14.5204 6.09549 14.3895 6.10082 14.2528C6.11031 14.0101 5.92129 13.8057 5.67859 13.7961C5.43701 13.7857 5.23141 13.9756 5.22191 14.2184C5.21611 14.3669 5.21178 14.5093 5.20879 14.648H2.14533C2.18582 13.4842 2.38639 12.338 2.7441 11.2346C2.81898 11.0036 2.69236 10.7556 2.46133 10.6807C2.23023 10.6058 1.98227 10.7324 1.90738 10.9635C1.47637 12.2934 1.25781 13.6809 1.25781 15.0878C1.25781 18.6579 2.64807 22.0143 5.17252 24.5388C7.69703 27.0633 11.0534 28.4535 14.6236 28.4535C16.6403 28.4535 18.5789 28.0151 20.3857 27.1506C20.6048 27.0458 20.6974 26.7831 20.5926 26.5641C20.5381 26.4506 20.4411 26.3714 20.3298 26.3358ZM18.1891 8.02822C17.8609 5.87713 17.3835 4.05991 16.7949 2.79188C17.4437 2.90596 18.0804 3.07102 18.6998 3.28471C19.7968 4.22995 20.7672 5.56518 21.5091 7.15354C21.7454 7.65938 21.9583 8.19182 22.147 8.74436C20.91 8.42344 19.5784 8.18156 18.1891 8.02822ZM26.1278 10.2276C25.2486 9.76875 24.2512 9.3675 23.1634 9.0317C22.9227 8.24356 22.6362 7.48817 22.306 6.78135C21.8644 5.83571 21.3438 4.9725 20.7643 4.2153C21.5637 4.66741 22.3172 5.20928 23.0088 5.83664C24.3693 7.07057 25.4274 8.57086 26.1278 10.2276ZM14.6235 7.83387C13.7257 7.83387 12.8368 7.87008 11.9627 7.94045C12.3323 5.63051 12.8765 3.75387 13.5132 2.65102C13.8813 2.61862 14.2516 2.6018 14.6235 2.6018C14.996 2.6018 15.3666 2.61874 15.7345 2.65143C16.3825 3.77239 16.9177 5.6475 17.282 7.94145C16.4114 7.87078 15.5225 7.83387 14.6235 7.83387ZM12.4523 27.3849C11.7979 27.2697 11.161 27.103 10.5457 26.8898C9.05506 25.6056 7.87141 23.695 7.09873 21.4321C8.33594 21.753 9.6683 21.9945 11.0579 22.1478C11.3861 24.2993 11.8637 26.1168 12.4523 27.3849ZM10.9319 21.2494C9.46322 21.0772 8.06723 20.8036 6.79193 20.4402C6.36818 18.9094 6.12391 17.2471 6.08822 15.5278H10.5609C10.5774 17.553 10.7072 19.4947 10.9319 21.2494ZM2.14586 15.5278H5.20867C5.24072 17.1248 5.44668 18.6782 5.80562 20.133C4.61119 19.7275 3.54818 19.237 2.66248 18.6728C2.36184 17.6711 2.18377 16.6171 2.14586 15.5278ZM3.12314 19.9507C4.00158 20.4088 4.99867 20.809 6.08523 21.1443C6.64551 22.9764 7.45703 24.6188 8.47305 25.9509C6.09432 24.5989 4.20033 22.4887 3.12314 19.9507Z" fill="white"></path>
    </g>
    <defs>
      <clipPath id="clip0_1749_603">
        <rect width="30" height="30" fill="white"></rect>
      </clipPath>
    </defs>
  </symbol>
  <symbol fill="none" xmlns="http://www.w3.org/2000/svg" viewBox="0 0 35 35" id="advantages-7">
    <path d="M34.3374 16.1443L31.891 14.7319C31.6511 14.5934 31.3445 14.6756 31.2061 14.9155C31.0676 15.1553 31.1497 15.4619 31.3896 15.6004L33.836 17.0128C34.099 17.197 34.0449 17.5187 33.7357 17.6065L32.9641 17.754C30.9735 18.1344 29.1285 19.0559 27.6286 20.4187L26.8801 21.0988C26.6745 21.3091 26.3563 21.3806 26.0927 21.2241L13.2282 13.7966C12.9884 13.6582 12.6817 13.7403 12.5433 13.9802C12.4048 14.22 12.4869 14.5266 12.7268 14.6651L25.5913 22.0925C25.7636 22.1919 25.9477 22.2563 26.135 22.2883L24.2067 25.6282C23.6999 26.5061 22.5732 26.8082 21.6952 26.3011L16.6707 23.4002C16.6705 23.4001 16.6703 23.4 16.67 23.3998L4.55362 16.4043C3.67568 15.8975 3.37381 14.7708 3.88069 13.8929L5.89237 10.4085C6.06642 10.7114 6.31743 10.9647 6.62799 11.1439L10.751 13.5244C10.9908 13.6627 11.2975 13.5807 11.436 13.3409C11.5745 13.1011 11.4923 12.7944 11.2524 12.6559L7.12934 10.2754C6.89691 10.1412 6.73066 9.92455 6.66121 9.66533C6.59176 9.40625 6.62737 9.13568 6.76136 8.9034L8.95132 5.1102C9.50489 4.10498 10.8851 3.73461 11.8671 4.32899L29.4658 14.4896C29.7014 14.6268 30.0114 14.5481 30.1507 14.306C30.2892 14.0662 30.2071 13.7596 29.9672 13.6211L12.3684 3.46056C11.6426 3.04151 10.7972 2.93022 9.98778 3.14713C9.17834 3.36403 8.50179 3.88315 8.08281 4.60886L3.01219 13.3915C2.22879 14.7483 2.69534 16.4894 4.05221 17.2728L9.61434 20.4842V23.2036C9.61434 24.4095 10.1959 25.482 11.0932 26.1557L10.0347 28.1768C9.76227 28.0792 9.469 28.0256 9.16337 28.0256C7.87849 28.0256 6.80955 28.9657 6.6068 30.194H4.13554C3.85978 28.612 2.57544 27.3579 0.933379 27.1662C0.696514 27.1383 0.458418 27.2135 0.280273 27.3721C0.102197 27.5306 0 27.7582 0 27.9966V33.6653C0 33.9037 0.102129 34.1312 0.280273 34.2897C0.458281 34.4485 0.698291 34.5235 0.933311 34.4956C2.66827 34.2931 4.00429 32.9049 4.17286 31.1968H6.63776C6.90177 32.3477 7.93352 33.209 9.1633 33.209C9.36448 33.209 9.56484 33.1858 9.75892 33.14C10.0285 33.0765 10.1955 32.8064 10.1319 32.5369C10.0683 32.2673 9.79822 32.1003 9.52882 32.164C9.41008 32.192 9.2871 32.2062 9.1633 32.2062C8.28721 32.2062 7.57442 31.4934 7.57442 30.6173C7.57442 29.7412 8.28721 29.0284 9.1633 29.0284C10.0394 29.0284 10.7521 29.7412 10.7521 30.6173C10.7521 30.7525 10.7352 30.8865 10.7019 31.0157C10.6327 31.2838 10.7939 31.5572 11.0621 31.6265C11.3302 31.6956 11.6037 31.5345 11.6729 31.2663C11.7273 31.0553 11.7549 30.837 11.7549 30.6173C11.7549 29.8542 11.4232 29.1672 10.8966 28.6925L11.97 26.6428C12.3841 26.804 12.8337 26.8934 13.304 26.8934C14.8226 26.8934 16.1688 25.9564 16.7241 24.589L21.1937 27.1696C21.8524 27.5504 22.6218 27.649 23.3499 27.4535C23.8997 27.3061 24.3819 27.0048 24.7486 26.586L26.8563 27.8029C27.119 27.9545 27.4062 28.0265 27.6896 28.0265C28.2653 28.0265 28.8258 27.7292 29.1361 27.1981C30.6285 27.9902 32.6182 27.3957 33.4339 25.9189C34.3031 24.4134 33.8319 22.496 32.3935 21.5569C32.6495 21.1533 32.7349 20.6682 32.6083 20.2051C32.4927 19.7736 32.2159 19.413 31.8291 19.1897L31.7191 19.1262C32.1849 18.9628 32.6635 18.8323 33.1522 18.7389C33.9231 18.6389 34.8608 18.4303 34.9808 17.5115C35.074 16.9604 34.8214 16.4237 34.3374 16.1443ZM1.00283 33.4714V28.1905C2.26119 28.427 3.18842 29.5306 3.18842 30.8309C3.18842 32.1313 2.26126 33.235 1.00283 33.4714ZM12.8432 22.3483L14.0701 23.0567C14.0256 23.44 13.6993 23.7387 13.3042 23.7387C12.8787 23.7387 12.5325 23.3925 12.5325 22.9671C12.5325 22.7212 12.6507 22.4924 12.8432 22.3483ZM13.3042 25.8906C11.8225 25.8906 10.6172 24.6851 10.6172 23.2036V21.0632L11.9444 21.8294C11.6823 22.1432 11.5297 22.544 11.5297 22.9672C11.5297 23.9456 12.3257 24.7416 13.3042 24.7416C14.0686 24.7416 14.7216 24.2558 14.9708 23.5767L15.8447 24.0812C15.4762 25.1478 14.4584 25.8906 13.3042 25.8906ZM32.5655 25.4175C32.2637 25.9402 31.7764 26.3141 31.1934 26.4704C30.669 26.6109 30.1237 26.5595 29.6389 26.3282L31.8909 22.4277C32.8508 23.0886 33.1581 24.391 32.5655 25.4175ZM31.3279 20.0581C31.6433 20.2317 31.7593 20.6648 31.5729 20.9727L28.2724 26.6893C28.0878 27.009 27.6774 27.1189 27.3578 26.9343L25.2974 25.7448L27.5478 21.847C28.4449 20.9984 29.4461 20.1445 30.5604 19.615L31.3279 20.0581Z" fill="white"></path>
    <path d="M22.6536 16.0245C23.0459 16.0245 23.3639 15.7065 23.3639 15.3142C23.3639 14.9219 23.0459 14.604 22.6536 14.604C22.2614 14.604 21.9434 14.9219 21.9434 15.3142C21.9434 15.7065 22.2614 16.0245 22.6536 16.0245Z" fill="white"></path>
    <path d="M24.9261 17.278C25.3183 17.278 25.6363 16.96 25.6363 16.5678C25.6363 16.1755 25.3183 15.8575 24.9261 15.8575C24.5338 15.8575 24.2158 16.1755 24.2158 16.5678C24.2158 16.96 24.5338 17.278 24.9261 17.278Z" fill="white"></path>
    <path d="M18.6683 5.05202C19.0605 5.05202 19.3785 4.73402 19.3785 4.34177C19.3785 3.94952 19.0605 3.63152 18.6683 3.63152C18.276 3.63152 17.958 3.94952 17.958 4.34177C17.958 4.73408 18.276 5.05202 18.6683 5.05202Z" fill="white"></path>
    <path d="M22.7702 8.11925C22.989 8.28529 23.3046 8.24407 23.4725 8.02204C25.1048 5.86571 25.1048 2.85373 23.4725 0.697331C23.3055 0.476598 22.991 0.433122 22.7702 0.600124C22.5494 0.767262 22.5058 1.08178 22.6729 1.30258C24.0354 3.10262 24.0354 5.61681 22.6729 7.41679C22.5058 7.63759 22.5493 7.95211 22.7702 8.11925Z" fill="white"></path>
    <path d="M20.4045 6.64925C20.6075 6.83676 20.9249 6.82479 21.1131 6.62088C22.2835 5.35288 22.2835 3.36635 21.1131 2.09843C20.9253 1.89506 20.608 1.88234 20.4045 2.07006C20.201 2.25791 20.1884 2.57516 20.3761 2.7786C21.1945 3.66515 21.1945 5.05415 20.3761 5.9407C20.1883 6.14414 20.201 6.46139 20.4045 6.64925Z" fill="white"></path>
  </symbol>
  <symbol fill="none" xmlns="http://www.w3.org/2000/svg" viewBox="0 0 10 17" id="arrow-left--slider">
    <path d="M9 1L1.5 8.5L9 16" stroke="#FF0000" stroke-width="2"></path>
  </symbol>
  <symbol fill="none" xmlns="http://www.w3.org/2000/svg" viewBox="0 0 10 17" id="arrow-right--slider">
    <path d="M1 1L8.5 8.5L1 16" stroke="#FF0000" stroke-width="2"></path>
  </symbol>
  <symbol fill="none" xmlns="http://www.w3.org/2000/svg" viewBox="0 0 6 3" id="arrow-select-telephone">
    <path d="M3 3L-3.48259e-07 1.19051e-08L6 5.36442e-07L3 3Z" fill="#CC3333"></path>
  </symbol>
  <symbol fill="none" xmlns="http://www.w3.org/2000/svg" viewBox="0 0 24 19" id="burger">
    <rect width="24" height="2" fill="#CC3333"></rect>
    <rect x="9" y="8" width="15" height="2" fill="#CC3333"></rect>
    <rect y="17" width="24" height="2" fill="#2C2C2C"></rect>
  </symbol>
  <symbol fill="none" xmlns="http://www.w3.org/2000/svg" viewBox="0 0 63 63" id="camera">
    <g clip-path="url(#clip0_1749_281)" fill="#CF3535">
      <path d="M62.57 27.513L24.178 5.35a4.805 4.805 0 00-6.554 1.755l-4.42 7.655-2.942 5.096a4.805 4.805 0 001.757 6.555l13.163 7.6-2.047 3.49a3.089 3.089 0 01-2.654 1.52h-7.685v-5.857a.861.861 0 00-.862-.861H7.26V31.19a3.82 3.82 0 00-3.815-3.814H.861a.861.861 0 00-.861.861v29.195a.86.86 0 00.861.862h2.584A3.819 3.819 0 007.26 54.48v-2.736h4.675a.861.861 0 00.862-.861V46.65h7.685a10.747 10.747 0 009.234-5.289l2.074-3.535 7.215 4.165a4.774 4.774 0 003.641.48 4.77 4.77 0 002.084-1.176 7.176 7.176 0 004.9.416 7.193 7.193 0 003.923-2.658l1.764 1.018a.86.86 0 001.177-.315l6.389-11.065a.863.863 0 00-.314-1.178zM5.536 54.48a2.094 2.094 0 01-2.092 2.092H1.723V29.1h1.722a2.094 2.094 0 012.092 2.091v23.29zm5.537-4.458H7.26V34.025h3.814v15.997zM28.23 40.49a9.017 9.017 0 01-7.748 4.438h-7.685v-4.184h7.685a4.817 4.817 0 004.14-2.371l2.055-3.5 3.623 2.091-2.07 3.526zm11.637.01L12.882 24.92a3.08 3.08 0 01-1.127-4.203l2.51-4.35 24.731 14.279 7.583 4.377-2.511 4.352-.003.005a3.037 3.037 0 01-.218.32v.004a3.079 3.079 0 01-3.98.795zm9.32-.453a5.49 5.49 0 01-3.414-.18l2.3-3.983 3.984 2.3a5.49 5.49 0 01-2.87 1.863zm6.25-1.9l-5.571-3.216-1.68-.97-19.017-10.979-14.041-8.106 3.99-6.91a3.08 3.08 0 014.201-1.125l37.643 21.734-5.526 9.572z"></path>
      <path d="M51.755 33.465a3.292 3.292 0 002.514.331 3.313 3.313 0 10-2.514-.33zm.28-3.663a1.579 1.579 0 01.966-.738 1.591 1.591 0 11-.965.74v-.002zm-29.64-5.06l-7.058-4.076a.86.86 0 10-.861 1.492l7.06 4.075a.86.86 0 00.859-1.49z"></path>
    </g>
    <defs>
      <clipPath id="clip0_1749_281">
        <path fill="#fff" d="M0 0h63v63H0z"></path>
      </clipPath>
    </defs>
  </symbol>
  <symbol fill="none" xmlns="http://www.w3.org/2000/svg" viewBox="0 0 16 16" id="mail">
    <path d="M14.666 2.667H1.333v10.666h13.333V2.667zm-1.333 2.666L8 8.667 2.666 5.333V4L8 7.333 13.333 4v1.333z" fill="#C33"></path>
  </symbol>
  <symbol fill="none" xmlns="http://www.w3.org/2000/svg" viewBox="0 0 16 16" id="maps">
    <path d="M12.667 6a4.667 4.667 0 00-9.333 0c0 .925.273 1.785.737 2.51h-.006l3.936 6.157 3.935-6.157h-.005c.48-.75.736-1.62.736-2.51zM8.001 8a2 2 0 110-4 2 2 0 010 4z" fill="#C33"></path>
  </symbol>
  <symbol fill="none" xmlns="http://www.w3.org/2000/svg" viewBox="0 0 16 16" id="time">
    <path d="M7.99967 1.33325C4.32367 1.33325 1.33301 4.32392 1.33301 7.99992C1.33301 11.6759 4.32367 14.6666 7.99967 14.6666C11.6757 14.6666 14.6663 11.6759 14.6663 7.99992C14.6663 4.32392 11.6757 1.33325 7.99967 1.33325Z" fill="#CC3333"></path>
    <path d="M8.66634 4.66675H7.33301V8.66675H11.333V7.33342H8.66634V4.66675Z" fill="white"></path>
  </symbol>
</svg>