<svg width="0" height="0" class="hidden">
  <symbol fill="none" xmlns="http://www.w3.org/2000/svg" viewBox="0 0 63 63" id="camera">
    <g clip-path="url(#clip0_1749_281)" fill="#CF3535">
      <path d="M62.57 27.513L24.178 5.35a4.805 4.805 0 00-6.554 1.755l-4.42 7.655-2.942 5.096a4.805 4.805 0 001.757 6.555l13.163 7.6-2.047 3.49a3.089 3.089 0 01-2.654 1.52h-7.685v-5.857a.861.861 0 00-.862-.861H7.26V31.19a3.82 3.82 0 00-3.815-3.814H.861a.861.861 0 00-.861.861v29.195a.86.86 0 00.861.862h2.584A3.819 3.819 0 007.26 54.48v-2.736h4.675a.861.861 0 00.862-.861V46.65h7.685a10.747 10.747 0 009.234-5.289l2.074-3.535 7.215 4.165a4.774 4.774 0 003.641.48 4.77 4.77 0 002.084-1.176 7.176 7.176 0 004.9.416 7.193 7.193 0 003.923-2.658l1.764 1.018a.86.86 0 001.177-.315l6.389-11.065a.863.863 0 00-.314-1.178zM5.536 54.48a2.094 2.094 0 01-2.092 2.092H1.723V29.1h1.722a2.094 2.094 0 012.092 2.091v23.29zm5.537-4.458H7.26V34.025h3.814v15.997zM28.23 40.49a9.017 9.017 0 01-7.748 4.438h-7.685v-4.184h7.685a4.817 4.817 0 004.14-2.371l2.055-3.5 3.623 2.091-2.07 3.526zm11.637.01L12.882 24.92a3.08 3.08 0 01-1.127-4.203l2.51-4.35 24.731 14.279 7.583 4.377-2.511 4.352-.003.005a3.037 3.037 0 01-.218.32v.004a3.079 3.079 0 01-3.98.795zm9.32-.453a5.49 5.49 0 01-3.414-.18l2.3-3.983 3.984 2.3a5.49 5.49 0 01-2.87 1.863zm6.25-1.9l-5.571-3.216-1.68-.97-19.017-10.979-14.041-8.106 3.99-6.91a3.08 3.08 0 014.201-1.125l37.643 21.734-5.526 9.572z"></path>
      <path d="M51.755 33.465a3.292 3.292 0 002.514.331 3.313 3.313 0 10-2.514-.33zm.28-3.663a1.579 1.579 0 01.966-.738 1.591 1.591 0 11-.965.74v-.002zm-29.64-5.06l-7.058-4.076a.86.86 0 10-.861 1.492l7.06 4.075a.86.86 0 00.859-1.49z"></path>
    </g>
    <defs>
      <clipPath id="clip0_1749_281">
        <path fill="#fff" d="M0 0h63v63H0z"></path>
      </clipPath>
    </defs>
  </symbol>
  <symbol fill="none" xmlns="http://www.w3.org/2000/svg" viewBox="0 0 24 19" id="burger">
    <rect width="24" height="2" fill="#CC3333"></rect>
    <rect x="9" y="8" width="15" height="2" fill="#CC3333"></rect>
    <rect y="17" width="24" height="2" fill="#2C2C2C"></rect>
  </symbol>
  <symbol fill="none" xmlns="http://www.w3.org/2000/svg" viewBox="0 0 10 17" id="arrow-right--slider">
    <path d="M1 1L8.5 8.5L1 16" stroke="#FF0000" stroke-width="2"></path>
  </symbol>
  <symbol fill="none" xmlns="http://www.w3.org/2000/svg" viewBox="0 0 16 16" id="mail">
    <path d="M14.666 2.667H1.333v10.666h13.333V2.667zm-1.333 2.666L8 8.667 2.666 5.333V4L8 7.333 13.333 4v1.333z" fill="#C33"></path>
  </symbol>
  <symbol fill="none" xmlns="http://www.w3.org/2000/svg" viewBox="0 0 6 3" id="arrow-select-telephone">
    <path d="M3 3L-3.48259e-07 1.19051e-08L6 5.36442e-07L3 3Z" fill="#CC3333"></path>
  </symbol>
  <symbol fill="none" xmlns="http://www.w3.org/2000/svg" viewBox="0 0 16 16" id="maps">
    <path d="M12.667 6a4.667 4.667 0 00-9.333 0c0 .925.273 1.785.737 2.51h-.006l3.936 6.157 3.935-6.157h-.005c.48-.75.736-1.62.736-2.51zM8.001 8a2 2 0 110-4 2 2 0 010 4z" fill="#C33"></path>
  </symbol>
  <symbol fill="none" xmlns="http://www.w3.org/2000/svg" viewBox="0 0 10 17" id="arrow-left--slider">
    <path d="M9 1L1.5 8.5L9 16" stroke="#FF0000" stroke-width="2"></path>
  </symbol>
  <symbol fill="none" xmlns="http://www.w3.org/2000/svg" viewBox="0 0 16 16" id="time">
    <path d="M7.99967 1.33325C4.32367 1.33325 1.33301 4.32392 1.33301 7.99992C1.33301 11.6759 4.32367 14.6666 7.99967 14.6666C11.6757 14.6666 14.6663 11.6759 14.6663 7.99992C14.6663 4.32392 11.6757 1.33325 7.99967 1.33325Z" fill="#CC3333"></path>
    <path d="M8.66634 4.66675H7.33301V8.66675H11.333V7.33342H8.66634V4.66675Z" fill="white"></path>
  </symbol>
</svg>