<svg width="0" height="0" class="hidden">
  <symbol fill="none" xmlns="http://www.w3.org/2000/svg" viewBox="0 0 6 3" id="arrow-select-telephone">
    <path d="M3 3L-3.48259e-07 1.19051e-08L6 5.36442e-07L3 3Z" fill="#CC3333"></path>
  </symbol>
  <symbol fill="none" xmlns="http://www.w3.org/2000/svg" viewBox="0 0 18 18" id="question-minus">
    <g clip-path="url(#clip0_59_2419)">
      <path d="M9 0C4.03594 0 0 4.03594 0 9C0 13.9641 4.03594 18 9 18C13.9641 18 18 13.9641 18 9C18 4.03594 13.9641 0 9 0ZM12.8004 10.5539H10.6172C9.5 10.5539 9.89297 10.5539 9 10.5539C8.10703 10.5539 8.5 10.5539 7.5 10.5539H7.38281H5.19961C4.30664 10.5539 3.58242 9.82969 3.58242 8.93672C3.58242 8.04375 4.30664 7.31953 5.19961 7.31953H7.38281C6.48984 7.31953 8 7.31953 7.38281 7.31953C8.5 7.31832 8.27578 7.31953 7.38281 7.31953L10.6172 7.31602H12.8004C13.6934 7.31602 14.4176 8.04023 14.4176 8.9332C14.4211 9.82969 13.6969 10.5539 12.8004 10.5539Z" fill="white"></path>
    </g>
    <defs>
      <clipPath id="clip0_59_2419">
        <rect width="18" height="18" fill="white"></rect>
      </clipPath>
    </defs>
  </symbol>
  <symbol fill="none" xmlns="http://www.w3.org/2000/svg" viewBox="0 0 24 19" id="burger">
    <rect width="24" height="2" fill="#CC3333"></rect>
    <rect x="9" y="8" width="15" height="2" fill="#CC3333"></rect>
    <rect y="17" width="24" height="2" fill="#2C2C2C"></rect>
  </symbol>
  <symbol fill="none" xmlns="http://www.w3.org/2000/svg" viewBox="0 0 18 18" id="question-plus">
    <g clip-path="url(#clip0_59_2426)">
      <path d="M9 0C4.03594 0 0 4.03594 0 9C0 13.9641 4.03594 18 9 18C13.9641 18 18 13.9641 18 9C18 4.03594 13.9641 0 9 0ZM12.8004 10.5539H10.6172V12.7371C10.6172 13.6301 9.89297 14.3543 9 14.3543C8.10703 14.3543 7.38281 13.6301 7.38281 12.7371V10.5539H5.19961C4.30664 10.5539 3.58242 9.82969 3.58242 8.93672C3.58242 8.04375 4.30664 7.31953 5.19961 7.31953H7.38281V5.13281C7.38281 4.23984 8.10703 3.51562 9 3.51562C9.89297 3.51562 10.6172 4.23984 10.6172 5.13281V7.31602H12.8004C13.6934 7.31602 14.4176 8.04023 14.4176 8.9332C14.4211 9.82969 13.6969 10.5539 12.8004 10.5539Z" fill="#F54545"></path>
    </g>
    <defs>
      <clipPath id="clip0_59_2426">
        <rect width="18" height="18" fill="white"></rect>
      </clipPath>
    </defs>
  </symbol>
  <symbol fill="none" xmlns="http://www.w3.org/2000/svg" viewBox="0 0 16 16" id="mail">
    <path d="M14.666 2.667H1.333v10.666h13.333V2.667zm-1.333 2.666L8 8.667 2.666 5.333V4L8 7.333 13.333 4v1.333z" fill="#C33"></path>
  </symbol>
  <symbol fill="none" xmlns="http://www.w3.org/2000/svg" viewBox="0 0 10 17" id="arrow-left--slider">
    <path d="M9 1L1.5 8.5L9 16" stroke="#FF0000" stroke-width="2"></path>
  </symbol>
  <symbol fill="none" xmlns="http://www.w3.org/2000/svg" viewBox="0 0 16 16" id="maps">
    <path d="M12.667 6a4.667 4.667 0 00-9.333 0c0 .925.273 1.785.737 2.51h-.006l3.936 6.157 3.935-6.157h-.005c.48-.75.736-1.62.736-2.51zM8.001 8a2 2 0 110-4 2 2 0 010 4z" fill="#C33"></path>
  </symbol>
  <symbol fill="none" xmlns="http://www.w3.org/2000/svg" viewBox="0 0 10 17" id="arrow-right--slider">
    <path d="M1 1L8.5 8.5L1 16" stroke="#FF0000" stroke-width="2"></path>
  </symbol>
  <symbol fill="none" xmlns="http://www.w3.org/2000/svg" viewBox="0 0 16 16" id="time">
    <path d="M7.99967 1.33325C4.32367 1.33325 1.33301 4.32392 1.33301 7.99992C1.33301 11.6759 4.32367 14.6666 7.99967 14.6666C11.6757 14.6666 14.6663 11.6759 14.6663 7.99992C14.6663 4.32392 11.6757 1.33325 7.99967 1.33325Z" fill="#CC3333"></path>
    <path d="M8.66634 4.66675H7.33301V8.66675H11.333V7.33342H8.66634V4.66675Z" fill="white"></path>
  </symbol>
</svg>