<svg width="126" height="116" viewBox="0 0 126 116" fill="none" xmlns="http://www.w3.org/2000/svg">
<g opacity="0.7" filter="url(#filter0_f_1749_565)">
<path d="M38.0331 59.3599L30.3555 58.5068L40.5924 28.6492L45.7108 35.4738L38.0331 59.3599Z" fill="#6D2626"/>
<path d="M68.7442 32.0615C59.6448 30.924 41.2752 28.6492 40.5928 28.6492L45.7112 35.4738L67.0381 38.033L68.7442 32.0615Z" fill="#992B2B"/>
<path d="M87.5117 80.6868L91.7771 84.9522L101.161 53.3884H96.0425L87.5117 80.6868Z" fill="#892A2A"/>
<path d="M37.1801 78.1276L30.3555 75.5684L44.8577 88.3645L48.27 86.6583L37.1801 78.1276Z" fill="#B13232"/>
<path d="M30.3555 75.5684L58.5069 78.9807L60.2131 80.6868L37.1801 78.1276L30.3555 75.5684Z" fill="#8B2929"/>
<path d="M48.2703 86.6584L44.0049 88.3645L72.1564 92.6299L68.7441 89.2176L48.2703 86.6584Z" fill="#8B2929"/>
<path d="M86.6582 44.8577V39.7393L101.16 53.3885H96.042L86.6582 44.8577Z" fill="#702B2B"/>
<path d="M77.2745 71.303L86.6583 44.8577V39.7393L75.5684 70.45L77.2745 71.303Z" fill="#892A2A"/>
<path fill-rule="evenodd" clip-rule="evenodd" d="M66.146 75.2483L84.6759 21.1102L33.221 15L15 68.7275L66.146 75.2483ZM58.6558 62.0292L68.8855 32.1417L40.4793 28.7685L30.4202 58.4293L58.6558 62.0292Z" fill="url(#paint0_linear_1749_565)"/>
<path fill-rule="evenodd" clip-rule="evenodd" d="M93.0194 100.308L66.1465 75.2484L84.6764 21.1104L111 45.4918L93.0194 100.308ZM91.2318 83.8375L76.2826 69.8971L86.5907 39.7804L101.234 53.3437L91.2318 83.8375Z" fill="#992B2B"/>
<path fill-rule="evenodd" clip-rule="evenodd" d="M41.2638 92.8364L15 68.7271L66.146 75.2478L93.0189 100.307L41.2638 92.8364ZM44.811 88.5151L30.7881 75.6425L58.0961 79.1241L72.4441 92.5038L44.811 88.5151Z" fill="url(#paint1_linear_1749_565)"/>
</g>
<defs>
<filter id="filter0_f_1749_565" x="0" y="0" width="126" height="115.308" filterUnits="userSpaceOnUse" color-interpolation-filters="sRGB">
<feFlood flood-opacity="0" result="BackgroundImageFix"/>
<feBlend mode="normal" in="SourceGraphic" in2="BackgroundImageFix" result="shape"/>
<feGaussianBlur stdDeviation="7.5" result="effect1_foregroundBlur_1749_565"/>
</filter>
<linearGradient id="paint0_linear_1749_565" x1="49.838" y1="15" x2="49.838" y2="75.2483" gradientUnits="userSpaceOnUse">
<stop stop-color="#FB4747"/>
<stop offset="1" stop-color="#CF3535"/>
</linearGradient>
<linearGradient id="paint1_linear_1749_565" x1="13.807" y1="80.3106" x2="94.2918" y2="88.7593" gradientUnits="userSpaceOnUse">
<stop stop-color="#FA4747"/>
<stop offset="1" stop-color="#CF3535"/>
</linearGradient>
</defs>
</svg>
