<svg width="16" height="16" viewBox="0 0 16 16" fill="none" xmlns="http://www.w3.org/2000/svg">
<path d="M12.6673 5.99992C12.6673 5.38708 12.5466 4.78025 12.3121 4.21406C12.0776 3.64788 11.7338 3.13343 11.3005 2.70009C10.8671 2.26675 10.3527 1.923 9.78651 1.68848C9.22032 1.45396 8.61349 1.33325 8.00065 1.33325C7.38782 1.33325 6.78098 1.45396 6.2148 1.68848C5.64861 1.923 5.13416 2.26675 4.70082 2.70009C4.26748 3.13343 3.92374 3.64788 3.68921 4.21406C3.45469 4.78025 3.33398 5.38708 3.33398 5.99992C3.33398 6.92458 3.60732 7.78458 4.07065 8.50992H4.06532C5.63865 10.9733 8.00065 14.6666 8.00065 14.6666L11.936 8.50992H11.9313C12.4116 7.76083 12.667 6.88975 12.6673 5.99992ZM8.00065 7.99992C7.47022 7.99992 6.96151 7.7892 6.58644 7.41413C6.21136 7.03906 6.00065 6.53035 6.00065 5.99992C6.00065 5.46949 6.21136 4.96078 6.58644 4.58571C6.96151 4.21063 7.47022 3.99992 8.00065 3.99992C8.53109 3.99992 9.03979 4.21063 9.41487 4.58571C9.78994 4.96078 10.0007 5.46949 10.0007 5.99992C10.0007 6.53035 9.78994 7.03906 9.41487 7.41413C9.03979 7.7892 8.53109 7.99992 8.00065 7.99992Z" fill="#CC3333"/>
</svg>
