<svg width="63" height="63" viewBox="0 0 63 63" fill="none" xmlns="http://www.w3.org/2000/svg">
<g clip-path="url(#clip0_1749_281)">
<path d="M62.5693 27.5132L24.1787 5.34955C23.0764 4.71529 21.7676 4.54392 20.5392 4.87302C19.3107 5.20211 18.2628 6.00481 17.6252 7.10518L13.2054 14.7602L10.2631 19.8558C9.62847 20.9585 9.45705 22.2679 9.78645 23.4968C10.1158 24.7257 10.9191 25.7738 12.0202 26.4112L25.1828 34.0101L23.1358 37.5007C22.8635 37.9627 22.4756 38.3459 22.0102 38.6125C21.5449 38.8791 21.0182 39.0199 20.4819 39.0211H12.7969V33.164C12.7969 32.9356 12.7061 32.7165 12.5446 32.555C12.3831 32.3935 12.164 32.3027 11.9355 32.3027H7.25977V31.1914C7.25859 30.1801 6.85634 29.2105 6.14124 28.4954C5.42615 27.7803 4.45661 27.3781 3.44531 27.3769H0.861328C0.748199 27.3768 0.636166 27.3991 0.531636 27.4423C0.427105 27.4856 0.332128 27.549 0.252133 27.629C0.172138 27.709 0.108696 27.804 0.0654331 27.9085C0.0221702 28.0131 -6.45601e-05 28.1251 1.40799e-07 28.2382V57.4333C-6.45601e-05 57.5465 0.0221702 57.6585 0.0654331 57.763C0.108696 57.8675 0.172138 57.9625 0.252133 58.0425C0.332128 58.1225 0.427105 58.186 0.531636 58.2292C0.636166 58.2725 0.748199 58.2947 0.861328 58.2947H3.44531C4.45661 58.2935 5.42615 57.8912 6.14124 57.1761C6.85634 56.461 7.25859 55.4915 7.25977 54.4802V51.7441H11.9355C12.164 51.7441 12.3831 51.6534 12.5446 51.4918C12.7061 51.3303 12.7969 51.1112 12.7969 50.8828V46.65H20.4819C22.3478 46.646 24.1805 46.1563 25.7997 45.229C27.4188 44.3017 28.7687 42.9688 29.7163 41.3614L31.7899 37.8256L39.0049 41.9909C39.7313 42.4124 40.5561 42.6348 41.3959 42.6357C41.8181 42.6355 42.2384 42.5799 42.6461 42.4703C43.4295 42.2619 44.1469 41.8572 44.7305 41.2945C45.6742 41.7323 46.7018 41.9597 47.7422 41.9609C48.3798 41.9605 49.0145 41.8764 49.6302 41.7109C51.2006 41.2935 52.5835 40.3567 53.5534 39.0531L55.3174 40.0714C55.4154 40.1281 55.5236 40.1648 55.6358 40.1796C55.748 40.1944 55.862 40.187 55.9713 40.1577C56.0806 40.1284 56.183 40.0778 56.2728 40.0089C56.3625 39.9399 56.4378 39.854 56.4943 39.7559L62.8829 28.691C62.9396 28.5931 62.9765 28.485 62.9915 28.3728C63.0064 28.2606 62.9991 28.1466 62.97 28.0372C62.9409 27.9278 62.8905 27.8253 62.8218 27.7354C62.753 27.6455 62.6673 27.57 62.5693 27.5132ZM5.53711 54.4802C5.53659 55.0348 5.31604 55.5666 4.92386 55.9587C4.53169 56.3509 3.99993 56.5715 3.44531 56.572H1.72266V29.0996H3.44531C3.99993 29.1001 4.53169 29.3206 4.92386 29.7128C5.31604 30.105 5.53659 30.6367 5.53711 31.1914V54.4802ZM11.0742 50.0215H7.25977V34.0254H11.0742V50.0215ZM28.2299 40.4898C27.4349 41.8386 26.3024 42.9571 24.9439 43.7353C23.5853 44.5135 22.0475 44.9245 20.4819 44.9278H12.7969V40.7442H20.4819C21.3184 40.7424 22.1401 40.5228 22.8659 40.107C23.5918 39.6912 24.1969 39.0935 24.6217 38.3729L26.6766 34.8724L30.3 36.9642L28.2299 40.4898ZM39.8672 40.4991L12.8815 24.9194C12.1756 24.5109 11.6606 23.839 11.4495 23.0511C11.2383 22.2633 11.3484 21.4239 11.7554 20.7171L14.2656 16.3677L38.9965 30.646L46.5787 35.0235L44.068 39.375L44.0646 39.3804C43.9991 39.4915 43.9266 39.5984 43.8475 39.7003V39.7037C43.3933 40.2964 42.7392 40.7038 42.007 40.8501C41.2747 40.9964 40.5143 40.8717 39.8672 40.4991ZM49.1877 40.0468C48.0595 40.3518 46.8634 40.2889 45.7734 39.8671L48.0734 35.8839L52.0567 38.1834C51.323 39.0944 50.3175 39.7472 49.1868 40.0468H49.1877ZM55.4361 38.147L49.866 34.931L48.1852 33.9609L29.1685 22.9822L15.1279 14.8758L19.1171 7.96651C19.5258 7.26075 20.1977 6.74593 20.9855 6.535C21.7734 6.32407 22.6127 6.43425 23.3194 6.84137L60.9618 28.5749L55.4361 38.147Z" fill="#CF3535"/>
<path d="M51.7554 33.4652C52.257 33.7566 52.8266 33.9103 53.4067 33.9107C53.6979 33.9104 53.9878 33.872 54.269 33.7965C55.0093 33.5982 55.6579 33.1494 56.1043 32.5266C56.5507 31.9037 56.7674 31.1453 56.7174 30.3806C56.6673 29.6159 56.3537 28.8922 55.8299 28.3328C55.3061 27.7734 54.6046 27.4129 53.8448 27.3128C53.085 27.2127 52.314 27.3791 51.6632 27.7837C51.0124 28.1883 50.522 28.806 50.2755 29.5317C50.0291 30.2573 50.0419 31.046 50.3118 31.7632C50.5816 32.4805 51.0918 33.082 51.7554 33.4652ZM52.0355 29.8019C52.1397 29.6212 52.2786 29.463 52.4443 29.3363C52.6099 29.2096 52.799 29.1169 53.0006 29.0636C53.1355 29.0275 53.2745 29.0092 53.4141 29.009C53.7644 29.009 54.1048 29.1247 54.3827 29.3379C54.6606 29.5512 54.8603 29.8502 54.9509 30.1886C55.0416 30.527 55.018 30.8858 54.8839 31.2094C54.7498 31.533 54.5127 31.8033 54.2093 31.9784C53.9059 32.1535 53.5532 32.2236 53.2059 32.1778C52.8586 32.132 52.5362 31.973 52.2885 31.7252C52.0408 31.4775 51.8819 31.155 51.8362 30.8077C51.7905 30.4604 51.8608 30.1077 52.036 29.8044L52.0355 29.8019Z" fill="#CF3535"/>
<path d="M22.3949 24.7422L15.337 20.6664C15.239 20.6089 15.1306 20.5714 15.0181 20.556C14.9055 20.5406 14.791 20.5477 14.6812 20.5767C14.5714 20.6057 14.4684 20.6562 14.3782 20.7252C14.2879 20.7942 14.2122 20.8804 14.1554 20.9788C14.0986 21.0771 14.0619 21.1858 14.0472 21.2984C14.0326 21.411 14.0404 21.5255 14.0701 21.6351C14.0999 21.7447 14.151 21.8474 14.2206 21.9372C14.2902 22.0269 14.3769 22.102 14.4757 22.1582L21.5356 26.2335C21.7326 26.3365 21.9618 26.3594 22.1753 26.2972C22.3888 26.2351 22.57 26.0929 22.681 25.9003C22.792 25.7076 22.8242 25.4795 22.7709 25.2637C22.7176 25.0478 22.5829 24.861 22.3949 24.7422Z" fill="#CF3535"/>
</g>
<defs>
<clipPath id="clip0_1749_281">
<rect width="63" height="63" fill="white"/>
</clipPath>
</defs>
</svg>
