<svg width="31" height="31" viewBox="0 0 31 31" fill="none" xmlns="http://www.w3.org/2000/svg">
<g clip-path="url(#clip0_1749_699)">
<path d="M18.5277 19.5353C18.9114 19.5353 19.2703 19.3841 19.5382 19.1094L21.9183 16.6692C22.4616 16.1121 22.4503 15.217 21.8932 14.6737C21.3361 14.1306 20.4408 14.1418 19.8976 14.6988L18.5013 16.1302L18.2567 15.8924C17.6988 15.3501 16.8036 15.3626 16.261 15.9204C15.7186 16.4782 15.7312 17.3733 16.2891 17.9158L17.544 19.1359C17.8088 19.3935 18.1583 19.5353 18.5277 19.5353ZM16.9136 16.5548C17.1064 16.3566 17.4244 16.3524 17.6224 16.5449L18.1927 17.0995C18.3726 17.2745 18.6603 17.2706 18.8357 17.0909L20.5491 15.3342C20.7422 15.1363 21.0601 15.1325 21.2578 15.3253C21.4557 15.5182 21.4596 15.8361 21.2668 16.0339L18.8866 18.4741C18.7027 18.6708 18.3676 18.675 18.1784 18.4836L16.9235 17.2634C16.7255 17.0708 16.7209 16.7528 16.9136 16.5548Z" fill="white"/>
<path d="M15.0104 19.845C14.859 19.6444 14.5738 19.6045 14.373 19.7558C14.1724 19.9072 14.1325 20.1925 14.2838 20.3931C14.4495 20.6127 14.6329 20.8233 14.8286 21.019C15.9474 22.1377 17.435 22.7538 19.0173 22.7538C20.5995 22.7538 22.0871 22.1377 23.2059 21.019C24.3248 19.9003 24.9409 18.4129 24.9409 16.8309C24.9409 15.2488 24.3247 13.7615 23.2059 12.6428C20.8962 10.3335 17.1383 10.3335 14.8286 12.6428C13.2539 14.2172 12.6967 16.5139 13.3744 18.6367C13.4508 18.8761 13.7071 19.0081 13.9463 18.9318C14.1857 18.8554 14.3179 18.5993 14.2414 18.36C13.6677 16.5631 14.1393 14.6189 15.4722 13.2863C17.4269 11.3318 20.6077 11.3318 22.5623 13.2863C23.5093 14.2331 24.0309 15.4919 24.0309 16.8309C24.0309 18.1699 23.5093 19.4288 22.5623 20.3756C21.6155 21.3224 20.3564 21.8439 19.0173 21.8439C17.6782 21.8439 16.4191 21.3224 15.4721 20.3756C15.3061 20.2095 15.1507 20.031 15.0104 19.845Z" fill="white"/>
<path d="M30.373 25.1434L27.5022 22.2729C27.3244 22.0952 27.0364 22.0952 26.8586 22.2729L26.841 22.2905L25.7362 21.1858C26.4789 20.0409 26.9214 18.718 27.0084 17.3374C27.0242 17.0866 26.8337 16.8705 26.5829 16.8546C26.3323 16.8394 26.116 17.0294 26.1001 17.2801C25.9914 19.0038 25.2582 20.6264 24.0353 21.8491C22.6534 23.2309 20.8387 23.9226 19.0233 23.9243C19.021 23.9242 19.0188 23.9239 19.0164 23.9239H18.9803C17.1748 23.9149 15.3721 23.2234 13.9975 21.8491C12.6569 20.5087 11.9186 18.7265 11.9186 16.8308C11.9186 14.9352 12.6569 13.153 13.9975 11.8126C16.7649 9.04546 21.2679 9.04546 24.0353 11.8126C25.0661 12.8432 25.7463 14.1432 26.0025 15.5722C26.0468 15.8195 26.2835 15.9838 26.5307 15.9398C26.7781 15.8954 26.9426 15.659 26.8983 15.4116C26.6091 13.7988 25.8417 12.3318 24.6789 11.1691C24.1027 10.593 23.4597 10.1236 22.7748 9.7601V6.09301C22.7744 5.97325 22.726 5.85603 22.6415 5.77127L17.0028 0.133264C16.9179 0.0488613 16.8008 0.000302734 16.6809 0H1.36423C0.611516 0 -0.000916016 0.612311 -0.000916016 1.36497V5.18929C-0.000916016 5.44056 0.202764 5.6443 0.454154 5.6443C0.705484 5.6443 0.909225 5.44062 0.909225 5.18929V1.36497C0.909225 1.11406 1.11333 0.909959 1.36429 0.909959H16.226V5.18305C16.226 5.93571 16.8384 6.54802 17.5912 6.54802H21.8648V9.34801C20.9769 9.01162 20.0409 8.83881 19.1033 8.8287C19.0988 8.8281 19.0945 8.82719 19.0898 8.82719H8.93005C8.67872 8.82719 8.47498 9.03093 8.47498 9.2822C8.47498 9.53347 8.67872 9.73721 8.93005 9.73721H15.3012C14.652 10.0766 14.0401 10.5111 13.486 11.0405H8.93005C8.67872 11.0405 8.47498 11.2442 8.47498 11.4955C8.47498 11.7468 8.67872 11.9505 8.93005 11.9505H12.667C11.9242 12.9127 11.4166 14.0208 11.1736 15.2037H8.93011C8.67878 15.2037 8.47504 15.4074 8.47504 15.6587C8.47504 15.91 8.67878 16.1137 8.93011 16.1137H11.0407C11.0198 16.3509 11.0087 16.59 11.0087 16.8309C11.0087 17.0286 11.0159 17.2251 11.03 17.4202H8.93017C8.67884 17.4202 8.4751 17.624 8.4751 17.8753C8.4751 18.1265 8.67884 18.3303 8.93017 18.3303H11.1486C11.3807 19.5618 11.8981 20.7159 12.6684 21.713H8.93017C8.67884 21.713 8.4751 21.9167 8.4751 22.168C8.4751 22.4194 8.67884 22.623 8.93017 22.623H13.4878C14.0412 23.1514 14.6521 23.5852 15.3001 23.9242H8.92993C8.6786 23.9242 8.47486 24.1279 8.47486 24.3792C8.47486 24.6305 8.6786 24.8342 8.92993 24.8342H19.0164C19.9829 24.8341 20.9494 24.6605 21.8647 24.3137V29.6353C21.8647 29.8861 21.6606 30.0903 21.4096 30.0903H1.36423C1.11333 30.0903 0.909164 29.8862 0.909164 29.6353V7.00951C0.909164 6.75824 0.705424 6.5545 0.454094 6.5545C0.202764 6.5545 -0.000976562 6.75818 -0.000976562 7.00951V29.6353C-0.000916016 30.3877 0.611516 31 1.36423 31H21.4097C22.1624 31 22.7748 30.3877 22.7748 29.635V23.9014C22.9779 23.7936 23.1772 23.6764 23.3722 23.55L24.4768 24.6544C24.2856 24.8213 24.2754 25.1392 24.4592 25.3154L27.3301 28.186C28.1309 29.0206 29.5722 29.0205 30.373 28.186C31.2078 27.3852 31.2077 25.9441 30.373 25.1434ZM17.5911 5.63806C17.3402 5.63806 17.136 5.43396 17.136 5.18305V1.55345L21.2212 5.63806H17.5911ZM24.1145 23.0053C24.3087 22.8448 24.4973 22.6741 24.6789 22.4926C24.8594 22.312 25.0303 22.1235 25.1916 21.9283L26.1974 22.9339L25.1203 24.0108L24.1145 23.0053ZM29.7295 27.5425C29.2674 28.0241 28.4358 28.024 27.9736 27.5425L25.4245 24.9937L27.1804 23.238L29.7295 25.7868C30.2111 26.2489 30.2112 27.0804 29.7295 27.5425Z" fill="white"/>
<path d="M4.12918 12.4002H6.11996C6.68123 12.4002 7.13788 11.9437 7.13788 11.3825V9.39197C7.13788 8.83076 6.68129 8.37424 6.11996 8.37424H4.12918C3.56797 8.37424 3.11133 8.83076 3.11133 9.39197V11.3825C3.11133 11.9437 3.56797 12.4002 4.12918 12.4002ZM4.02147 9.39197C4.02147 9.33257 4.06985 9.28426 4.12918 9.28426H6.11996C6.17942 9.28426 6.22774 9.33257 6.22774 9.39197V11.3825C6.22774 11.4419 6.17936 11.4902 6.11996 11.4902H4.12918C4.06979 11.4902 4.02147 11.4419 4.02147 11.3825V9.39197Z" fill="white"/>
<path d="M3.11133 17.7621C3.11133 18.3233 3.56791 18.7798 4.12918 18.7798H6.11996C6.68123 18.7798 7.13788 18.3233 7.13788 17.7621V15.7716C7.13788 15.2105 6.68129 14.7539 6.11996 14.7539H4.12918C3.56797 14.7539 3.11133 15.2105 3.11133 15.7716V17.7621ZM4.02147 15.7716C4.02147 15.7122 4.06985 15.6639 4.12918 15.6639H6.11996C6.17942 15.6639 6.22774 15.7122 6.22774 15.7716V17.7621C6.22774 17.8215 6.17936 17.8699 6.11996 17.8699H4.12918C4.06979 17.8699 4.02147 17.8215 4.02147 17.7621V15.7716Z" fill="white"/>
<path d="M3.11133 24.2714C3.11133 24.8326 3.56791 25.2891 4.12918 25.2891H6.11996C6.68123 25.2891 7.13788 24.8326 7.13788 24.2714V22.2809C7.13788 21.7197 6.68129 21.2632 6.11996 21.2632H4.12918C3.56797 21.2632 3.11133 21.7197 3.11133 22.2809V24.2714ZM4.02147 22.2809C4.02147 22.2215 4.06985 22.1732 4.12918 22.1732H6.11996C6.17942 22.1732 6.22774 22.2215 6.22774 22.2809V24.2714C6.22774 24.3308 6.17936 24.3791 6.11996 24.3791H4.12918C4.06979 24.3791 4.02147 24.3308 4.02147 24.2714V22.2809Z" fill="white"/>
</g>
<defs>
<clipPath id="clip0_1749_699">
<rect width="31" height="31" fill="white"/>
</clipPath>
</defs>
</svg>
