<svg width="45" height="49" fill="none" xmlns="http://www.w3.org/2000/svg"><g clip-path="url(#clip0_1749_669)" filter="url(#filter0_d_1749_669)" fill="#fff"><path d="M29.31 17.121a3.716 3.716 0 001.108-2.648 3.732 3.732 0 00-3.729-3.728 3.734 3.734 0 00-3.512 2.476 3.723 3.723 0 00-1.354 0 3.735 3.735 0 00-3.513-2.476 3.732 3.732 0 00-3.728 3.728c0 1.035.424 1.972 1.107 2.648a5.346 5.346 0 00-2.694 4.624.6.6 0 001.201 0 4.134 4.134 0 012.648-3.844 3.708 3.708 0 002.144.237c.19.531.497 1.007.89 1.396a5.305 5.305 0 00-2.693 4.624.6.6 0 101.201 0c0-1.657.986-3.145 2.513-3.79a.603.603 0 00.113-.064 3.706 3.706 0 002.954.01 4.136 4.136 0 012.647 3.844.6.6 0 101.201 0 5.35 5.35 0 00-2.693-4.623c.393-.39.7-.865.89-1.397a3.708 3.708 0 002.145-.238 4.134 4.134 0 012.647 3.845.6.6 0 001.201 0 5.345 5.345 0 00-2.693-4.624zm-10.538-.234l.001.07a2.526 2.526 0 11-.463-5.01c1.075 0 2.028.682 2.382 1.68a3.73 3.73 0 00-1.92 3.26zm1.2 0A2.53 2.53 0 0122.5 14.36a2.53 2.53 0 012.527 2.527 2.53 2.53 0 01-2.527 2.527 2.53 2.53 0 01-2.527-2.527zm6.254.07l.002-.07a3.73 3.73 0 00-1.92-3.26 2.531 2.531 0 012.381-1.68 2.53 2.53 0 012.528 2.526 2.53 2.53 0 01-2.99 2.484z"/><path d="M38.054 25.956V15.04a3.239 3.239 0 002.633-3.178 3.238 3.238 0 00-3.234-3.234c-.98 0-1.859.439-2.452 1.13l-9.449-5.456c.118-.334.183-.694.183-1.068A3.238 3.238 0 0022.5 0a3.238 3.238 0 00-3.052 4.302L10 9.758a3.227 3.227 0 00-2.452-1.13 3.238 3.238 0 00-3.235 3.234 3.239 3.239 0 002.634 3.178v10.916a3.239 3.239 0 00-2.634 3.178 3.238 3.238 0 003.235 3.234 3.23 3.23 0 002.45-1.127l9.45 5.457A3.238 3.238 0 0022.5 41a3.238 3.238 0 003.052-4.302l9.451-5.457a3.227 3.227 0 002.45 1.127 3.238 3.238 0 003.234-3.234 3.239 3.239 0 00-2.633-3.178zm-.6-16.127c1.12 0 2.032.912 2.032 2.033s-.912 2.033-2.033 2.033a2.035 2.035 0 01-2.033-2.033c0-1.12.912-2.033 2.033-2.033zM22.5 1.201c1.121 0 2.033.912 2.033 2.033 0 1.12-.91 2.031-2.03 2.033h-.006a2.035 2.035 0 01-2.03-2.033c0-1.12.912-2.033 2.033-2.033zM5.515 11.862c0-1.12.912-2.033 2.033-2.033 1.12 0 2.033.912 2.033 2.033s-.912 2.033-2.033 2.033a2.035 2.035 0 01-2.033-2.033zm2.033 19.305a2.035 2.035 0 01-2.033-2.033c0-1.121.912-2.033 2.033-2.033 1.12 0 2.033.912 2.033 2.033a2.035 2.035 0 01-2.033 2.033zM22.5 39.799a2.035 2.035 0 01-2.032-2.033c0-1.121.912-2.033 2.032-2.033 1.121 0 2.033.912 2.033 2.033 0 1.12-.912 2.033-2.033 2.033zm2.45-4.14a3.233 3.233 0 00-1.849-1.07v-2.314a.6.6 0 10-1.201 0v2.314a3.234 3.234 0 00-1.85 1.07l-9.45-5.457a3.219 3.219 0 000-2.138l2.004-1.157a.6.6 0 00-.601-1.04l-2.006 1.158a3.233 3.233 0 00-1.85-1.069V15.04a3.233 3.233 0 001.85-1.07l2.009 1.16a.597.597 0 00.82-.22.6.6 0 00-.22-.82L10.6 12.931a3.218 3.218 0 00.002-2.133l9.45-5.456a3.234 3.234 0 001.849 1.07v2.313a.6.6 0 101.2 0V6.411a3.234 3.234 0 001.85-1.07l9.45 5.457a3.218 3.218 0 00.001 2.133l-2.007 1.16a.6.6 0 10.6 1.04l2.01-1.16c.468.544 1.115.93 1.849 1.069v10.916a3.233 3.233 0 00-1.85 1.07l-2.005-1.16a.6.6 0 00-.601 1.04l2.004 1.158a3.22 3.22 0 000 2.138l-9.45 5.456zm12.503-4.492a2.035 2.035 0 01-2.033-2.033c0-1.121.912-2.033 2.033-2.033s2.033.912 2.033 2.033a2.035 2.035 0 01-2.033 2.033z"/><path d="M27.53 26.705h-1.787a.6.6 0 100 1.202h1.788a.6.6 0 100-1.202zm0 2.353H17.47a.6.6 0 100 1.2h10.06a.6.6 0 100-1.2zm-10.06-1.151h.008a.6.6 0 000-1.202h-.008a.6.6 0 100 1.202zm2.09 0a.6.6 0 100-1.202h-.01a.6.6 0 100 1.202h.01zm2.08 0a.6.6 0 100-1.202h-.01a.6.6 0 100 1.202h.01z"/></g><defs><clipPath id="clip0_1749_669"><path fill="#fff" transform="translate(2)" d="M0 0h41v41H0z"/></clipPath><filter id="filter0_d_1749_669" x="-2" y="0" width="49" height="49" filterUnits="userSpaceOnUse" color-interpolation-filters="sRGB"><feFlood flood-opacity="0" result="BackgroundImageFix"/><feColorMatrix in="SourceAlpha" values="0 0 0 0 0 0 0 0 0 0 0 0 0 0 0 0 0 0 127 0" result="hardAlpha"/><feOffset dy="4"/><feGaussianBlur stdDeviation="2"/><feComposite in2="hardAlpha" operator="out"/><feColorMatrix values="0 0 0 0 0 0 0 0 0 0 0 0 0 0 0 0 0 0 0.25 0"/><feBlend in2="BackgroundImageFix" result="effect1_dropShadow_1749_669"/><feBlend in="SourceGraphic" in2="effect1_dropShadow_1749_669" result="shape"/></filter></defs></svg>