<svg width="35" height="35" fill="none" xmlns="http://www.w3.org/2000/svg"><path d="M32.083.583h-24.5A2.92 2.92 0 004.667 3.5v22.75H.583a.583.583 0 00-.583.583V28a2.92 2.92 0 002.917 2.917h18.097v2.916a.583.583 0 00.933.467l1.984-1.487 1.983 1.487a.59.59 0 00.611.058.583.583 0 00.322-.525v-2.916h.57A2.92 2.92 0 0030.333 28V5.25h4.084A.583.583 0 0035 4.667V3.5A2.92 2.92 0 0032.083.583zM21.014 29.75H2.917A1.75 1.75 0 011.167 28v-.583h19.847v2.333zm4.667 2.917l-1.4-1.05a.583.583 0 00-.7 0l-1.4 1.05V26.15c.112.01.226.007.338-.006a1.777 1.777 0 002.81 0c.116.014.233.016.35.006l.002 6.516zm.75-9.345a.582.582 0 00-.331.8.607.607 0 01-.806.81.583.583 0 00-.8.331.604.604 0 01-1.14 0 .583.583 0 00-.801-.331.606.606 0 01-.805-.81.583.583 0 00-.331-.8.607.607 0 010-1.144.583.583 0 00.331-.8.606.606 0 01.805-.81.584.584 0 00.8-.331.604.604 0 011.14 0 .584.584 0 00.801.331.606.606 0 01.806.81.582.582 0 00.33.8.608.608 0 010 1.144zm3.274-21.5c-.033.048-.062.097-.093.146-.062.1-.118.203-.168.31-.026.058-.05.111-.073.168-.043.115-.08.232-.109.35-.013.055-.03.107-.04.163-.036.178-.054.36-.055.541V28a1.75 1.75 0 01-1.75 1.75 1.736 1.736 0 01-.57-.107v-4.058a1.75 1.75 0 00.467-1.43 1.782 1.782 0 000-2.81 1.78 1.78 0 00-1.983-1.99 1.777 1.777 0 00-2.81 0 1.78 1.78 0 00-1.983 1.99 1.782 1.782 0 000 2.81c-.069.53.108 1.063.48 1.447v.648H5.832V3.5c0-.966.784-1.75 1.75-1.75H29.75c-.016.023-.029.049-.045.073zm4.128 2.261h-3.5V3.5a1.75 1.75 0 013.5 0v.583z" fill="#fff"/><path d="M19.25 5.25h2.333v1.167H19.25V5.25zm-5.833 0h4.667v1.167h-4.667V5.25zm-1.75 2.917h11.667v1.166H11.667V8.167zm-2.917 3.5h2.917v1.166H8.75v-1.166zm0 2.916h6.417v1.167H8.75v-1.167zm4.083-2.916H26.25v1.166H12.833v-1.166zm3.5 2.916h9.917v1.167h-9.917v-1.167zM8.75 17.5h11.667v1.167H8.75V17.5zm0 2.917h9.917v1.166H8.75v-1.166z" fill="#fff"/></svg>