<svg width="38" height="26" fill="none" xmlns="http://www.w3.org/2000/svg"><path d="M35.34 11.171l-.984-3.936a.595.595 0 00.47-.582V6.02a2.502 2.502 0 00-2.498-2.5h-4.483V2.212c0-.678-.551-1.23-1.23-1.23H3.769c-.678 0-1.23.552-1.23 1.23V13a.595.595 0 101.19 0V2.21a.04.04 0 01.04-.039h22.848a.04.04 0 01.04.04V13a.595.595 0 001.19 0v-.675h7.02c.863 0 1.596.567 1.848 1.348h-1.85a.595.595 0 00-.595.595v1.27c0 1.028.837 1.864 1.865 1.864h.674v2.618h-1.556a3.774 3.774 0 00-3.561-2.539 3.774 3.774 0 00-3.561 2.539h-.287v-4.482a.595.595 0 00-1.19 0v4.482H14.311a3.774 3.774 0 00-3.562-2.539 3.774 3.774 0 00-3.56 2.539h-3.42a.04.04 0 01-.04-.04v-1.309h2.578a.595.595 0 000-1.19H.595a.595.595 0 100 1.19h1.944v1.31a1.23 1.23 0 001.23 1.229h3.213v.04a3.773 3.773 0 003.767 3.768 3.773 3.773 0 003.769-3.769l-.001-.04h13.409l-.001.04a3.773 3.773 0 003.768 3.769 3.773 3.773 0 003.768-3.769v-.04h1.944a.595.595 0 00.595-.594v-6.347a3.138 3.138 0 00-2.66-3.098zM27.845 4.71h4.483a1.31 1.31 0 011.309 1.309v.04h-5.791v-1.35zm0 6.426V7.248h5.288l.971 3.888h-6.258zM10.75 23.829a2.581 2.581 0 01-2.578-2.579 2.581 2.581 0 012.579-2.578 2.581 2.581 0 012.578 2.578 2.581 2.581 0 01-2.579 2.579zm20.944 0a2.581 2.581 0 01-2.578-2.579 2.581 2.581 0 012.578-2.578 2.581 2.581 0 012.578 2.578 2.581 2.581 0 01-2.578 2.579zm5.117-7.616h-.674a.675.675 0 01-.675-.674v-.675h1.349v1.349z" fill="#fff"/></svg>