<svg width="30" height="30" fill="none" xmlns="http://www.w3.org/2000/svg"><g clip-path="url(#clip0_1749_603)" fill="#fff"><path d="M26.117 21.742a3.011 3.011 0 00.736-1.973 3.013 3.013 0 10-6.03 0 3.018 3.018 0 003.015 3.015 3.02 3.02 0 002.28-1.041zm-4.414-1.973a2.134 2.134 0 113.75 1.397 2.134 2.134 0 01-3.75-1.396z"/><path d="M27.9 15.739a5.695 5.695 0 00-3.924-1.698 5.689 5.689 0 00-4.141 1.629 5.687 5.687 0 00-1.727 4.1c0 .744.142 1.47.422 2.157a.44.44 0 00.815-.331 4.82 4.82 0 01-.357-1.826 4.81 4.81 0 011.462-3.47 4.815 4.815 0 013.506-1.38c1.25.03 2.43.54 3.32 1.438a4.823 4.823 0 011.412 3.333 4.81 4.81 0 01-.957 2.973l-2.392 3.298a5.229 5.229 0 00-.883 1.976l-.179.829a.451.451 0 01-.439.353.451.451 0 01-.438-.354l-.18-.828a5.227 5.227 0 00-.882-1.976l-2.066-2.85a.44.44 0 00-.712.517l2.066 2.849c.359.495.606 1.049.735 1.646l.18.828A1.335 1.335 0 0023.837 30c.621 0 1.167-.44 1.299-1.048l.179-.828a4.353 4.353 0 01.735-1.646l2.388-3.294a5.679 5.679 0 001.128-3.507 5.697 5.697 0 00-1.666-3.938zM5.108 7.203a2.5 2.5 0 002.271-3.55.44.44 0 10-.798.37 1.62 1.62 0 01-1.473 2.301A1.624 1.624 0 013.882 3.64a1.621 1.621 0 011.474-.542.44.44 0 10.133-.869 2.5 2.5 0 00-2.882 2.473 2.504 2.504 0 002.5 2.501z"/><path d="M3.266 10.124c.28.387.473.819.574 1.285l.143.664c.114.526.587.908 1.125.908s1.012-.382 1.125-.908l.144-.664c.1-.466.294-.898.574-1.285l1.911-2.636a4.634 4.634 0 00.921-2.862 4.65 4.65 0 00-1.36-3.213A4.648 4.648 0 005.221.028a4.64 4.64 0 00-3.38 1.329A4.64 4.64 0 00.433 4.702c0 1.012.318 1.976.918 2.782l1.915 2.64zm-.81-8.138A3.767 3.767 0 015.2.906a3.772 3.772 0 012.599 1.126A3.774 3.774 0 018.904 4.64a3.766 3.766 0 01-.75 2.328l-1.915 2.64a4.273 4.273 0 00-.722 1.616l-.143.663a.273.273 0 01-.266.214.273.273 0 01-.265-.214l-.143-.663a4.272 4.272 0 00-.722-1.616L2.06 6.964a3.764 3.764 0 01-.748-2.262c0-1.031.406-1.996 1.144-2.716zm22.82 3.051a.44.44 0 10.65.593l.007-.008.03-.034c.334-.385.518-.877.518-1.387a2.119 2.119 0 00-3.711-1.396.44.44 0 10.66.58 1.239 1.239 0 011.87 1.627l-.023.025z"/><path d="M21.049 2.367a.44.44 0 00.614-.1A3.322 3.322 0 0124.443.88c.856.02 1.663.37 2.273.985.61.615.954 1.426.967 2.282a3.297 3.297 0 01-.657 2.038l-.454.627a.44.44 0 10.712.516l.451-.622a4.164 4.164 0 00.828-2.573 4.178 4.178 0 00-1.222-2.887A4.177 4.177 0 0024.463 0a4.204 4.204 0 00-3.515 1.752c-.039.054-.154.33.03.551a.524.524 0 00.07.063zm-.719 23.969a.438.438 0 00-.768-.295c-.28.313-.57.6-.866.855-.62.214-1.256.378-1.902.49.49-1.055.911-2.506 1.233-4.263a.44.44 0 10-.865-.158c-.363 1.98-.866 3.586-1.428 4.56a12.782 12.782 0 01-2.222 0c-.648-1.122-1.183-2.997-1.547-5.29a32.88 32.88 0 005.157.013.44.44 0 00-.066-.877 32.52 32.52 0 01-5.221-.03 47.54 47.54 0 01-.395-5.813h7.132a.44.44 0 00.114-.864 48.606 48.606 0 00-.371-5.737c1.468.172 2.863.445 4.138.808.27.975.468 1.999.584 3.043a.44.44 0 00.874-.097 20.41 20.41 0 00-.468-2.638c1.195.406 2.258.897 3.144 1.462.221.738.374 1.5.455 2.278a.44.44 0 10.875-.09A13.333 13.333 0 0023.6 5.184a13.335 13.335 0 00-8.977-3.463c-1.357 0-2.696.203-3.98.603a.44.44 0 00.262.84 12.398 12.398 0 011.548-.375c-.583 1.257-1.064 3.066-1.396 5.237-.5.055-.996.12-1.484.198a.44.44 0 00.139.869c.402-.065.808-.12 1.22-.169-.071.55-.132 1.118-.184 1.703a.44.44 0 10.877.077c.056-.644.126-1.27.206-1.87a32.196 32.196 0 015.581 0c.238 1.776.377 3.76.394 5.813h-6.365c.006-.7.025-1.4.058-2.086a.44.44 0 00-.878-.043c-.034.7-.053 1.414-.06 2.129H6.09a23.9 23.9 0 01.012-.395.44.44 0 00-.88-.035c-.005.149-.01.291-.012.43H2.145c.04-1.164.241-2.31.6-3.413a.44.44 0 00-.838-.271 13.356 13.356 0 00-.65 4.124c0 3.57 1.391 6.926 3.916 9.45a13.278 13.278 0 009.45 3.915c2.017 0 3.956-.438 5.763-1.302a.44.44 0 00-.056-.815zM18.19 8.028c-.33-2.15-.806-3.968-1.395-5.236a12.42 12.42 0 011.905.493c1.097.945 2.067 2.28 2.81 3.869.235.505.448 1.038.637 1.59a28.106 28.106 0 00-3.958-.716zm7.938 2.2a17.74 17.74 0 00-2.965-1.196 17.187 17.187 0 00-.857-2.25 13.91 13.91 0 00-1.542-2.567 12.496 12.496 0 015.364 6.012zM14.623 7.834c-.897 0-1.786.036-2.66.106.37-2.31.914-4.186 1.55-5.289a12.66 12.66 0 012.222 0c.648 1.121 1.183 2.997 1.547 5.29-.87-.07-1.76-.107-2.659-.107zm-2.17 19.55a12.375 12.375 0 01-1.907-.494c-1.49-1.284-2.675-3.195-3.447-5.458a28.07 28.07 0 003.959.716c.328 2.151.806 3.969 1.394 5.237zm-1.521-6.135a26.414 26.414 0 01-4.14-.809 20.049 20.049 0 01-.704-4.912h4.473c.016 2.025.146 3.967.37 5.721zm-8.786-5.721h3.063c.032 1.597.238 3.15.597 4.605-1.195-.405-2.258-.896-3.144-1.46a12.432 12.432 0 01-.516-3.145zm.977 4.423a17.75 17.75 0 002.962 1.193c.56 1.832 1.372 3.475 2.388 4.807a12.564 12.564 0 01-5.35-6z"/></g><defs><clipPath id="clip0_1749_603"><path fill="#fff" d="M0 0h30v30H0z"/></clipPath></defs></svg>