<svg width="35" height="35" fill="none" xmlns="http://www.w3.org/2000/svg"><path d="M34.337 16.144l-2.446-1.412a.501.501 0 10-.501.868l2.446 1.413c.263.184.209.506-.1.593l-.772.148a11.002 11.002 0 00-5.335 2.665l-.749.68c-.206.21-.524.282-.787.125l-12.865-7.427a.501.501 0 00-.501.868l12.864 7.428c.173.099.357.163.544.195l-1.928 3.34a1.84 1.84 0 01-2.512.673l-5.024-2.9-.001-.001-12.116-6.996a1.84 1.84 0 01-.673-2.511l2.011-3.485c.174.303.425.557.736.736l4.123 2.38a.502.502 0 00.501-.868l-4.123-2.38a.998.998 0 01-.468-.61.998.998 0 01.1-.763l2.19-3.793c.554-1.005 1.934-1.375 2.916-.781l17.599 10.16a.502.502 0 00.501-.868L12.368 3.461a3.116 3.116 0 00-2.38-.314A3.117 3.117 0 008.083 4.61l-5.07 8.783a2.844 2.844 0 001.04 3.88l5.561 3.212v2.72c0 1.206.582 2.278 1.48 2.952l-1.06 2.02a2.596 2.596 0 00-3.428 2.017h-2.47a3.687 3.687 0 00-3.203-3.027.836.836 0 00-.933.83v5.67a.836.836 0 00.933.83 3.687 3.687 0 003.24-3.3h2.465a2.596 2.596 0 003.12 1.944.501.501 0 10-.23-.976 1.59 1.59 0 01-1.954-1.547 1.59 1.59 0 011.59-1.589 1.59 1.59 0 011.538 1.988.501.501 0 00.97.25 2.586 2.586 0 00-.776-2.574l1.074-2.05c.414.162.864.251 1.334.251a3.703 3.703 0 003.42-2.304l4.47 2.58c.658.381 1.428.48 2.156.284a2.821 2.821 0 001.399-.867l2.107 1.217a1.673 1.673 0 002.28-.605c1.492.792 3.482.198 4.298-1.28a3.267 3.267 0 00-1.04-4.361c.256-.404.34-.889.214-1.352a1.661 1.661 0 00-.779-1.015l-.11-.064a9.996 9.996 0 011.433-.387c.771-.1 1.709-.309 1.829-1.227a1.313 1.313 0 00-.644-1.368zM1.003 33.471v-5.28a2.686 2.686 0 012.185 2.64c0 1.3-.927 2.404-2.185 2.64zm11.84-11.123l1.227.709a.772.772 0 11-1.227-.709zm.461 3.543a2.69 2.69 0 01-2.687-2.687v-2.14l1.327.765a1.776 1.776 0 00-.414 1.138c0 .979.796 1.775 1.774 1.775.765 0 1.418-.486 1.667-1.165l.874.504a2.696 2.696 0 01-2.54 1.81zm19.261-.473a2.243 2.243 0 01-1.372 1.052 2.24 2.24 0 01-1.554-.142l2.252-3.9c.96.66 1.267 1.963.675 2.99zm-1.237-5.36a.673.673 0 01.245.915l-3.3 5.716a.67.67 0 01-.915.245l-2.06-1.19 2.25-3.897c.897-.849 1.898-1.703 3.012-2.232l.768.443z" fill="#fff"/><path d="M22.654 16.024a.71.71 0 100-1.42.71.71 0 000 1.42zm2.272 1.254a.71.71 0 100-1.42.71.71 0 000 1.42zM18.668 5.052a.71.71 0 100-1.42.71.71 0 000 1.42zM22.77 8.12a.501.501 0 00.703-.098 6.09 6.09 0 000-7.325.501.501 0 00-.8.606 5.084 5.084 0 010 6.114.501.501 0 00.097.702zm-2.366-1.47c.204.187.52.175.71-.03a3.351 3.351 0 000-4.522.502.502 0 00-.738.68 2.343 2.343 0 010 3.163.501.501 0 00.028.708z" fill="#fff"/></svg>