<svg width="34" height="34" fill="none" xmlns="http://www.w3.org/2000/svg"><path d="M8.766 8.5a.531.531 0 00.53-.531v-4.25a1.595 1.595 0 011.595-1.594h2.921a.531.531 0 000-1.063h-2.921A2.66 2.66 0 008.234 3.72v4.25a.531.531 0 00.532.531zm10.817 15.938a.531.531 0 00-.531-.532h-7.63v-1.05a.531.531 0 00-1.063 0v1.581a.53.53 0 00.532.532h8.16a.53.53 0 00.532-.532z" fill="#fff"/><path d="M29.898 16.662l-3.601-3.6V3.718a2.66 2.66 0 00-2.656-2.656h-7.172a.531.531 0 100 1.062h7.172a1.596 1.596 0 011.593 1.594v14.875a.531.531 0 101.063 0v-4.03l2.85 2.85a4.75 4.75 0 011.4 3.38v11.081H19.922v-4.178a2.732 2.732 0 012.729-2.728.532.532 0 00.375-.907l-4.47-4.47a1.86 1.86 0 112.63-2.63l6.061 6.062a.531.531 0 00.751-.751l-3.826-3.827V3.719a.531.531 0 00-.531-.531h-2.657a.531.531 0 00-.53.53.532.532 0 01-.532.532h-5.313a.532.532 0 01-.53-.531.53.53 0 00-.532-.531H10.89a.531.531 0 00-.532.53v5.313H3.984a1.595 1.595 0 00-1.593 1.594v9.563a1.595 1.595 0 001.593 1.593h4.25v4.782a2.66 2.66 0 002.657 2.656h7.968v3.187a.531.531 0 00.532.532h11.687a.532.532 0 00.531-.532V20.794a5.805 5.805 0 00-1.711-4.132zM3.984 10.094h17v1.062H3.454v-.531a.532.532 0 01.53-.531zm13.282 18.062H10.89a1.595 1.595 0 01-1.594-1.593V21.78h7.991a.532.532 0 100-1.062H3.984a.532.532 0 01-.53-.532v-4.78H17.82a.531.531 0 100-1.063H3.453v-2.125h17.531v2.656a.531.531 0 101.063 0V7.969a.531.531 0 00-1.063 0V9.03h-9.562V4.25h1.685a1.597 1.597 0 001.502 1.063h5.313a1.596 1.596 0 001.503-1.063h1.684v13.134l-1.172-1.173a2.922 2.922 0 10-4.132 4.132l3.73 3.73a3.799 3.799 0 00-2.676 3.624v.46h-1.593z" fill="#fff"/><path d="M7.703 16.469H5.047a.531.531 0 00-.531.531v2.125a.532.532 0 00.53.531h2.657a.531.531 0 00.531-.531V17a.532.532 0 00-.53-.531zm-.531 2.125H5.578V17.53h1.594v1.063zm11.688 7.969a1.594 1.594 0 10-3.188 0 1.594 1.594 0 003.187 0zm-1.594.53a.531.531 0 110-1.061.531.531 0 010 1.062z" fill="#fff"/></svg>