<svg width="31" height="31" fill="none" xmlns="http://www.w3.org/2000/svg"><g clip-path="url(#clip0_1749_699)" fill="#fff"><path d="M18.528 19.535a1.4 1.4 0 001.01-.426l2.38-2.44a1.413 1.413 0 00-.025-1.995 1.413 1.413 0 00-1.995.025L18.5 16.13l-.244-.238a1.413 1.413 0 00-1.996.028 1.413 1.413 0 00.028 1.996l1.255 1.22c.265.258.614.4.984.4zm-1.614-2.98a.502.502 0 01.708-.01l.57.554c.18.175.468.172.644-.008l1.713-1.757a.502.502 0 01.718.7l-2.38 2.44a.504.504 0 01-.709.01l-1.255-1.22a.502.502 0 01-.01-.71z"/><path d="M15.01 19.845a.455.455 0 00-.726.548c.165.22.349.43.545.626a5.885 5.885 0 004.188 1.735c1.582 0 3.07-.616 4.189-1.735a5.884 5.884 0 001.735-4.188c0-1.582-.616-3.07-1.735-4.188a5.931 5.931 0 00-8.377 0 5.905 5.905 0 00-1.455 5.994.455.455 0 00.867-.277 4.998 4.998 0 011.231-5.074 5.02 5.02 0 017.09 0 4.98 4.98 0 011.469 3.545 4.98 4.98 0 01-1.469 3.545 4.98 4.98 0 01-3.545 1.468 4.982 4.982 0 01-3.545-1.468 5.088 5.088 0 01-.462-.531z"/><path d="M30.373 25.143l-2.87-2.87a.455.455 0 00-.644 0l-.018.018-1.105-1.105a7.993 7.993 0 001.272-3.849.455.455 0 00-.908-.057 7.088 7.088 0 01-7.077 6.644h-.043a7.075 7.075 0 01-4.982-2.075 7.05 7.05 0 01-2.08-5.018 7.05 7.05 0 012.08-5.018 7.106 7.106 0 0110.037 0 7.053 7.053 0 011.968 3.76.455.455 0 00.895-.161 7.96 7.96 0 00-2.22-4.243 7.983 7.983 0 00-1.903-1.409V6.093a.46.46 0 00-.133-.322L17.002.133a.461.461 0 00-.32-.133H1.364C.612 0 0 .612 0 1.365v3.824a.455.455 0 00.91 0V1.365c0-.25.204-.455.455-.455h14.862v4.273c0 .753.612 1.365 1.365 1.365h4.274v2.8a8.04 8.04 0 00-2.762-.52H8.93a.455.455 0 100 .91h6.371a7.963 7.963 0 00-1.815 1.303H8.93a.455.455 0 100 .91h3.737a7.92 7.92 0 00-1.493 3.253H8.93a.455.455 0 100 .91h2.11a8.168 8.168 0 00-.01 1.306h-2.1a.455.455 0 000 .91h2.219a7.92 7.92 0 001.52 3.383H8.93a.455.455 0 100 .91h4.558a7.976 7.976 0 001.812 1.301H8.93a.455.455 0 100 .91h10.086c.967 0 1.933-.174 2.849-.52v5.321a.455.455 0 01-.455.455H1.364a.456.456 0 01-.455-.455V7.01a.455.455 0 00-.91 0v22.625c0 .753.613 1.365 1.365 1.365H21.41c.752 0 1.365-.612 1.365-1.365v-5.734c.203-.107.402-.225.597-.351l1.105 1.104a.459.459 0 00-.018.661l2.871 2.871c.8.835 2.242.834 3.043 0 .835-.8.835-2.242 0-3.043zM17.591 5.638a.456.456 0 01-.455-.455v-3.63l4.085 4.085h-3.63zm6.523 17.367a8.074 8.074 0 001.078-1.077l1.005 1.006-1.077 1.077-1.006-1.006zm5.616 4.538c-.463.481-1.294.481-1.756 0l-2.55-2.55 1.756-1.755 2.55 2.549c.481.462.481 1.293 0 1.756z"/><path d="M4.13 12.4h1.99c.561 0 1.018-.456 1.018-1.018v-1.99A1.02 1.02 0 006.12 8.374H4.13a1.02 1.02 0 00-1.019 1.018v1.99c0 .562.457 1.018 1.018 1.018zm-.11-3.008c0-.06.049-.108.108-.108H6.12c.06 0 .108.049.108.108v1.99c0 .06-.049.108-.108.108H4.13a.108.108 0 01-.109-.107V9.392zm-.909 8.37a1.02 1.02 0 001.018 1.018H6.12a1.02 1.02 0 001.018-1.018v-1.99c0-.562-.457-1.018-1.018-1.018H4.13a1.02 1.02 0 00-1.019 1.018v1.99zm.91-1.99c0-.06.049-.108.108-.108H6.12c.06 0 .108.048.108.108v1.99c0 .06-.049.108-.108.108H4.13a.108.108 0 01-.109-.108v-1.99zm-.91 8.499c0 .562.457 1.018 1.018 1.018H6.12c.561 0 1.018-.456 1.018-1.018v-1.99a1.02 1.02 0 00-1.018-1.018H4.13a1.02 1.02 0 00-1.019 1.018v1.99zm.91-1.99c0-.06.049-.108.108-.108H6.12c.06 0 .108.049.108.108v1.99c0 .06-.049.108-.108.108H4.13a.108.108 0 01-.109-.108v-1.99z"/></g><defs><clipPath id="clip0_1749_699"><path fill="#fff" d="M0 0h31v31H0z"/></clipPath></defs></svg>