<svg width="30" height="30" viewBox="0 0 30 30" fill="none" xmlns="http://www.w3.org/2000/svg">
<g clip-path="url(#clip0_1749_603)">
<path d="M26.1172 21.7425C26.5916 21.1955 26.8528 20.4948 26.8528 19.7695C26.8528 18.107 25.5004 16.7544 23.838 16.7544C22.9627 16.7544 22.1319 17.1342 21.5587 17.7963C21.0844 18.3437 20.8232 19.0445 20.8232 19.7695C20.8232 21.4319 22.1756 22.7843 23.838 22.7843C24.7135 22.7842 25.5443 22.4045 26.1172 21.7425ZM21.7029 19.7695C21.7029 19.256 21.8877 18.7597 22.2235 18.3723C22.2235 18.3722 22.2236 18.3721 22.2236 18.3721C22.6297 17.903 23.2181 17.634 23.838 17.634C25.0154 17.634 25.9732 18.592 25.9732 19.7696C25.9732 20.2832 25.7884 20.7793 25.4524 21.1667C25.0464 21.6358 24.4579 21.9048 23.838 21.9048C22.6607 21.9047 21.7029 20.9469 21.7029 19.7695Z" fill="white"/>
<path d="M27.9009 15.7388C26.8494 14.6788 25.4556 14.0759 23.9764 14.0411C22.4183 14.0044 20.948 14.5829 19.8349 15.67C18.7216 16.7575 18.1084 18.2133 18.1084 19.7695C18.1084 20.5139 18.2503 21.2399 18.53 21.9272C18.6216 22.1521 18.8782 22.2602 19.1031 22.1687C19.3281 22.0771 19.4363 21.8205 19.3447 21.5956C19.108 21.0141 18.988 20.3997 18.988 19.7695C18.988 18.4522 19.507 17.2198 20.4495 16.2993C21.3917 15.379 22.6374 14.8888 23.9557 14.9204C25.2065 14.9498 26.3859 15.4605 27.2765 16.3583C28.167 17.256 28.6684 18.4396 28.6882 19.6908C28.7053 20.7701 28.3752 21.7967 27.7305 22.664L25.339 25.9616C24.9081 26.5559 24.611 27.221 24.456 27.9383L24.277 28.7666C24.2326 28.9717 24.0482 29.1204 23.8385 29.1204C23.6287 29.1204 23.4443 28.9716 23.4 28.7665L23.2209 27.9383C23.0659 27.2209 22.7688 26.5558 22.3378 25.9615L20.2716 23.1124C20.129 22.9158 19.854 22.872 19.6573 23.0146C19.4607 23.1572 19.4169 23.4322 19.5595 23.6289L21.6258 26.4779C21.9847 26.9728 22.2321 27.5266 22.3612 28.1241L22.5402 28.9524C22.6713 29.5595 23.2173 30 23.8383 30C24.4594 30 25.0054 29.5594 25.1365 28.9524L25.3156 28.1241C25.4446 27.5267 25.692 26.9729 26.0509 26.4779L28.4393 23.1845C29.1976 22.1644 29.5877 20.9515 29.5675 19.6768C29.5442 18.1972 28.9523 16.7987 27.9009 15.7388Z" fill="white"/>
<path d="M5.10793 7.20329C5.83426 7.20329 6.52367 6.88811 6.99904 6.33897C7.39262 5.88499 7.60941 5.30362 7.60941 4.70181C7.60941 4.33665 7.53189 3.98386 7.37896 3.65315C7.27701 3.43267 7.01562 3.33657 6.79525 3.43853C6.57477 3.54042 6.47873 3.80181 6.58063 4.02224C6.67959 4.2364 6.72986 4.46509 6.72986 4.70181C6.72986 5.09192 6.58941 5.46874 6.33424 5.763C6.0258 6.11931 5.57885 6.32374 5.10793 6.32374C4.21361 6.32374 3.48605 5.59618 3.48605 4.70187C3.48605 4.31181 3.6265 3.93481 3.88168 3.64038C4.19012 3.28407 4.63707 3.07964 5.10799 3.07964C5.19107 3.07964 5.27445 3.08597 5.3559 3.09839C5.59602 3.1353 5.82037 2.9703 5.85711 2.73019C5.89385 2.49013 5.72902 2.26565 5.48891 2.22898C5.36357 2.20982 5.23543 2.20009 5.10793 2.20009C4.3816 2.20009 3.69219 2.51526 3.2167 3.06458C2.82318 3.5188 2.60645 4.10028 2.60645 4.70187C2.6065 6.0811 3.72863 7.20329 5.10793 7.20329Z" fill="white"/>
<path d="M3.26563 10.1244C3.54582 10.5107 3.73895 10.943 3.83973 11.4094L3.98305 12.0727C4.09672 12.5988 4.56986 12.9806 5.10816 12.9806C5.64646 12.9806 6.11961 12.5988 6.23328 12.0727L6.3766 11.4095C6.47738 10.943 6.67057 10.5107 6.9507 10.1245L8.86244 7.48835C9.48119 6.65608 9.79953 5.66632 9.78307 4.62616C9.76396 3.41878 9.28103 2.27755 8.42316 1.41282C7.56512 0.547975 6.42787 0.0560221 5.22072 0.0275455C3.94947 -0.00263024 2.74971 0.469694 1.84145 1.35674C0.933008 2.24403 0.432617 3.43196 0.432617 4.70169C0.432617 5.71407 0.751191 6.6777 1.35084 7.48419L3.26563 10.1244ZM2.45604 1.98592C3.17135 1.28725 4.10967 0.905749 5.10752 0.905749C5.13816 0.905749 5.16916 0.9061 5.19992 0.906862C6.17867 0.929889 7.10158 1.32956 7.79861 2.03221C8.49564 2.73487 8.88805 3.66094 8.90352 4.64005C8.91688 5.48473 8.65854 6.28817 8.15346 6.96774L6.23867 9.60798C5.88652 10.0936 5.64365 10.6372 5.51691 11.2236L5.37359 11.8868C5.34676 12.011 5.23514 12.101 5.10822 12.101C4.98131 12.101 4.86963 12.011 4.84285 11.8869L4.69953 11.2236C4.57279 10.6373 4.32998 10.0937 3.97771 9.60803L2.05988 6.96358C1.57086 6.30575 1.31234 5.52358 1.31234 4.70169C1.31217 3.67085 1.71846 2.70633 2.45604 1.98592Z" fill="white"/>
<path d="M25.276 5.03695C25.1121 5.21624 25.1247 5.49445 25.304 5.65828C25.3883 5.73538 25.4945 5.77335 25.6005 5.77335C25.7197 5.77335 25.8386 5.72513 25.9253 5.63021L25.9329 5.62201C25.9435 5.61058 25.9541 5.5991 25.9637 5.58785C26.2971 5.20341 26.4806 4.71105 26.4806 4.20146C26.4806 3.03334 25.5304 2.08295 24.3624 2.08295C23.7523 2.08295 23.1716 2.34638 22.7691 2.80576C22.6091 2.98845 22.6274 3.26631 22.8101 3.42632C22.9928 3.5864 23.2707 3.56806 23.4308 3.38531C23.6662 3.1166 24.0058 2.96244 24.3624 2.96244C25.0454 2.96244 25.6011 3.51826 25.6011 4.2014C25.6011 4.49935 25.4939 4.78705 25.2987 5.01222L25.276 5.03695Z" fill="white"/>
<path d="M21.0488 2.36707C21.246 2.50881 21.5209 2.46369 21.6626 2.26647C22.3045 1.37274 23.3438 0.853597 24.4422 0.880492C25.2986 0.900648 26.1062 1.25045 26.7163 1.86534C27.3263 2.48028 27.6697 3.29075 27.6833 4.14744C27.6949 4.88661 27.4689 5.58979 27.0265 6.18504L26.5719 6.81194C26.4292 7.00852 26.4731 7.2835 26.6697 7.42612C26.7476 7.48272 26.8379 7.50991 26.9274 7.50991C27.0635 7.50991 27.1978 7.44686 27.2838 7.32827L27.7354 6.70553C28.2913 5.95758 28.5775 5.06819 28.5626 4.1335C28.5455 3.04846 28.1115 2.02289 27.3407 1.24588C26.5697 0.468812 25.5477 0.0267223 24.4628 0.00117542C23.0735 -0.0311683 21.7598 0.623441 20.9482 1.75336C20.9094 1.80744 20.7941 2.08295 20.9789 2.30438C20.9995 2.32723 21.0227 2.34838 21.0488 2.36707Z" fill="white"/>
<path d="M20.3298 26.3358C20.3304 26.2139 20.2812 26.0924 20.1831 26.005C20.0018 25.8434 19.7238 25.8593 19.5622 26.0406C19.2829 26.3538 18.9917 26.6409 18.6958 26.8956C18.0752 27.1103 17.4405 27.2737 16.7942 27.3867C17.2846 26.3314 17.7053 24.8803 18.0267 23.1233C18.0705 22.8844 17.9121 22.6553 17.6733 22.6116C17.4347 22.5679 17.2053 22.7261 17.1616 22.9651C16.7993 24.9453 16.2957 26.551 15.734 27.5253C15.3669 27.5573 14.9967 27.5742 14.6235 27.5742C14.2489 27.5742 13.8784 27.5566 13.5122 27.5241C12.8643 26.4032 12.3292 24.5284 11.965 22.2349C12.8355 22.3056 13.7245 22.3421 14.6235 22.3421C15.456 22.3421 16.2965 22.3106 17.1216 22.2484C17.3638 22.2301 17.5454 22.019 17.5271 21.7768C17.5088 21.5346 17.2973 21.3535 17.0556 21.3713C16.2524 21.4318 15.4342 21.4625 14.6235 21.4625C13.6779 21.4625 12.7448 21.4209 11.8346 21.3415C11.5973 19.5649 11.458 17.5814 11.4405 15.5277H18.5723C18.8152 15.5277 19.0121 15.3308 19.0121 15.0879C19.0121 14.8845 18.8738 14.7138 18.6862 14.6636C18.6703 12.6328 18.5404 10.6857 18.315 8.92658C19.7828 9.09867 21.1781 9.37201 22.4528 9.73512C22.7234 10.7104 22.9211 11.734 23.0366 12.7776C23.0615 13.0026 23.252 13.169 23.4732 13.169C23.4893 13.169 23.5056 13.1681 23.5221 13.1663C23.7635 13.1396 23.9375 12.9222 23.9108 12.6808C23.8114 11.7828 23.6535 10.8982 23.4426 10.0433C24.6377 10.4493 25.7012 10.9401 26.587 11.5048C26.808 12.2435 26.9613 13.0058 27.042 13.783C27.0654 14.0092 27.2564 14.1774 27.4789 14.1774C27.494 14.1774 27.5094 14.1766 27.5249 14.175C27.7664 14.1499 27.9419 13.9338 27.9169 13.6922C27.5776 10.4235 26.0444 7.40215 23.5998 5.18491C21.1379 2.9519 17.95 1.72208 14.6235 1.72208C13.2664 1.72208 11.9273 1.92493 10.6433 2.32495C10.4114 2.39719 10.282 2.64376 10.3542 2.87567C10.4264 3.10752 10.6728 3.23678 10.9049 3.16477C11.4125 3.00663 11.9294 2.88188 12.453 2.79012C11.8698 4.04661 11.3888 5.85621 11.0574 8.02705C10.5565 8.08196 10.0606 8.14717 9.57279 8.22533C9.33297 8.26377 9.16973 8.48936 9.20816 8.72918C9.2466 8.96906 9.47219 9.13201 9.71201 9.09381C10.1136 9.02942 10.5203 8.97334 10.9312 8.92524C10.8609 9.47414 10.7996 10.0426 10.7484 10.6281C10.7271 10.8701 10.9061 11.0835 11.148 11.1046C11.1611 11.1058 11.174 11.1063 11.1869 11.1063C11.4125 11.1063 11.6045 10.9338 11.6245 10.7049C11.681 10.0606 11.7505 9.43582 11.8313 8.83465C12.7468 8.7549 13.6797 8.71324 14.6235 8.71324C15.5691 8.71324 16.5021 8.75485 17.4123 8.83424C17.6497 10.6109 17.789 12.5944 17.8064 14.6481H11.4412C11.447 13.9476 11.4658 13.2478 11.4991 12.5619C11.5108 12.3193 11.3237 12.1131 11.0811 12.1014C10.8375 12.0903 10.6323 12.2768 10.6206 12.5193C10.5867 13.2193 10.5675 13.9334 10.5617 14.648H6.08869C6.09156 14.5204 6.09549 14.3895 6.10082 14.2528C6.11031 14.0101 5.92129 13.8057 5.67859 13.7961C5.43701 13.7857 5.23141 13.9756 5.22191 14.2184C5.21611 14.3669 5.21178 14.5093 5.20879 14.648H2.14533C2.18582 13.4842 2.38639 12.338 2.7441 11.2346C2.81898 11.0036 2.69236 10.7556 2.46133 10.6807C2.23023 10.6058 1.98227 10.7324 1.90738 10.9635C1.47637 12.2934 1.25781 13.6809 1.25781 15.0878C1.25781 18.6579 2.64807 22.0143 5.17252 24.5388C7.69703 27.0633 11.0534 28.4535 14.6236 28.4535C16.6403 28.4535 18.5789 28.0151 20.3857 27.1506C20.6048 27.0458 20.6974 26.7831 20.5926 26.5641C20.5381 26.4506 20.4411 26.3714 20.3298 26.3358ZM18.1891 8.02822C17.8609 5.87713 17.3835 4.05991 16.7949 2.79188C17.4437 2.90596 18.0804 3.07102 18.6998 3.28471C19.7968 4.22995 20.7672 5.56518 21.5091 7.15354C21.7454 7.65938 21.9583 8.19182 22.147 8.74436C20.91 8.42344 19.5784 8.18156 18.1891 8.02822ZM26.1278 10.2276C25.2486 9.76875 24.2512 9.3675 23.1634 9.0317C22.9227 8.24356 22.6362 7.48817 22.306 6.78135C21.8644 5.83571 21.3438 4.9725 20.7643 4.2153C21.5637 4.66741 22.3172 5.20928 23.0088 5.83664C24.3693 7.07057 25.4274 8.57086 26.1278 10.2276ZM14.6235 7.83387C13.7257 7.83387 12.8368 7.87008 11.9627 7.94045C12.3323 5.63051 12.8765 3.75387 13.5132 2.65102C13.8813 2.61862 14.2516 2.6018 14.6235 2.6018C14.996 2.6018 15.3666 2.61874 15.7345 2.65143C16.3825 3.77239 16.9177 5.6475 17.282 7.94145C16.4114 7.87078 15.5225 7.83387 14.6235 7.83387ZM12.4523 27.3849C11.7979 27.2697 11.161 27.103 10.5457 26.8898C9.05506 25.6056 7.87141 23.695 7.09873 21.4321C8.33594 21.753 9.6683 21.9945 11.0579 22.1478C11.3861 24.2993 11.8637 26.1168 12.4523 27.3849ZM10.9319 21.2494C9.46322 21.0772 8.06723 20.8036 6.79193 20.4402C6.36818 18.9094 6.12391 17.2471 6.08822 15.5278H10.5609C10.5774 17.553 10.7072 19.4947 10.9319 21.2494ZM2.14586 15.5278H5.20867C5.24072 17.1248 5.44668 18.6782 5.80562 20.133C4.61119 19.7275 3.54818 19.237 2.66248 18.6728C2.36184 17.6711 2.18377 16.6171 2.14586 15.5278ZM3.12314 19.9507C4.00158 20.4088 4.99867 20.809 6.08523 21.1443C6.64551 22.9764 7.45703 24.6188 8.47305 25.9509C6.09432 24.5989 4.20033 22.4887 3.12314 19.9507Z" fill="white"/>
</g>
<defs>
<clipPath id="clip0_1749_603">
<rect width="30" height="30" fill="white"/>
</clipPath>
</defs>
</svg>
