<svg width="45" height="49" viewBox="0 0 45 49" fill="none" xmlns="http://www.w3.org/2000/svg">
<g clip-path="url(#clip0_1749_669)" filter="url(#filter0_d_1749_669)">
<path d="M29.3107 17.1214C29.9939 16.4452 30.4179 15.5078 30.4179 14.4729C30.4179 12.4175 28.7453 10.7453 26.6894 10.7453C25.1052 10.7453 23.7011 11.7496 23.1769 13.2212C22.9571 13.1806 22.7311 13.1584 22.4997 13.1584C22.2684 13.1584 22.0424 13.1806 21.8226 13.2212C21.2983 11.7495 19.8941 10.7453 18.31 10.7453C16.2542 10.7453 14.5816 12.4175 14.5816 14.4729C14.5816 15.5078 15.0056 16.4452 15.6888 17.1214C14.0501 18.0549 12.9951 19.8225 12.9951 21.745C12.9951 22.0767 13.264 22.3456 13.5957 22.3456C13.9274 22.3456 14.1963 22.0767 14.1963 21.745C14.1963 20.0471 15.2593 18.5052 16.8438 17.9006C17.2941 18.0939 17.7897 18.2014 18.3101 18.2014C18.5393 18.2014 18.7662 18.1793 18.9884 18.1383C19.1782 18.6693 19.4849 19.145 19.8778 19.5342C18.2242 20.4704 17.185 22.225 17.185 24.1583C17.185 24.4901 17.4539 24.7589 17.7856 24.7589C18.1173 24.7589 18.3862 24.4901 18.3862 24.1583C18.3862 22.5012 19.3724 21.0133 20.8987 20.3677C20.9395 20.3504 20.9773 20.3289 21.012 20.3043C21.4681 20.5036 21.971 20.6149 22.4997 20.6149C23.0202 20.6149 23.5159 20.5074 23.9663 20.3139C25.55 20.9186 26.6133 22.462 26.6133 24.1583C26.6133 24.4901 26.8822 24.7589 27.2139 24.7589C27.5455 24.7589 27.8145 24.4901 27.8145 24.1583C27.8145 22.2376 26.7593 20.4685 25.121 19.5347C25.5142 19.1455 25.8211 18.6696 26.0111 18.1383C26.2333 18.1793 26.4602 18.2014 26.6893 18.2014C27.2097 18.2014 27.7053 18.0939 28.1556 17.9006C29.74 18.5052 30.8031 20.0469 30.8031 21.745C30.8031 22.0767 31.072 22.3456 31.4037 22.3456C31.7353 22.3456 32.0042 22.0767 32.0042 21.745C32.0044 19.8224 30.9494 18.0549 29.3107 17.1214ZM18.7716 16.8867C18.7716 16.9103 18.7729 16.9335 18.7733 16.957C18.6221 16.9852 18.4671 17.0002 18.3101 17.0002C16.9166 17.0002 15.7828 15.8666 15.7828 14.4729C15.7828 13.0799 16.9166 11.9465 18.3101 11.9465C19.3852 11.9465 20.3376 12.6287 20.692 13.6276C19.5477 14.2648 18.7716 15.4866 18.7716 16.8867ZM19.9728 16.8867C19.9728 15.4933 21.1064 14.3596 22.4998 14.3596C23.8932 14.3596 25.0268 15.4932 25.0268 16.8867C25.0268 18.2801 23.8932 19.4137 22.4998 19.4137C21.1064 19.4137 19.9728 18.28 19.9728 16.8867ZM26.2262 16.957C26.2266 16.9335 26.2279 16.9102 26.2279 16.8867C26.2279 15.4866 25.4518 14.2649 24.3075 13.6276C24.6619 12.6287 25.6143 11.9465 26.6894 11.9465C28.083 11.9465 29.2167 13.0799 29.2167 14.473C29.2167 15.8666 28.083 17.0003 26.6894 17.0003C26.5324 17.0002 26.3774 16.9852 26.2262 16.957Z" fill="white"/>
<path d="M38.0541 25.9564V15.0396C39.5512 14.757 40.6873 13.4402 40.6873 11.8623C40.6873 10.0789 39.2366 8.62815 37.4532 8.62815C36.4731 8.62815 35.5941 9.06698 35.0006 9.75774L25.5523 4.30238C25.6698 3.96773 25.7345 3.60834 25.7345 3.23397C25.7345 1.45078 24.2837 0 22.5004 0C20.7172 0 19.2663 1.45078 19.2663 3.23405C19.2663 3.60842 19.3309 3.96773 19.4485 4.30246L10.0003 9.75774C9.40672 9.06698 8.52769 8.62815 7.54761 8.62815C5.76426 8.62815 4.31348 10.0789 4.31348 11.8623C4.31348 13.4402 5.44963 14.757 6.9467 15.0396V25.9564C5.44963 26.2389 4.31348 27.5558 4.31348 29.1337C4.31348 30.9171 5.76426 32.3678 7.54761 32.3678C8.52617 32.3678 9.40391 31.9304 9.99745 31.2415L19.4484 36.6979C19.3309 37.0324 19.2663 37.3917 19.2663 37.7659C19.2663 39.5493 20.7171 41.0001 22.5004 41.0001C24.2838 41.0001 25.7346 39.5493 25.7346 37.7659C25.7346 37.3917 25.67 37.0324 25.5525 36.6979L35.0034 31.2415C35.597 31.9305 36.4747 32.3678 37.4533 32.3678C39.2366 32.3678 40.6874 30.9171 40.6874 29.1337C40.6873 27.5557 39.5511 26.2389 38.0541 25.9564ZM37.4532 9.82933C38.5741 9.82933 39.4862 10.7413 39.4862 11.8623C39.4862 12.9832 38.5741 13.8952 37.4532 13.8952C36.3323 13.8952 35.4202 12.9832 35.4202 11.8623C35.4202 10.7413 36.3323 9.82933 37.4532 9.82933ZM22.5004 1.20118C23.6214 1.20118 24.5334 2.11311 24.5334 3.23405C24.5334 4.35395 23.6231 5.26525 22.5036 5.26693C22.5025 5.26693 22.5015 5.26677 22.5004 5.26677C22.4994 5.26677 22.4984 5.26693 22.4973 5.26693C21.3778 5.26525 20.4675 4.35395 20.4675 3.23405C20.4675 2.11311 21.3794 1.20118 22.5004 1.20118ZM5.51466 11.8623C5.51466 10.7413 6.42667 9.82933 7.54761 9.82933C8.66855 9.82933 9.58057 10.7413 9.58057 11.8623C9.58057 12.9832 8.66855 13.8952 7.54761 13.8952C6.42667 13.8952 5.51466 12.9832 5.51466 11.8623ZM7.54761 31.1666C6.42667 31.1666 5.51466 30.2546 5.51466 29.1336C5.51466 28.0127 6.42667 27.1007 7.54761 27.1007C8.66855 27.1007 9.58057 28.0127 9.58057 29.1336C9.58057 30.2546 8.66855 31.1666 7.54761 31.1666ZM22.5004 39.7988C21.3795 39.7988 20.4675 38.8868 20.4675 37.7659C20.4675 36.6449 21.3795 35.7329 22.5004 35.7329C23.6214 35.7329 24.5334 36.6449 24.5334 37.7659C24.5334 38.8868 23.6214 39.7988 22.5004 39.7988ZM24.9504 35.6584C24.4814 35.1138 23.8348 34.727 23.101 34.5886V32.2748C23.101 31.943 22.8321 31.6742 22.5004 31.6742C22.1687 31.6742 21.8998 31.943 21.8998 32.2748V34.5886C21.166 34.727 20.5194 35.1138 20.0503 35.6584L10.5995 30.2021C10.717 29.8674 10.7817 29.5081 10.7817 29.1337C10.7817 28.759 10.7169 28.3993 10.5992 28.0643L12.6035 26.9068C12.8908 26.7409 12.9891 26.3736 12.8233 26.0863C12.6574 25.7991 12.2901 25.7008 12.0028 25.8666L9.99665 27.0252C9.52763 26.4811 8.88124 26.0946 8.1478 25.9564V15.0396C8.88148 14.9013 9.52803 14.5146 9.99705 13.9703L12.0059 15.1304C12.1005 15.1851 12.2038 15.211 12.3057 15.211C12.5132 15.211 12.7151 15.1033 12.8263 14.9107C12.9922 14.6235 12.8938 14.2561 12.6066 14.0902L10.5992 12.931C10.7168 12.5962 10.7815 12.2367 10.7815 11.8623C10.7815 11.4894 10.7174 11.1315 10.6007 10.798L20.0503 5.3418C20.5193 5.88618 21.1659 6.27296 21.8995 6.41133V8.72536C21.8995 9.05713 22.1684 9.32595 22.5001 9.32595C22.8318 9.32595 23.1007 9.05713 23.1007 8.72536V6.41133C23.8344 6.27296 24.481 5.88618 24.95 5.3418L34.3996 10.798C34.283 11.1315 34.2187 11.4894 34.2187 11.8623C34.2187 12.2367 34.2834 12.5962 34.401 12.931L32.3937 14.0902C32.1064 14.2561 32.008 14.6235 32.1739 14.9107C32.2852 15.1033 32.487 15.211 32.6945 15.211C32.7964 15.211 32.8998 15.1851 32.9943 15.1304L35.0032 13.9703C35.4723 14.5146 36.1189 14.9013 36.8525 15.0396V25.9564C36.119 26.0946 35.4727 26.4811 35.0036 27.0252L32.9975 25.8666C32.7102 25.701 32.3429 25.7991 32.177 26.0863C32.0111 26.3736 32.1095 26.7409 32.3967 26.9068L34.4011 28.0643C34.2834 28.3993 34.2186 28.759 34.2186 29.1337C34.2186 29.5081 34.2832 29.8675 34.4008 30.2021L24.9504 35.6584ZM37.4532 31.1666C36.3323 31.1666 35.4202 30.2546 35.4202 29.1336C35.4202 28.0127 36.3323 27.1007 37.4532 27.1007C38.5741 27.1007 39.4862 28.0127 39.4862 29.1336C39.4862 30.2546 38.5741 31.1666 37.4532 31.1666Z" fill="white"/>
<path d="M27.5305 26.7054H25.7432C25.4115 26.7054 25.1426 26.9742 25.1426 27.306C25.1426 27.6378 25.4115 27.9066 25.7432 27.9066H27.5305C27.8622 27.9066 28.1311 27.6378 28.1311 27.306C28.1311 26.9742 27.8622 26.7054 27.5305 26.7054Z" fill="white"/>
<path d="M27.5305 29.0577H17.4697C17.138 29.0577 16.8691 29.3265 16.8691 29.6583C16.8691 29.9901 17.138 30.2589 17.4697 30.2589H27.5306C27.8623 30.2589 28.1312 29.9901 28.1312 29.6583C28.1312 29.3265 27.8622 29.0577 27.5305 29.0577Z" fill="white"/>
<path d="M17.4697 27.9066H17.4781C17.8097 27.9066 18.0786 27.6378 18.0786 27.306C18.0786 26.9742 17.8097 26.7054 17.4781 26.7054H17.4697C17.138 26.7054 16.8691 26.9742 16.8691 27.306C16.8691 27.6378 17.138 27.9066 17.4697 27.9066Z" fill="white"/>
<path d="M19.5591 27.9066C19.8908 27.9066 20.1597 27.6378 20.1597 27.306C20.1597 26.9742 19.8908 26.7054 19.5591 26.7054H19.5508C19.2191 26.7054 18.9502 26.9742 18.9502 27.306C18.9502 27.6378 19.2191 27.9066 19.5508 27.9066H19.5591Z" fill="white"/>
<path d="M21.6392 27.9066C21.9709 27.9066 22.2398 27.6378 22.2398 27.306C22.2398 26.9742 21.9709 26.7054 21.6392 26.7054H21.6309C21.2992 26.7054 21.0303 26.9742 21.0303 27.306C21.0303 27.6378 21.2992 27.9066 21.6309 27.9066H21.6392Z" fill="white"/>
</g>
<defs>
<filter id="filter0_d_1749_669" x="-2" y="0" width="49" height="49" filterUnits="userSpaceOnUse" color-interpolation-filters="sRGB">
<feFlood flood-opacity="0" result="BackgroundImageFix"/>
<feColorMatrix in="SourceAlpha" type="matrix" values="0 0 0 0 0 0 0 0 0 0 0 0 0 0 0 0 0 0 127 0" result="hardAlpha"/>
<feOffset dy="4"/>
<feGaussianBlur stdDeviation="2"/>
<feComposite in2="hardAlpha" operator="out"/>
<feColorMatrix type="matrix" values="0 0 0 0 0 0 0 0 0 0 0 0 0 0 0 0 0 0 0.25 0"/>
<feBlend mode="normal" in2="BackgroundImageFix" result="effect1_dropShadow_1749_669"/>
<feBlend mode="normal" in="SourceGraphic" in2="effect1_dropShadow_1749_669" result="shape"/>
</filter>
<clipPath id="clip0_1749_669">
<rect width="41" height="41" fill="white" transform="translate(2)"/>
</clipPath>
</defs>
</svg>
