<svg width="38" height="26" viewBox="0 0 38 26" fill="none" xmlns="http://www.w3.org/2000/svg">
<path d="M35.3399 11.1715L34.3558 7.23528C34.6248 7.17813 34.8267 6.93944 34.8267 6.65348V6.01883C34.8267 4.64089 33.7056 3.51989 32.3278 3.51989H27.8455V2.21082C27.8455 1.53276 27.2939 0.981163 26.6159 0.981163H3.76823C3.09017 0.981163 2.53858 1.53276 2.53858 2.21082V13C2.53858 13.3286 2.80495 13.595 3.13359 13.595C3.46216 13.595 3.7286 13.3286 3.7286 13V2.21082C3.7286 2.18892 3.74634 2.17119 3.76823 2.17119H26.6158C26.6377 2.17119 26.6554 2.18892 26.6554 2.21082V13.0001C26.6554 13.3287 26.9218 13.5952 27.2505 13.5952C27.579 13.5952 27.8455 13.3288 27.8455 13.0001V12.3256H34.8643C34.8649 12.3256 34.8653 12.3258 34.8658 12.3258C34.8664 12.3258 34.8669 12.3257 34.8675 12.3257C35.7311 12.3263 36.4645 12.8932 36.7164 13.6743H34.8663C34.5377 13.6743 34.2713 13.9407 34.2713 14.2694V15.5386C34.2713 16.5666 35.1075 17.4029 36.1356 17.4029H36.8099V20.0209H35.2541C34.7431 18.5452 33.3402 17.4822 31.693 17.4822C30.0457 17.4822 28.6428 18.5452 28.1318 20.0209H27.8453V15.5386C27.8453 15.21 27.5789 14.9436 27.2503 14.9436C26.9217 14.9436 26.6553 15.2099 26.6553 15.5386V20.0207H14.3106C13.7996 18.545 12.3968 17.4821 10.7495 17.4821C9.10219 17.4821 7.6993 18.545 7.18831 20.0207H3.76823C3.74634 20.0207 3.7286 20.003 3.7286 19.9811V18.6721H6.30689C6.63545 18.6721 6.9019 18.4057 6.9019 18.0771C6.9019 17.7484 6.63553 17.4821 6.30689 17.4821H0.595012C0.266445 17.4821 0 17.7484 0 18.0771C0 18.4057 0.266371 18.6721 0.595012 18.6721H2.53865V19.9811C2.53865 20.6591 3.09025 21.2107 3.76831 21.2107H6.98228C6.98213 21.224 6.98124 21.2371 6.98124 21.2504C6.98124 23.3282 8.67172 25.0186 10.7495 25.0186C12.8272 25.0186 14.5177 23.3282 14.5177 21.2504C14.5177 21.237 14.5168 21.224 14.5167 21.2107H27.9258C27.9256 21.224 27.9247 21.2371 27.9247 21.2504C27.9247 23.3282 29.6152 25.0186 31.693 25.0186C33.7707 25.0186 35.4612 23.3282 35.4612 21.2504C35.4612 21.237 35.4603 21.224 35.4602 21.2107H37.4049C37.7335 21.2107 37.9999 20.9444 37.9999 20.6157V14.2692C38 12.7023 36.8439 11.4004 35.3399 11.1715ZM27.8455 4.70984H32.3278C33.0495 4.70984 33.6368 5.29706 33.6368 6.01883V6.05847H27.8455V4.70984ZM27.8455 11.1357V7.24842H33.1325L34.1043 11.1357H27.8455ZM10.7495 23.8288C9.32781 23.8288 8.17119 22.6723 8.17119 21.2505C8.17119 19.8288 9.32781 18.6722 10.7495 18.6722C12.1711 18.6722 13.3278 19.8288 13.3278 21.2505C13.3278 22.6723 12.1711 23.8288 10.7495 23.8288ZM31.6931 23.8288C30.2715 23.8288 29.1148 22.6723 29.1148 21.2505C29.1148 19.8288 30.2715 18.6722 31.6931 18.6722C33.1148 18.6722 34.2714 19.8288 34.2714 21.2505C34.2714 22.6723 33.1148 23.8288 31.6931 23.8288ZM36.8101 16.2129H36.1357C35.7639 16.2129 35.4613 15.9104 35.4613 15.5386V14.8642H36.81V16.2129H36.8101Z" fill="white"/>
</svg>
