<svg width="35" height="35" viewBox="0 0 35 35" fill="none" xmlns="http://www.w3.org/2000/svg">
<path d="M34.3374 16.1443L31.891 14.7319C31.6511 14.5934 31.3445 14.6756 31.2061 14.9155C31.0676 15.1553 31.1497 15.4619 31.3896 15.6004L33.836 17.0128C34.099 17.197 34.0449 17.5187 33.7357 17.6065L32.9641 17.754C30.9735 18.1344 29.1285 19.0559 27.6286 20.4187L26.8801 21.0988C26.6745 21.3091 26.3563 21.3806 26.0927 21.2241L13.2282 13.7966C12.9884 13.6582 12.6817 13.7403 12.5433 13.9802C12.4048 14.22 12.4869 14.5266 12.7268 14.6651L25.5913 22.0925C25.7636 22.1919 25.9477 22.2563 26.135 22.2883L24.2067 25.6282C23.6999 26.5061 22.5732 26.8082 21.6952 26.3011L16.6707 23.4002C16.6705 23.4001 16.6703 23.4 16.67 23.3998L4.55362 16.4043C3.67568 15.8975 3.37381 14.7708 3.88069 13.8929L5.89237 10.4085C6.06642 10.7114 6.31743 10.9647 6.62799 11.1439L10.751 13.5244C10.9908 13.6627 11.2975 13.5807 11.436 13.3409C11.5745 13.1011 11.4923 12.7944 11.2524 12.6559L7.12934 10.2754C6.89691 10.1412 6.73066 9.92455 6.66121 9.66533C6.59176 9.40625 6.62737 9.13568 6.76136 8.9034L8.95132 5.1102C9.50489 4.10498 10.8851 3.73461 11.8671 4.32899L29.4658 14.4896C29.7014 14.6268 30.0114 14.5481 30.1507 14.306C30.2892 14.0662 30.2071 13.7596 29.9672 13.6211L12.3684 3.46056C11.6426 3.04151 10.7972 2.93022 9.98778 3.14713C9.17834 3.36403 8.50179 3.88315 8.08281 4.60886L3.01219 13.3915C2.22879 14.7483 2.69534 16.4894 4.05221 17.2728L9.61434 20.4842V23.2036C9.61434 24.4095 10.1959 25.482 11.0932 26.1557L10.0347 28.1768C9.76227 28.0792 9.469 28.0256 9.16337 28.0256C7.87849 28.0256 6.80955 28.9657 6.6068 30.194H4.13554C3.85978 28.612 2.57544 27.3579 0.933379 27.1662C0.696514 27.1383 0.458418 27.2135 0.280273 27.3721C0.102197 27.5306 0 27.7582 0 27.9966V33.6653C0 33.9037 0.102129 34.1312 0.280273 34.2897C0.458281 34.4485 0.698291 34.5235 0.933311 34.4956C2.66827 34.2931 4.00429 32.9049 4.17286 31.1968H6.63776C6.90177 32.3477 7.93352 33.209 9.1633 33.209C9.36448 33.209 9.56484 33.1858 9.75892 33.14C10.0285 33.0765 10.1955 32.8064 10.1319 32.5369C10.0683 32.2673 9.79822 32.1003 9.52882 32.164C9.41008 32.192 9.2871 32.2062 9.1633 32.2062C8.28721 32.2062 7.57442 31.4934 7.57442 30.6173C7.57442 29.7412 8.28721 29.0284 9.1633 29.0284C10.0394 29.0284 10.7521 29.7412 10.7521 30.6173C10.7521 30.7525 10.7352 30.8865 10.7019 31.0157C10.6327 31.2838 10.7939 31.5572 11.0621 31.6265C11.3302 31.6956 11.6037 31.5345 11.6729 31.2663C11.7273 31.0553 11.7549 30.837 11.7549 30.6173C11.7549 29.8542 11.4232 29.1672 10.8966 28.6925L11.97 26.6428C12.3841 26.804 12.8337 26.8934 13.304 26.8934C14.8226 26.8934 16.1688 25.9564 16.7241 24.589L21.1937 27.1696C21.8524 27.5504 22.6218 27.649 23.3499 27.4535C23.8997 27.3061 24.3819 27.0048 24.7486 26.586L26.8563 27.8029C27.119 27.9545 27.4062 28.0265 27.6896 28.0265C28.2653 28.0265 28.8258 27.7292 29.1361 27.1981C30.6285 27.9902 32.6182 27.3957 33.4339 25.9189C34.3031 24.4134 33.8319 22.496 32.3935 21.5569C32.6495 21.1533 32.7349 20.6682 32.6083 20.2051C32.4927 19.7736 32.2159 19.413 31.8291 19.1897L31.7191 19.1262C32.1849 18.9628 32.6635 18.8323 33.1522 18.7389C33.9231 18.6389 34.8608 18.4303 34.9808 17.5115C35.074 16.9604 34.8214 16.4237 34.3374 16.1443ZM1.00283 33.4714V28.1905C2.26119 28.427 3.18842 29.5306 3.18842 30.8309C3.18842 32.1313 2.26126 33.235 1.00283 33.4714ZM12.8432 22.3483L14.0701 23.0567C14.0256 23.44 13.6993 23.7387 13.3042 23.7387C12.8787 23.7387 12.5325 23.3925 12.5325 22.9671C12.5325 22.7212 12.6507 22.4924 12.8432 22.3483ZM13.3042 25.8906C11.8225 25.8906 10.6172 24.6851 10.6172 23.2036V21.0632L11.9444 21.8294C11.6823 22.1432 11.5297 22.544 11.5297 22.9672C11.5297 23.9456 12.3257 24.7416 13.3042 24.7416C14.0686 24.7416 14.7216 24.2558 14.9708 23.5767L15.8447 24.0812C15.4762 25.1478 14.4584 25.8906 13.3042 25.8906ZM32.5655 25.4175C32.2637 25.9402 31.7764 26.3141 31.1934 26.4704C30.669 26.6109 30.1237 26.5595 29.6389 26.3282L31.8909 22.4277C32.8508 23.0886 33.1581 24.391 32.5655 25.4175ZM31.3279 20.0581C31.6433 20.2317 31.7593 20.6648 31.5729 20.9727L28.2724 26.6893C28.0878 27.009 27.6774 27.1189 27.3578 26.9343L25.2974 25.7448L27.5478 21.847C28.4449 20.9984 29.4461 20.1445 30.5604 19.615L31.3279 20.0581Z" fill="white"/>
<path d="M22.6536 16.0245C23.0459 16.0245 23.3639 15.7065 23.3639 15.3142C23.3639 14.9219 23.0459 14.604 22.6536 14.604C22.2614 14.604 21.9434 14.9219 21.9434 15.3142C21.9434 15.7065 22.2614 16.0245 22.6536 16.0245Z" fill="white"/>
<path d="M24.9261 17.278C25.3183 17.278 25.6363 16.96 25.6363 16.5678C25.6363 16.1755 25.3183 15.8575 24.9261 15.8575C24.5338 15.8575 24.2158 16.1755 24.2158 16.5678C24.2158 16.96 24.5338 17.278 24.9261 17.278Z" fill="white"/>
<path d="M18.6683 5.05202C19.0605 5.05202 19.3785 4.73402 19.3785 4.34177C19.3785 3.94952 19.0605 3.63152 18.6683 3.63152C18.276 3.63152 17.958 3.94952 17.958 4.34177C17.958 4.73408 18.276 5.05202 18.6683 5.05202Z" fill="white"/>
<path d="M22.7702 8.11925C22.989 8.28529 23.3046 8.24407 23.4725 8.02204C25.1048 5.86571 25.1048 2.85373 23.4725 0.697331C23.3055 0.476598 22.991 0.433122 22.7702 0.600124C22.5494 0.767262 22.5058 1.08178 22.6729 1.30258C24.0354 3.10262 24.0354 5.61681 22.6729 7.41679C22.5058 7.63759 22.5493 7.95211 22.7702 8.11925Z" fill="white"/>
<path d="M20.4045 6.64925C20.6075 6.83676 20.9249 6.82479 21.1131 6.62088C22.2835 5.35288 22.2835 3.36635 21.1131 2.09843C20.9253 1.89506 20.608 1.88234 20.4045 2.07006C20.201 2.25791 20.1884 2.57516 20.3761 2.7786C21.1945 3.66515 21.1945 5.05415 20.3761 5.9407C20.1883 6.14414 20.201 6.46139 20.4045 6.64925Z" fill="white"/>
</svg>
