<svg width="35" height="35" viewBox="0 0 35 35" fill="none" xmlns="http://www.w3.org/2000/svg">
<path d="M32.0833 0.583332H7.58333C5.97319 0.585326 4.66866 1.88985 4.66667 3.5V26.25H0.583333C0.26119 26.25 0 26.5112 0 26.8333V28C0.00199382 29.6101 1.30652 30.9147 2.91667 30.9167H21.014V33.8333C21.014 34.0544 21.1387 34.2563 21.3364 34.3551C21.5341 34.454 21.7705 34.4326 21.9473 34.2999L23.9306 32.8125L25.9139 34.2999C26.0147 34.3759 26.1378 34.417 26.264 34.4167C26.3545 34.4175 26.444 34.3976 26.5254 34.3583C26.724 34.2589 26.8487 34.0552 26.8473 33.8333V30.9167H27.4167C29.0268 30.9147 30.3313 29.6101 30.3333 28V5.25H34.4167C34.7388 5.25 35 4.98881 35 4.66667V3.5C34.998 1.88985 33.6935 0.585326 32.0833 0.583332ZM21.014 29.75H2.91667C1.95024 29.75 1.16667 28.9664 1.16667 28V27.4167H21.014V29.75ZM25.6806 32.6667L24.2807 31.6168C24.0733 31.461 23.7882 31.461 23.5806 31.6168L22.1806 32.6667V26.1514C22.2934 26.1603 22.4068 26.1583 22.519 26.1449C22.8557 26.5793 23.3743 26.8333 23.9238 26.8333C24.4732 26.8333 24.9916 26.5793 25.3283 26.1449C25.4445 26.1589 25.5618 26.1611 25.6783 26.1514L25.6806 32.6667ZM26.4309 23.3217C26.2753 23.3769 26.1503 23.4957 26.0874 23.6481C26.0241 23.8007 26.0284 23.9728 26.0996 24.122C26.2098 24.3533 26.1631 24.629 25.9825 24.8108C25.8017 24.9925 25.5262 25.0409 25.2944 24.9318C25.1454 24.8606 24.9731 24.856 24.8204 24.919C24.6675 24.9822 24.549 25.1073 24.4934 25.2631C24.4083 25.5046 24.1798 25.6664 23.9238 25.6664C23.6674 25.6664 23.439 25.5046 23.3538 25.2631C23.2986 25.1073 23.1798 24.9822 23.0271 24.919C22.8742 24.856 22.7019 24.8606 22.5529 24.9318C22.321 25.0409 22.0456 24.9925 21.865 24.8108C21.6842 24.629 21.6375 24.3533 21.748 24.122C21.8189 23.9731 21.8234 23.8007 21.7602 23.6484C21.6973 23.4957 21.5725 23.3772 21.417 23.3217C21.1752 23.2356 21.0134 23.0066 21.0134 22.75C21.0134 22.4934 21.1752 22.2644 21.417 22.1783C21.5725 22.1228 21.697 22.0043 21.7599 21.8519C21.8232 21.6995 21.8186 21.5275 21.748 21.3785C21.6369 21.1473 21.6836 20.8713 21.8645 20.6892C22.045 20.5075 22.3208 20.4588 22.5529 20.5682C22.7019 20.6394 22.8742 20.644 23.0271 20.581C23.1798 20.5178 23.2986 20.3927 23.3538 20.2369C23.439 19.9954 23.6674 19.8336 23.9238 19.8336C24.1798 19.8336 24.4083 19.9954 24.4934 20.2369C24.549 20.3927 24.6675 20.5178 24.8204 20.581C24.9731 20.644 25.1454 20.6394 25.2944 20.5682C25.5262 20.4591 25.8017 20.5075 25.9825 20.6892C26.1631 20.871 26.2098 21.1467 26.0996 21.378C26.0284 21.5272 26.0241 21.6993 26.0874 21.8519C26.1503 22.0043 26.2753 22.1231 26.4309 22.1783C26.6721 22.2649 26.8333 22.4937 26.8333 22.75C26.8333 23.0063 26.6721 23.2351 26.4309 23.3217ZM29.705 1.82292C29.672 1.86963 29.6426 1.91919 29.6124 1.96818C29.55 2.06787 29.4942 2.17098 29.4444 2.27722C29.4182 2.33561 29.3937 2.38944 29.3709 2.44641C29.3276 2.56091 29.2911 2.67769 29.2624 2.79647C29.249 2.85087 29.2319 2.90328 29.2216 2.95854C29.1863 3.13712 29.1681 3.31828 29.1667 3.5V28C29.1667 28.9664 28.3831 29.75 27.4167 29.75C27.2221 29.7463 27.0299 29.7101 26.8473 29.6426V25.5849C27.2102 25.2032 27.3813 24.6783 27.3141 24.1559C27.7476 23.8184 28.0011 23.2994 28.0011 22.75C28.0011 22.2006 27.7476 21.6816 27.3141 21.3441C27.3831 20.7995 27.1965 20.2535 26.8088 19.8644C26.4212 19.4756 25.8757 19.2876 25.3306 19.3551C24.9939 18.9207 24.4755 18.6667 23.9261 18.6667C23.3766 18.6667 22.858 18.9207 22.5213 19.3551C21.9764 19.2879 21.4309 19.4759 21.0433 19.8647C20.6559 20.2535 20.4694 20.7995 20.538 21.3441C20.1045 21.6816 19.8507 22.2006 19.8507 22.75C19.8507 23.2994 20.1045 23.8184 20.538 24.1559C20.4691 24.6857 20.6457 25.2181 21.0174 25.602V26.25H5.83333V3.5C5.83333 2.53357 6.6169 1.75 7.58333 1.75H29.75C29.7338 1.77279 29.7215 1.79899 29.705 1.82292ZM33.8333 4.08333H30.3333V3.5C30.3333 2.53357 31.1169 1.75 32.0833 1.75C33.0498 1.75 33.8333 2.53357 33.8333 3.5V4.08333Z" fill="white"/>
<path d="M19.25 5.25H21.5833V6.41667H19.25V5.25Z" fill="white"/>
<path d="M13.417 5.25H18.0837V6.41667H13.417V5.25Z" fill="white"/>
<path d="M11.667 8.16667H23.3337V9.33333H11.667V8.16667Z" fill="white"/>
<path d="M8.75 11.6667H11.6667V12.8333H8.75V11.6667Z" fill="white"/>
<path d="M8.75 14.5833H15.1667V15.75H8.75V14.5833Z" fill="white"/>
<path d="M12.833 11.6667H26.2497V12.8333H12.833V11.6667Z" fill="white"/>
<path d="M16.333 14.5833H26.2497V15.75H16.333V14.5833Z" fill="white"/>
<path d="M8.75 17.5H20.4167V18.6667H8.75V17.5Z" fill="white"/>
<path d="M8.75 20.4167H18.6667V21.5833H8.75V20.4167Z" fill="white"/>
</svg>
