<svg width="43" height="43" viewBox="0 0 43 43" fill="none" xmlns="http://www.w3.org/2000/svg">
<g clip-path="url(#clip0_1749_690)">
<path d="M33.1588 21.5029V20.238C33.1588 19.8901 32.8769 19.6081 32.5289 19.6081C32.181 19.6081 31.899 19.8901 31.899 20.238V28.7013C31.4556 28.7536 30.9953 28.8035 30.5156 28.8507C30.1932 28.8824 29.9474 29.1536 29.9474 29.4776L29.9477 33.7191C29.9477 33.8969 30.0228 34.0664 30.1545 34.1858C30.2709 34.2913 30.4219 34.349 30.5775 34.349C30.598 34.349 30.6186 34.348 30.6392 34.346C31.0672 34.3039 31.4873 34.2589 31.8989 34.2112V37.6681H11.101V34.2126C14.0597 34.556 17.3937 34.7482 20.8701 34.7689V36.0922C20.8701 36.3291 21.0031 36.546 21.2142 36.6535C21.3044 36.6995 21.4023 36.7221 21.4999 36.7221C21.6307 36.7221 21.7607 36.6814 21.8705 36.6016L27.4698 32.5293C27.6327 32.4108 27.7292 32.2214 27.7292 32.02C27.7292 31.8185 27.6328 31.6291 27.4698 31.5106L21.8705 27.4384C21.6789 27.299 21.4254 27.279 21.2142 27.3865C21.0031 27.494 20.8701 27.7109 20.8701 27.9478V29.2673C17.3827 29.2463 14.0454 29.0514 11.101 28.7029V20.2369C11.101 19.889 10.819 19.607 10.4711 19.607C10.1231 19.607 9.84121 19.889 9.84121 20.2369V21.5029C5.22475 22.1269 0 23.3442 0 25.6571V29.8989C0 31.4276 2.16445 32.6107 6.61713 33.5156C7.61486 33.7185 8.69507 33.8982 9.84121 34.054V40.6733C9.84121 41.9561 10.885 42.9999 12.1678 42.9999H30.8322C32.115 42.9999 33.1588 41.9561 33.1588 40.6733V34.0529C35.5933 33.7227 37.6801 33.2909 39.2814 32.7825C41.7837 31.988 43 31.0448 43 29.8989V25.6571C43 23.3442 37.7752 22.1269 33.1588 21.5029ZM6.86799 28.0393C6.44588 27.9535 6.05359 27.8663 5.68877 27.7785C6.89117 27.4887 8.29018 27.2317 9.84112 27.0168V28.5409C8.78628 28.3943 7.79081 28.2268 6.86799 28.0393ZM3.54708 24.1601C5.08265 23.6099 7.24894 23.1343 9.84112 22.7751V25.7448C7.25297 26.0959 5.05225 26.5651 3.42883 27.1112C1.77829 26.5029 1.25977 25.9427 1.25977 25.6571C1.25977 25.5877 1.32401 24.9567 3.54708 24.1601ZM1.25977 29.8989V27.4749C2.33913 28.17 4.11767 28.7658 6.61713 29.2738C10.599 30.0831 15.8846 30.5288 21.5 30.5288C21.8479 30.5288 22.1299 30.2468 22.1299 29.8989V29.1846L26.0284 32.0199L22.1299 34.8552V34.1408C22.1299 33.793 21.8479 33.5109 21.5 33.5109C15.9662 33.5109 10.7698 33.0742 6.86799 32.2812C2.43194 31.3795 1.25977 30.3286 1.25977 29.8989ZM31.899 40.6734C31.899 41.2616 31.4205 41.7402 30.8322 41.7402H12.1678C11.5795 41.7402 11.101 41.2616 11.101 40.6734V38.9278H31.8991V40.6734H31.899ZM33.1588 27.0168C34.707 27.2313 36.1039 27.4877 37.3049 27.7769C36.1811 28.05 34.8109 28.3118 33.1588 28.5404V27.0168ZM41.7402 29.8989C41.7402 30.5618 39.1462 32.1661 31.2075 33.0211L31.2073 30.0464C34.4844 29.6989 37.2669 29.1805 39.2815 28.5408C40.3216 28.2106 41.1395 27.8546 41.7402 27.469V29.8989ZM39.5582 27.1069C37.9361 26.5626 35.7401 26.095 33.1588 25.7448V22.7751C35.751 23.1343 37.9174 23.6099 39.4528 24.1601C41.676 24.9567 41.7402 25.5877 41.7402 25.6571C41.7402 25.9812 41.1196 26.5303 39.5582 27.1069Z" fill="white"/>
<path d="M10.4707 17.8933C10.8187 17.8933 11.1006 17.6113 11.1006 17.2634V5.332H15.4459C15.5042 5.332 15.5592 5.35476 15.6004 5.396L16.2912 6.08677C16.5704 6.36593 16.9416 6.51971 17.3364 6.51971H25.6264C26.0213 6.51971 26.3925 6.36593 26.6718 6.08677L27.3625 5.39608C27.4031 5.35535 27.4595 5.332 27.517 5.332H31.8987V17.2646C31.8987 17.6124 32.1807 17.8945 32.5286 17.8945C32.8766 17.8945 33.1585 17.6124 33.1585 17.2646V2.32662C33.1584 1.04376 32.1147 0 30.8318 0H12.1674C10.8846 0 9.84082 1.04376 9.84082 2.32662V17.2634C9.84082 17.6113 10.1228 17.8933 10.4707 17.8933ZM11.1006 2.32662C11.1006 1.73839 11.5791 1.25977 12.1674 1.25977H30.8318C31.4201 1.25977 31.8986 1.73839 31.8986 2.32662V4.07223H27.5169C27.1222 4.07223 26.751 4.22601 26.4717 4.50517L25.7809 5.19595C25.7396 5.23718 25.6847 5.25994 25.6264 5.25994H17.3363C17.2781 5.25994 17.2231 5.23718 17.1819 5.19595L16.491 4.50509C16.2118 4.22593 15.8406 4.07223 15.4458 4.07223H11.1005V2.32662H11.1006Z" fill="white"/>
<path d="M19.1248 3.93861C19.5933 3.93861 19.9732 3.55877 19.9732 3.0902C19.9732 2.62164 19.5933 2.24179 19.1248 2.24179C18.6562 2.24179 18.2764 2.62164 18.2764 3.0902C18.2764 3.55877 18.6562 3.93861 19.1248 3.93861Z" fill="white"/>
<path d="M21.3301 3.72009H24.7236C25.0715 3.72009 25.3534 3.43807 25.3534 3.09021C25.3534 2.74234 25.0715 2.46032 24.7236 2.46032H21.3301C20.9821 2.46032 20.7002 2.74234 20.7002 3.09021C20.7002 3.43807 20.9822 3.72009 21.3301 3.72009Z" fill="white"/>
<path d="M35.3531 9.94652C35.4544 10.0073 35.5661 10.0362 35.6763 10.0362C35.8904 10.0362 36.0991 9.92704 36.2172 9.73001L36.8802 8.62377C37.4491 11.0687 37.4764 14.3698 36.3314 17.2076C36.2097 17.5091 36.3449 17.8646 36.6369 18.0083C36.9615 18.168 37.3644 18.0141 37.4996 17.679C38.7981 14.4608 38.7019 10.9724 38.1318 8.4469L39.0773 9.01354C39.3755 9.19234 39.7624 9.09551 39.9414 8.79703C40.1202 8.49863 40.0233 8.1118 39.7249 7.93291L37.3962 6.53734C37.0979 6.35863 36.711 6.45538 36.532 6.75386L35.1365 9.08249C34.9578 9.3808 35.0548 9.76764 35.3531 9.94652Z" fill="white"/>
<path d="M3.61473 16.5879L5.94337 17.9836C6.23227 18.1567 6.62608 18.0694 6.80748 17.7671L8.20305 15.4384C8.38185 15.14 8.28493 14.7532 7.98654 14.5743C7.68831 14.3956 7.30139 14.4923 7.12242 14.7908L6.45953 15.8971C5.89062 13.4522 5.86325 10.1512 7.0082 7.31327C7.13838 6.99069 6.98234 6.62368 6.65984 6.4935C6.33675 6.36316 5.97007 6.51945 5.83998 6.84195C4.5415 10.0602 4.63775 13.5487 5.20792 16.0741L4.26242 15.5075C3.96419 15.3287 3.57719 15.4255 3.39839 15.724C3.21942 16.0222 3.31634 16.4091 3.61473 16.5879Z" fill="white"/>
<path d="M21.5004 15.3556C20.2176 15.3556 19.1738 16.3994 19.1738 17.6822C19.1738 18.9652 20.2176 20.0089 21.5004 20.0089C22.7833 20.0089 23.8271 18.9652 23.8271 17.6822C23.8271 16.3994 22.7833 15.3556 21.5004 15.3556ZM21.5004 18.7492C20.9121 18.7492 20.4336 18.2706 20.4336 17.6822C20.4336 17.094 20.9121 16.6154 21.5004 16.6154C22.0888 16.6154 22.5673 17.094 22.5673 17.6822C22.5673 18.2706 22.0888 18.7492 21.5004 18.7492Z" fill="white"/>
<path d="M29.1389 15.2312L27.4421 12.2923C27.2683 11.991 26.8828 11.8878 26.5817 12.0618L24.8614 13.055C24.5375 12.819 24.1914 12.6188 23.8266 12.4564V10.3863C23.8266 10.0384 23.5447 9.75638 23.1967 9.75638H19.8033C19.4553 9.75638 19.1734 10.0384 19.1734 10.3863V12.4564C18.8085 12.6189 18.4625 12.819 18.1386 13.055L16.3448 12.0193C16.0434 11.8452 15.6582 11.9486 15.4844 12.2499L13.7876 15.1887C13.6137 15.49 13.7169 15.8752 14.0182 16.0492L15.8117 17.0848C15.7906 17.2847 15.7799 17.4845 15.7799 17.6823C15.7799 17.8802 15.7906 18.08 15.8117 18.2799L14.0182 19.3155C13.7169 19.4894 13.6137 19.8746 13.7876 20.1759L15.4844 23.1148C15.6583 23.4161 16.0438 23.5193 16.3448 23.3453L18.1386 22.3096C18.4624 22.5456 18.8085 22.7457 19.1734 22.9082V24.8936C19.1734 25.2414 19.4553 25.5234 19.8033 25.5234H23.1967C23.5447 25.5234 23.8266 25.2414 23.8266 24.8936V22.9082C24.1915 22.7457 24.5375 22.5456 24.8614 22.3096L26.5817 23.3029C26.883 23.4767 27.2682 23.3736 27.4421 23.0723L29.1389 20.1335C29.3128 19.8322 29.2096 19.447 28.9083 19.2731L27.1883 18.28C27.2094 18.0801 27.2201 17.8803 27.2201 17.6824C27.2201 17.4845 27.2094 17.2847 27.1883 17.0849L28.9083 16.0917C29.2096 15.9177 29.3128 15.5325 29.1389 15.2312ZM26.189 16.207C25.9581 16.3403 25.8361 16.6045 25.8846 16.8668C25.9348 17.139 25.9602 17.4134 25.9602 17.6822C25.9602 17.9512 25.9347 18.2255 25.8846 18.4977C25.8361 18.76 25.9581 19.0243 26.189 19.1576L27.733 20.049L26.6661 21.8969L25.1215 21.0052C24.8903 20.8717 24.6 20.8984 24.397 21.072C23.9778 21.4307 23.5032 21.7053 22.9867 21.8879C22.735 21.9769 22.5668 22.2149 22.5668 22.4818V24.2637H20.4331V22.4818C20.4331 22.2149 20.2648 21.9769 20.0131 21.8879C19.4966 21.7053 19.022 21.4308 18.6028 21.072C18.3998 20.8982 18.1093 20.8717 17.8783 21.0052L16.2602 21.9393L15.1933 20.0915L16.8108 19.1577C17.0418 19.0244 17.1637 18.7601 17.1152 18.4978C17.065 18.2256 17.0396 17.9512 17.0396 17.6823C17.0396 17.4134 17.0651 17.139 17.1152 16.8669C17.1637 16.6046 17.0418 16.3403 16.8108 16.2071L15.1933 15.2732L16.2602 13.4254L17.8783 14.3596C18.1095 14.4931 18.3998 14.4663 18.6028 14.2927C19.0221 13.9339 19.4967 13.6594 20.0131 13.4769C20.2647 13.3879 20.4331 13.1499 20.4331 12.883V11.0163H22.5668V12.883C22.5668 13.1499 22.7351 13.3879 22.9867 13.4769C23.5031 13.6595 23.9777 13.9339 24.397 14.2927C24.6 14.4663 24.8904 14.4929 25.1215 14.3596L26.6661 13.4678L27.733 15.3157L26.189 16.207Z" fill="white"/>
</g>
<defs>
<clipPath id="clip0_1749_690">
<rect width="43" height="43" fill="white"/>
</clipPath>
</defs>
</svg>
