<svg width="34" height="34" viewBox="0 0 34 34" fill="none" xmlns="http://www.w3.org/2000/svg">
<path d="M8.76562 8.5C8.90652 8.5 9.04165 8.44403 9.14128 8.3444C9.2409 8.24477 9.29688 8.10965 9.29688 7.96875V3.71875C9.29734 3.2962 9.4654 2.8911 9.76419 2.59231C10.063 2.29353 10.4681 2.12546 10.8906 2.125H13.8125C13.9534 2.125 14.0885 2.06903 14.1882 1.9694C14.2878 1.86977 14.3438 1.73465 14.3438 1.59375C14.3438 1.45285 14.2878 1.31773 14.1882 1.2181C14.0885 1.11847 13.9534 1.0625 13.8125 1.0625H10.8906C10.1864 1.06333 9.51125 1.34345 9.01329 1.84141C8.51532 2.33938 8.2352 3.01452 8.23438 3.71875V7.96875C8.23438 8.10965 8.29035 8.24477 8.38997 8.3444C8.4896 8.44403 8.62473 8.5 8.76562 8.5Z" fill="white"/>
<path d="M19.5828 24.4375C19.5828 24.2966 19.5269 24.1615 19.4272 24.0618C19.3276 23.9622 19.1925 23.9062 19.0516 23.9062H11.4219V22.8552C11.4219 22.7143 11.3659 22.5791 11.2663 22.4795C11.1666 22.3799 11.0315 22.3239 10.8906 22.3239C10.7497 22.3239 10.6146 22.3799 10.515 22.4795C10.4153 22.5791 10.3594 22.7143 10.3594 22.8552V24.4375C10.3594 24.5784 10.4153 24.7135 10.515 24.8131C10.6146 24.9128 10.7497 24.9687 10.8906 24.9687H19.0516C19.1925 24.9687 19.3276 24.9128 19.4272 24.8131C19.5269 24.7135 19.5828 24.5784 19.5828 24.4375Z" fill="white"/>
<path d="M29.8978 16.6623L26.2969 13.0613V3.71875C26.296 3.01452 26.0159 2.33938 25.518 1.84141C25.02 1.34345 24.3449 1.06333 23.6406 1.0625H16.4688C16.3279 1.0625 16.1927 1.11847 16.0931 1.2181C15.9935 1.31773 15.9375 1.45285 15.9375 1.59375C15.9375 1.73465 15.9935 1.86977 16.0931 1.9694C16.1927 2.06903 16.3279 2.125 16.4688 2.125H23.6406C24.0632 2.12546 24.4683 2.29353 24.7671 2.59231C25.0659 2.8911 25.2339 3.2962 25.2344 3.71875V18.5938C25.2344 18.7346 25.2903 18.8698 25.39 18.9694C25.4896 19.069 25.6247 19.125 25.7656 19.125C25.9065 19.125 26.0416 19.069 26.1413 18.9694C26.2409 18.8698 26.2969 18.7346 26.2969 18.5938V14.5637L29.1467 17.4135C29.592 17.8564 29.945 18.3833 30.1854 18.9636C30.4257 19.5439 30.5486 20.1661 30.5469 20.7942V31.875H19.9219V27.6974C19.9227 26.9739 20.2105 26.2804 20.722 25.7689C21.2335 25.2573 21.9271 24.9696 22.6505 24.9688C22.7555 24.9687 22.8582 24.9376 22.9456 24.8792C23.0329 24.8208 23.101 24.7379 23.1412 24.6408C23.1814 24.5437 23.192 24.4369 23.1715 24.3339C23.151 24.2309 23.1004 24.1362 23.0261 24.0619L18.5559 19.5919C18.2072 19.2432 18.0112 18.7702 18.0112 18.2771C18.0112 17.7839 18.2072 17.3109 18.5559 16.9622C18.9046 16.6135 19.3776 16.4176 19.8707 16.4176C20.3639 16.4176 20.8368 16.6135 21.1856 16.9622L27.2471 23.0238C27.3473 23.1209 27.4816 23.1748 27.6211 23.1737C27.7606 23.1726 27.894 23.1167 27.9927 23.0181C28.0913 22.9195 28.1472 22.786 28.1482 22.6465C28.1493 22.507 28.0954 22.3727 27.9983 22.2726L24.1719 18.446V3.71875C24.1719 3.57785 24.1159 3.44273 24.0163 3.3431C23.9166 3.24347 23.7815 3.1875 23.6406 3.1875H20.9844C20.8435 3.1875 20.7084 3.24347 20.6087 3.3431C20.5091 3.44273 20.4531 3.57785 20.4531 3.71875C20.4529 3.85959 20.3969 3.99461 20.2973 4.0942C20.1977 4.19379 20.0627 4.24982 19.9219 4.25H14.6094C14.4685 4.24982 14.3335 4.19379 14.2339 4.0942C14.1343 3.99461 14.0783 3.85959 14.0781 3.71875C14.0781 3.57785 14.0222 3.44273 13.9225 3.3431C13.8229 3.24347 13.6878 3.1875 13.5469 3.1875H10.8906C10.7497 3.1875 10.6146 3.24347 10.515 3.3431C10.4153 3.44273 10.3594 3.57785 10.3594 3.71875V9.03125H3.98438C3.56183 9.03171 3.15672 9.19978 2.85794 9.49856C2.55915 9.79735 2.39109 10.2025 2.39062 10.625V20.1875C2.39109 20.61 2.55915 21.0152 2.85794 21.3139C3.15672 21.6127 3.56183 21.7808 3.98438 21.7812H8.23438V26.5625C8.2352 27.2667 8.51532 27.9419 9.01329 28.4398C9.51125 28.9378 10.1864 29.2179 10.8906 29.2188H18.8594V32.4062C18.8594 32.5471 18.9153 32.6823 19.015 32.7819C19.1146 32.8815 19.2497 32.9375 19.3906 32.9375H31.0781C31.219 32.9375 31.3541 32.8815 31.4538 32.7819C31.5534 32.6823 31.6094 32.5471 31.6094 32.4062V20.7942C31.6115 20.0266 31.4613 19.2661 31.1675 18.5568C30.8737 17.8476 30.4422 17.2036 29.8978 16.6623ZM3.98438 10.0938H20.9844V11.1562H3.45312V10.625C3.45331 10.4842 3.50934 10.3491 3.60893 10.2496C3.70852 10.15 3.84353 10.0939 3.98438 10.0938ZM17.2656 28.1562H10.8906C10.4681 28.1558 10.063 27.9877 9.76419 27.6889C9.4654 27.3902 9.29734 26.985 9.29688 26.5625V21.7812H17.2882C17.4291 21.7812 17.5642 21.7253 17.6639 21.6257C17.7635 21.526 17.8195 21.3909 17.8195 21.25C17.8195 21.1091 17.7635 20.974 17.6639 20.8743C17.5642 20.7747 17.4291 20.7188 17.2882 20.7188H3.98438C3.84353 20.7186 3.70852 20.6625 3.60893 20.5629C3.50934 20.4634 3.45331 20.3283 3.45312 20.1875V15.4062H17.8195C17.9603 15.4062 18.0955 15.3503 18.1951 15.2507C18.2947 15.151 18.3507 15.0159 18.3507 14.875C18.3507 14.7341 18.2947 14.599 18.1951 14.4993C18.0955 14.3997 17.9603 14.3438 17.8195 14.3438H3.45312V12.2188H20.9844V14.875C20.9844 15.0159 21.0403 15.151 21.14 15.2507C21.2396 15.3503 21.3747 15.4062 21.5156 15.4062C21.6565 15.4062 21.7916 15.3503 21.8913 15.2507C21.9909 15.151 22.0469 15.0159 22.0469 14.875V7.96875C22.0469 7.82785 21.9909 7.69273 21.8913 7.5931C21.7916 7.49347 21.6565 7.4375 21.5156 7.4375C21.3747 7.4375 21.2396 7.49347 21.14 7.5931C21.0403 7.69273 20.9844 7.82785 20.9844 7.96875V9.03125H11.4219V4.25H13.1067C13.2169 4.56053 13.4205 4.82935 13.6895 5.01958C13.9586 5.20981 14.2799 5.31213 14.6094 5.3125H19.9219C20.2514 5.31213 20.5727 5.20981 20.8417 5.01958C21.1108 4.82935 21.3144 4.56053 21.4246 4.25H23.1094V17.3835L21.9369 16.2109C21.3889 15.6629 20.6457 15.3551 19.8708 15.3551C19.0958 15.3551 18.3526 15.6629 17.8046 16.2109C17.2567 16.7589 16.9488 17.5021 16.9488 18.277C16.9488 19.052 17.2567 19.7952 17.8046 20.3432L21.5353 24.0735C20.761 24.3131 20.0836 24.794 19.6022 25.446C19.1207 26.0979 18.8604 26.8869 18.8594 27.6974V28.1562H17.2656Z" fill="white"/>
<path d="M7.70312 16.4688H5.04688C4.90598 16.4688 4.77085 16.5247 4.67122 16.6243C4.5716 16.724 4.51562 16.8591 4.51562 17V19.125C4.51562 19.2659 4.5716 19.401 4.67122 19.5007C4.77085 19.6003 4.90598 19.6562 5.04688 19.6562H7.70312C7.84402 19.6562 7.97915 19.6003 8.07878 19.5007C8.1784 19.401 8.23438 19.2659 8.23438 19.125V17C8.23438 16.8591 8.1784 16.724 8.07878 16.6243C7.97915 16.5247 7.84402 16.4688 7.70312 16.4688ZM7.17188 18.5938H5.57812V17.5312H7.17188V18.5938Z" fill="white"/>
<path d="M18.8594 26.5625C18.8594 26.2473 18.7659 25.9392 18.5908 25.6771C18.4157 25.415 18.1668 25.2107 17.8755 25.0901C17.5843 24.9694 17.2639 24.9379 16.9547 24.9994C16.6455 25.0609 16.3616 25.2127 16.1387 25.4356C15.9158 25.6584 15.764 25.9424 15.7025 26.2516C15.641 26.5607 15.6726 26.8812 15.7932 27.1724C15.9138 27.4636 16.1181 27.7125 16.3802 27.8877C16.6423 28.0628 16.9504 28.1563 17.2656 28.1563C17.6882 28.1558 18.0933 27.9877 18.3921 27.6889C18.6909 27.3902 18.8589 26.985 18.8594 26.5625ZM17.2656 27.0938C17.1606 27.0938 17.0578 27.0626 16.9705 27.0042C16.8831 26.9458 16.815 26.8629 16.7748 26.7658C16.7346 26.6687 16.7241 26.5619 16.7446 26.4589C16.7651 26.3558 16.8157 26.2611 16.89 26.1869C16.9643 26.1126 17.0589 26.062 17.162 26.0415C17.265 26.021 17.3719 26.0315 17.4689 26.0717C17.566 26.1119 17.649 26.18 17.7073 26.2674C17.7657 26.3547 17.7969 26.4574 17.7969 26.5625C17.7967 26.7033 17.7407 26.8384 17.6411 26.938C17.5415 27.0375 17.4065 27.0936 17.2656 27.0938Z" fill="white"/>
</svg>
