<svg width="47" height="43" viewBox="0 0 47 43" fill="none" xmlns="http://www.w3.org/2000/svg">
<path d="M31.7974 12.9069C34.4928 12.9069 36.6855 15.555 36.6855 18.8099C36.6855 22.0651 34.4928 24.7132 31.7974 24.7132C29.1023 24.7132 26.9095 22.0651 26.9095 18.8099C26.9095 15.555 29.1023 12.9069 31.7974 12.9069ZM31.7974 23.3483C33.7403 23.3483 35.3206 21.3123 35.3206 18.8099C35.3206 16.3075 33.7403 14.2718 31.7974 14.2718C29.8548 14.2718 28.2745 16.3075 28.2745 18.8099C28.2745 21.3123 29.8548 23.3483 31.7974 23.3483Z" fill="#CF3535"/>
<path d="M13.9029 36.0141C14.038 35.4109 14.3998 34.8966 14.9216 34.5657C15.4434 34.2347 16.063 34.1267 16.6658 34.2617C17.911 34.5401 18.6969 35.7795 18.4186 37.0247C18.1779 38.0999 17.22 38.8332 16.1611 38.8332C15.9944 38.8332 15.8248 38.8151 15.6556 38.7771C14.4105 38.4984 13.6246 37.2593 13.9029 36.0141ZM15.9535 37.4452C16.4643 37.5593 16.9722 37.2369 17.0867 36.7265C17.2008 36.216 16.8784 35.7077 16.368 35.5936C16.2983 35.578 16.229 35.5705 16.1607 35.5705C15.7264 35.5705 15.3336 35.8712 15.2351 36.312C15.1207 36.8224 15.4431 37.3307 15.9535 37.4452Z" fill="#CF3535"/>
<path d="M4.31084 31.5813H10.2693C10.6461 31.5813 10.9518 31.887 10.9518 32.2638C10.9518 32.6409 10.6461 32.9462 10.2693 32.9462H4.31084C2.68642 32.9462 1.36485 34.2682 1.36485 35.8926C1.36485 37.517 2.68642 38.8386 4.31084 38.8386H12.0164C11.5571 37.9108 11.4288 36.8626 11.6581 35.8386L13.2651 28.6566C11.2248 27.999 9.42688 26.5715 8.20021 24.5682H6.25517C3.43394 24.5682 1.13878 22.273 1.13878 19.4518V11.704C1.13878 5.2504 6.38918 0 12.8428 0H34.8858C37.0744 0 39.2089 0.60818 41.0586 1.75843C41.3785 1.95748 41.4862 2.38438 41.2776 2.69824C40.9641 3.17135 40.4501 2.98723 40.3378 2.91756C38.7048 1.90167 36.8195 1.36494 34.8858 1.36494C30.282 1.36494 26.372 4.38984 25.0373 8.55611H31.7977C36.892 8.55611 41.0366 13.156 41.0366 18.8099C41.0366 20.3813 40.716 21.8707 40.1444 23.2033H41.134C43.3897 23.2033 45.2249 21.3681 45.2249 19.112V11.704C45.2249 9.00931 44.1941 6.45823 42.3223 4.52101C42.0603 4.2498 42.0678 3.81757 42.3386 3.55595C42.6098 3.29398 43.0421 3.30145 43.3037 3.5723C45.4229 5.7658 46.5898 8.6535 46.5898 11.704V19.112C46.5898 22.1206 44.1422 24.5682 41.134 24.5682H39.4381C37.7739 27.2796 34.9704 29.0636 31.798 29.0636H27.0481L24.8706 38.7949C24.6054 39.9792 23.8952 40.9891 22.8705 41.6392C22.1336 42.1066 21.1014 42.514 19.445 42.2364L15.0999 41.2642H15.0996C14.3225 41.09 13.6216 40.7235 13.0468 40.2035H4.31084C1.93393 40.2035 -9.15527e-05 38.2695 -9.15527e-05 35.8922C-9.15527e-05 33.5153 1.93393 31.5813 4.31084 31.5813ZM29.404 1.36494H12.8428C7.14202 1.36494 2.50372 6.00325 2.50372 11.704V19.4518C2.50372 21.5202 4.18679 23.2033 6.25517 23.2033H19.4304C21.4991 23.2033 23.1818 21.5202 23.1818 19.4518V11.704C23.1818 7.22956 25.7056 3.33379 29.404 1.36494ZM24.701 9.92105C24.4608 10.6934 24.5468 12.4501 24.5468 12.4501C25.2776 11.4225 26.174 10.5662 27.1842 9.92105H24.701ZM39.6717 18.8099C39.6717 13.9085 36.1395 9.92105 31.7977 9.92105C28.6377 9.92105 25.7937 12.0424 24.5525 15.3257L24.5468 15.3236V19.4518C24.5468 20.0806 24.432 20.6827 24.2237 21.2397C25.1813 25.0527 28.2684 27.6987 31.7977 27.6987C36.1395 27.6987 39.6717 23.7112 39.6717 18.8099ZM23.2881 22.8073C22.3494 23.885 20.9688 24.5682 19.4304 24.5682H9.84951C11.3389 26.5431 13.5238 27.6987 15.8456 27.6987H27.1885C25.4663 26.6 24.0819 24.8966 23.2881 22.8073ZM19.7428 40.9045C21.4533 41.2869 23.1559 40.2071 23.5387 38.497L25.6494 29.0636H22.4852L20.5252 37.8227C20.2639 38.9914 19.568 39.9899 18.5645 40.6407L19.7428 40.9045ZM15.3978 39.9323C17.8856 40.5664 19.0081 38.353 19.1933 37.5245L21.0864 29.0636H15.8456C15.4234 29.0636 15.0057 29.0309 14.5937 28.9687L12.9899 36.1364C12.8047 36.965 12.9409 39.3056 15.3978 39.9323Z" fill="#CF3535"/>
<path d="M33.2697 21.0926C33.7058 20.4837 33.9561 19.6516 33.9561 18.8099C33.9561 17.8395 33.6251 16.894 33.0713 16.2802C32.819 16.0004 32.3874 15.978 32.1073 16.2307C31.8276 16.4835 31.8056 16.915 32.0579 17.1947C32.3156 17.4802 32.5911 18.0546 32.5911 18.8099C32.5911 19.373 32.434 19.9154 32.1599 20.2978C31.9406 20.6042 31.9989 21.0486 32.3174 21.2501C32.7816 21.5437 33.1364 21.2785 33.2697 21.0926Z" fill="#CF3535"/>
</svg>
