<svg width="18" height="18" viewBox="0 0 18 18" fill="none" xmlns="http://www.w3.org/2000/svg">
<g clip-path="url(#clip0_59_2426)">
<path d="M9 0C4.03594 0 0 4.03594 0 9C0 13.9641 4.03594 18 9 18C13.9641 18 18 13.9641 18 9C18 4.03594 13.9641 0 9 0ZM12.8004 10.5539H10.6172V12.7371C10.6172 13.6301 9.89297 14.3543 9 14.3543C8.10703 14.3543 7.38281 13.6301 7.38281 12.7371V10.5539H5.19961C4.30664 10.5539 3.58242 9.82969 3.58242 8.93672C3.58242 8.04375 4.30664 7.31953 5.19961 7.31953H7.38281V5.13281C7.38281 4.23984 8.10703 3.51562 9 3.51562C9.89297 3.51562 10.6172 4.23984 10.6172 5.13281V7.31602H12.8004C13.6934 7.31602 14.4176 8.04023 14.4176 8.9332C14.4211 9.82969 13.6969 10.5539 12.8004 10.5539Z" fill="#F54545"/>
</g>
<defs>
<clipPath id="clip0_59_2426">
<rect width="18" height="18" fill="white"/>
</clipPath>
</defs>
</svg>
