<svg width="137" height="133" viewBox="0 0 137 133" fill="none" xmlns="http://www.w3.org/2000/svg">
<g filter="url(#filter0_d_1753_218)">
<g filter="url(#filter1_d_1753_218)">
<path d="M59.3659 37.1131L56.5771 36.8032L60.2955 25.958L62.1547 28.4369L59.3659 37.1131Z" fill="#6D2626"/>
<path d="M70.5214 27.1972C67.2162 26.7841 60.5438 25.9578 60.2959 25.9578L62.1551 28.4367L69.9016 29.3663L70.5214 27.1972Z" fill="#992B2B"/>
<path d="M77.3379 44.8594L78.8872 46.4088L82.2957 34.9438H80.4365L77.3379 44.8594Z" fill="#892A2A"/>
<path d="M59.056 43.9298L56.5771 43.0002L61.8448 47.6482L63.0843 47.0285L59.056 43.9298Z" fill="#B13232"/>
<path d="M56.5771 43.0002L66.8026 44.2397L67.4223 44.8594L59.056 43.9298L56.5771 43.0002Z" fill="#8B2929"/>
<path d="M63.0845 47.0285L61.5352 47.6482L71.7606 49.1975L70.5212 47.9581L63.0845 47.0285Z" fill="#8B2929"/>
<path d="M77.0283 31.8453V29.9861L82.296 34.9439H80.4368L77.0283 31.8453Z" fill="#702B2B"/>
<path d="M73.6197 41.451L77.0282 31.8453V29.9861L73 41.1411L73.6197 41.451Z" fill="#892A2A"/>
<path fill-rule="evenodd" clip-rule="evenodd" d="M69.5777 42.884L76.3084 23.2194L57.6184 21L51 40.5154L69.5777 42.884ZM66.8571 38.0824L70.5728 27.2264L60.2549 26.0011L56.6011 36.7748L66.8571 38.0824Z" fill="url(#paint0_linear_1753_218)"/>
<path fill-rule="evenodd" clip-rule="evenodd" d="M79.3392 51.9864L69.5781 42.8841L76.3088 23.2195L85.8704 32.0756L79.3392 51.9864ZM78.6899 46.0039L73.2599 40.9403L77.0041 30.001L82.3231 34.9276L78.6899 46.0039Z" fill="#992B2B"/>
<path fill-rule="evenodd" clip-rule="evenodd" d="M60.5398 49.2726L51 40.5154L69.5777 42.8839L79.3388 51.9862L60.5398 49.2726ZM61.8282 47.7029L56.7347 43.0272L66.6538 44.2918L71.8654 49.1517L61.8282 47.7029Z" fill="url(#paint1_linear_1753_218)"/>
</g>
</g>
<defs>
<filter id="filter0_d_1753_218" x="47" y="21" width="42.8701" height="38.9863" filterUnits="userSpaceOnUse" color-interpolation-filters="sRGB">
<feFlood flood-opacity="0" result="BackgroundImageFix"/>
<feColorMatrix in="SourceAlpha" type="matrix" values="0 0 0 0 0 0 0 0 0 0 0 0 0 0 0 0 0 0 127 0" result="hardAlpha"/>
<feOffset dy="4"/>
<feGaussianBlur stdDeviation="2"/>
<feComposite in2="hardAlpha" operator="out"/>
<feColorMatrix type="matrix" values="0 0 0 0 0 0 0 0 0 0 0 0 0 0 0 0 0 0 0.25 0"/>
<feBlend mode="normal" in2="BackgroundImageFix" result="effect1_dropShadow_1753_218"/>
<feBlend mode="normal" in="SourceGraphic" in2="effect1_dropShadow_1753_218" result="shape"/>
</filter>
<filter id="filter1_d_1753_218" x="0" y="0" width="136.87" height="132.986" filterUnits="userSpaceOnUse" color-interpolation-filters="sRGB">
<feFlood flood-opacity="0" result="BackgroundImageFix"/>
<feColorMatrix in="SourceAlpha" type="matrix" values="0 0 0 0 0 0 0 0 0 0 0 0 0 0 0 0 0 0 127 0" result="hardAlpha"/>
<feOffset dy="30"/>
<feGaussianBlur stdDeviation="25.5"/>
<feColorMatrix type="matrix" values="0 0 0 0 0.980392 0 0 0 0 0.278431 0 0 0 0 0.278431 0 0 0 0.26 0"/>
<feBlend mode="normal" in2="BackgroundImageFix" result="effect1_dropShadow_1753_218"/>
<feBlend mode="normal" in="SourceGraphic" in2="effect1_dropShadow_1753_218" result="shape"/>
</filter>
<linearGradient id="paint0_linear_1753_218" x1="63.6542" y1="21" x2="63.6542" y2="42.884" gradientUnits="userSpaceOnUse">
<stop stop-color="#FB4747"/>
<stop offset="1" stop-color="#CF3535"/>
</linearGradient>
<linearGradient id="paint1_linear_1753_218" x1="50.5667" y1="44.7229" x2="79.8012" y2="47.7917" gradientUnits="userSpaceOnUse">
<stop stop-color="#FA4747"/>
<stop offset="1" stop-color="#CF3535"/>
</linearGradient>
</defs>
</svg>
